<?xml version="1.0" standalone="no"?>
<!DOCTYPE svg PUBLIC "-//W3C//DTD SVG 1.1//EN" "http://www.w3.org/Graphics/SVG/1.1/DTD/svg11.dtd" >
<svg xmlns="http://www.w3.org/2000/svg" xmlns:xlink="http://www.w3.org/1999/xlink" version="1.1">
<metadata>
Created by FontForge 20170731 at Thu Dec 16 10:37:08 2021
 By Aleksey,,,
Copyright (c) 2014 by Michal Sahar. All rights reserved.
</metadata>
<defs>
<font id="Simpler-Black" horiz-adv-x="0" >
  <font-face 
    font-family="Simpler Black"
    font-weight="900"
    font-stretch="normal"
    units-per-em="2048"
    panose-1="0 0 10 0 0 0 0 0 0 0"
    ascent="1638"
    descent="-410"
    x-height="1094"
    cap-height="1483"
    bbox="-106 -778 2871 2075"
    underline-thickness="102"
    underline-position="-307"
    unicode-range="U+0020-FB4B"
  />
<missing-glyph horiz-adv-x="1024" 
d="M0 0v1434h1024v-1434h-1024zM512 809l348 522h-696zM573 717l349 -522v1044zM164 102h696l-348 523zM102 1239v-1044l349 522z" />
    <glyph glyph-name="fi" unicode="fi" horiz-adv-x="1431" 
d="M561 1616q113 0 209 -35v-264q-69 31 -123 31q-123 0 -123 -119v-135h772v-1094h-329v825h-443v-825h-329v825h-123v269h123v155q0 169 98.5 268t267.5 99zM1298 1513v-270h-333v270h333z" />
    <glyph glyph-name="fl" unicode="fl" horiz-adv-x="1439" 
d="M561 1616q113 0 209 -35v-264q-69 31 -123 31q-123 0 -123 -119v-135h441v491h342v-1585h-342v825h-441v-825h-329v825h-123v269h123v155q0 169 98.5 268t267.5 99z" />
    <glyph glyph-name="f_f" unicode="ff" horiz-adv-x="1581" 
d="M1331 1616q113 0 209 -35v-264q-69 31 -123 31q-123 0 -123 -119v-135h246v-269h-246v-825h-329v825h-441v-825h-329v825h-123v269h123v155q0 169 98.5 268t267.5 99q113 0 209 -35v-264q-69 31 -123 31q-123 0 -123 -119v-135h441v155q0 169 98.5 268t267.5 99z" />
    <glyph glyph-name="f_f_i" unicode="ffi" horiz-adv-x="2199" 
d="M1331 1616q113 0 209 -35v-264q-69 31 -123 31q-123 0 -123 -119v-135h770v-1094h-329v825h-441v-825h-329v825h-441v-825h-329v825h-123v269h123v155q0 169 98.5 268t267.5 99q113 0 209 -35v-264q-69 31 -123 31q-123 0 -123 -119v-135h441v155q0 169 98.5 268
t267.5 99zM2066 1513v-270h-333v270h333z" />
    <glyph glyph-name="f_f_l" unicode="ffl" horiz-adv-x="2209" 
d="M1331 1616q113 0 209 -35v-264q-69 31 -123 31q-123 0 -123 -119v-135h441v491h342v-1585h-342v825h-441v-825h-329v825h-441v-825h-329v825h-123v269h123v155q0 169 98.5 268t267.5 99q113 0 209 -35v-264q-69 31 -123 31q-123 0 -123 -119v-135h441v155q0 169 98.5 268
t267.5 99z" />
    <glyph glyph-name=".notdef" horiz-adv-x="1024" 
d="M0 0v1434h1024v-1434h-1024zM512 809l348 522h-696zM573 717l349 -522v1044zM164 102h696l-348 523zM102 1239v-1044l349 522z" />
    <glyph glyph-name=".null" 
 />
    <glyph glyph-name="nonmarkingreturn" horiz-adv-x="682" 
 />
    <glyph glyph-name="space" unicode=" " horiz-adv-x="450" 
 />
    <glyph glyph-name="exclam" unicode="!" horiz-adv-x="802" 
d="M571 1483v-326l-71 -649h-209l-72 651v324h352zM401 346q77 0 132 -55t55 -131t-55 -131.5t-132 -55.5q-76 0 -131 55t-55 132q0 76 54.5 131t131.5 55z" />
    <glyph glyph-name="quotedbl" unicode="&#x22;" horiz-adv-x="1312" 
d="M1190 1483l-397 -500h-185l209 500h373zM705 1483l-398 -500h-184l209 500h373z" />
    <glyph glyph-name="numbersign" unicode="#" horiz-adv-x="1642" 
d="M1163 1274v-297h295v-205h-295v-270h295v-207h-295v-295h-211v295h-262v-295h-209v295h-297v207h297v270h-297v205h297v297h209v-297h262v297h211zM952 772h-262v-270h262v270z" />
    <glyph glyph-name="dollar" unicode="$" horiz-adv-x="1241" 
d="M831 1669l-26 -182q135 -35 239 -111v-301q-146 98 -278 133l-49 -340q42 -15 69 -25t73.5 -32t77.5 -43.5t68.5 -56.5t59.5 -73t37.5 -91t15.5 -113q0 -93 -33.5 -175t-95.5 -146t-159.5 -101t-217.5 -37h-24l-23 -161h-157l26 178q-149 31 -282 119v305
q164 -120 321 -146l49 346q-39 13 -68.5 24.5t-73.5 33t-76.5 43.5t-68.5 57t-59 74t-38 92t-15 113q0 88 30.5 168.5t89.5 145.5t154.5 103.5t214.5 38.5h39l23 160h157zM672 559l-41 -295q70 13 108.5 56t38.5 102q0 87 -106 137zM567 926l43 297q-72 -10 -110.5 -49
t-38.5 -99q0 -93 106 -149z" />
    <glyph glyph-name="percent" unicode="%" horiz-adv-x="1613" 
d="M1401 1483l-1018 -1483h-170l1018 1483h170zM1182 629q137 0 233 -96t96 -234q0 -135 -96.5 -232.5t-232.5 -97.5t-233 97.5t-97 232.5q0 138 96.5 234t233.5 96zM1182 453q-62 0 -104 -44t-42 -110q0 -62 43 -108t103 -46q61 0 103 44.5t42 109.5q0 63 -42.5 108.5
t-102.5 45.5zM432 1513q137 0 233.5 -95.5t96.5 -233.5q0 -135 -97 -232.5t-233 -97.5t-233 97.5t-97 232.5q0 138 96.5 233.5t233.5 95.5zM432 1337q-62 0 -103.5 -43.5t-41.5 -109.5q0 -62 42.5 -108t102.5 -46q61 0 103.5 44.5t42.5 109.5q0 63 -43 108t-103 45z" />
    <glyph glyph-name="ampersand" unicode="&#x26;" horiz-adv-x="1712" 
d="M727 1518q186 0 304 -98.5t118 -250.5q0 -223 -272 -378l-29 -17l248 -282l405 329v-364l-211 -172l258 -285h-364l-109 115q-71 -71 -175 -108.5t-216 -37.5q-78 0 -153 17.5t-141.5 54.5t-116.5 89.5t-79.5 127t-29.5 162.5q0 243 235 399q-127 176 -127 322
q0 162 129.5 269.5t325.5 107.5zM885 319l-291 308q-58 -36 -91.5 -82t-33.5 -113q0 -94 63.5 -146.5t153.5 -52.5q125 0 199 86zM719 1274q-67 0 -107.5 -37.5t-40.5 -95.5q0 -100 111 -187q87 50 133.5 98t46.5 101q0 51 -39.5 86t-103.5 35z" />
    <glyph glyph-name="quotesingle" unicode="'" horiz-adv-x="827" 
d="M705 1483l-398 -500h-184l209 500h373z" />
    <glyph glyph-name="parenleft" unicode="(" horiz-adv-x="796" 
d="M565 1585h211q-197 -219 -280.5 -449.5t-83.5 -492.5q0 -261 83 -490.5t281 -453.5h-211q-215 169 -344 423.5t-129 518.5q0 266 130.5 522.5t342.5 421.5z" />
    <glyph glyph-name="parenright" unicode=")" horiz-adv-x="788" 
d="M12 1585h211q212 -165 342.5 -421.5t130.5 -522.5q0 -264 -129 -518.5t-344 -423.5h-211q198 224 281.5 453.5t83.5 490.5q0 262 -83.5 492t-281.5 450z" />
    <glyph glyph-name="asterisk" unicode="*" horiz-adv-x="1150" 
d="M705 1483l-21 -316l285 117l80 -252l-293 -78l192 -243l-209 -156l-161 270l-166 -272l-209 156l196 245l-297 78l80 252l285 -113l-23 312h261z" />
    <glyph glyph-name="plus" unicode="+" horiz-adv-x="1667" 
d="M963 1354v-500h499v-258h-499v-502l-258 2v500h-500v258h500v500h258z" />
    <glyph glyph-name="comma" unicode="," horiz-adv-x="722" 
d="M610 285l-313 -500h-205l166 500h352z" />
    <glyph glyph-name="hyphen" unicode="-" horiz-adv-x="1071" 
d="M907 766v-262h-743v262h743z" />
    <glyph glyph-name="period" unicode="." horiz-adv-x="690" 
d="M330 342q76 0 131 -55t55 -131q0 -77 -55 -132t-131 -55t-131.5 55.5t-55.5 131.5t55 131t132 55z" />
    <glyph glyph-name="slash" unicode="/" horiz-adv-x="1148" 
d="M1118 1583l-839 -1583h-248l839 1583h248z" />
    <glyph glyph-name="zero" unicode="0" horiz-adv-x="1363" 
d="M682 1513q263 0 421.5 -198t158.5 -574t-158.5 -574t-421.5 -198t-421.5 198t-158.5 574t158.5 574t421.5 198zM682 1206q-119 0 -177.5 -112.5t-58.5 -352.5t58.5 -352.5t177.5 -112.5t177.5 112.5t58.5 352.5t-58.5 352.5t-177.5 112.5z" />
    <glyph glyph-name="one" unicode="1" horiz-adv-x="923" 
d="M698 1483v-1483h-348v1014h-260v233q124 6 211.5 68t122.5 168h274z" />
    <glyph glyph-name="two" unicode="2" horiz-adv-x="1142" 
d="M571 1513q217 0 353.5 -128.5t136.5 -321.5q0 -29 -2.5 -54.5t-11.5 -52.5t-15 -46.5t-23.5 -48t-27.5 -44.5t-36 -50t-38 -50t-46.5 -58t-49.5 -61l-250 -311h473v-287h-911v223l516 633q63 76 83.5 112t20.5 85q0 77 -46 124.5t-126 47.5q-94 0 -141 -63t-39 -161h-309
q-8 222 126 367t363 145z" />
    <glyph glyph-name="three" unicode="3" horiz-adv-x="1069" 
d="M901 1483v-221l-246 -291q147 -41 239.5 -159t92.5 -298q0 -169 -85.5 -293.5t-231.5 -187t-334 -62.5q-129 0 -254 43v308q115 -56 256 -56q149 0 235 64.5t86 185.5q0 96 -53.5 145.5t-132.5 49.5q-102 0 -209 -101v316l232 276h-400v281h805z" />
    <glyph glyph-name="four" unicode="4" horiz-adv-x="1249" 
d="M948 1483l-506 -908h295v220l318 2v-222h123v-276h-123v-299l-318 -2v301h-659v281l504 903h366z" />
    <glyph glyph-name="five" unicode="5" horiz-adv-x="1089" 
d="M909 1483v-281h-446l-14 -231q58 10 106 10q91 0 173 -32t144.5 -91t99 -149t36.5 -199q0 -168 -84.5 -293t-227.5 -188.5t-323 -63.5q-171 0 -293 53l20 299q109 -57 260 -57q147 0 233.5 64t86.5 184q0 97 -53 147t-133 50q-98 0 -158 -82l-209 86l53 774h729z" />
    <glyph glyph-name="six" unicode="6" horiz-adv-x="1208" 
d="M965 1483l-394 -604q61 14 117 14q63 0 124.5 -17t118.5 -52.5t100 -86.5t69 -123.5t26 -158.5q0 -214 -148 -353t-378 -139t-374 139.5t-144 364.5q0 147 61 287q37 86 144 254l307 475h371zM608 649q-88 0 -140 -58t-52 -151q0 -95 51.5 -152t140.5 -57t141 57.5
t52 151.5q0 93 -52.5 151t-140.5 58z" />
    <glyph glyph-name="seven" unicode="7" horiz-adv-x="1132" 
d="M1061 1483v-269q-149 -180 -231.5 -302t-129.5 -246q-48 -127 -66 -278.5t-16 -387.5h-354q0 397 80 655q87 277 307 541h-559v287h969z" />
    <glyph glyph-name="eight" unicode="8" horiz-adv-x="1232" 
d="M616 1513q217 0 354.5 -113t137.5 -298q0 -198 -162 -320q104 -57 154.5 -153.5t50.5 -210.5q0 -205 -148 -330t-387 -125t-386.5 125t-147.5 330q0 114 50.5 210.5t154.5 153.5q-162 122 -162 320q0 185 137 298t354 113zM614 639q-82 0 -132 -59.5t-50 -147.5
t50 -147.5t132 -59.5t132.5 59.5t50.5 147.5t-50.5 147.5t-132.5 59.5zM616 1251q-70 0 -112.5 -48t-42.5 -122q0 -77 43.5 -131.5t111.5 -54.5t112 54.5t44 131.5q0 74 -43 122t-113 48z" />
    <glyph glyph-name="nine" unicode="9" horiz-adv-x="1208" 
d="M608 1520q230 0 374 -139.5t144 -364.5q0 -147 -61 -287q-39 -91 -143 -254l-308 -475h-370l393 604q-61 -14 -117 -14q-63 0 -124.5 17t-118.5 52.5t-100 86.5t-69 123.5t-26 158.5q0 214 148 353t378 139zM600 1251q-88 0 -140 -57t-52 -150q0 -95 52 -152.5t140 -57.5
q89 0 141 57.5t52 152.5q0 93 -52.5 150t-140.5 57z" />
    <glyph glyph-name="colon" unicode=":" horiz-adv-x="694" 
d="M520 1094v-344h-346v344h346zM520 344v-344h-346v344h346z" />
    <glyph glyph-name="semicolon" unicode=";" horiz-adv-x="784" 
d="M580 346l-293 -500h-226l146 500h373zM569 1094v-344h-346v344h346z" />
    <glyph glyph-name="less" unicode="&#x3c;" horiz-adv-x="1110" 
d="M803 1432l205 -205l-502 -498l502 -500l-205 -200l-701 702z" />
    <glyph glyph-name="equal" unicode="=" horiz-adv-x="1503" 
d="M1298 1112v-258h-1093v258h1093zM1298 596v-258h-1093v258h1093z" />
    <glyph glyph-name="greater" unicode="&#x3e;" horiz-adv-x="1110" 
d="M307 1432l701 -701l-701 -702l-205 200l502 500l-502 498z" />
    <glyph glyph-name="question" unicode="?" horiz-adv-x="1095" 
d="M541 1518q181 0 296 -105.5t115 -267.5q0 -97 -47.5 -180t-156.5 -195l-127 -131v-147h-291v233l250 260q47 51 67.5 86.5t20.5 71.5q0 53 -36.5 85t-94.5 32q-69 0 -105 -46.5t-31 -117.5h-278q-8 183 109 302.5t309 119.5zM479 342q77 0 132 -55t55 -131t-55 -131.5
t-132 -55.5q-76 0 -131 55t-55 132q0 76 54.5 131t131.5 55z" />
    <glyph glyph-name="at" unicode="@" horiz-adv-x="1992" 
d="M995 1470q174 0 332 -67.5t273 -181.5t182.5 -272t66.5 -331q0 -208 -92 -387h-256q129 163 129 385q0 177 -83.5 323.5t-229.5 230t-322 83.5t-321.5 -83.5t-228.5 -229.5t-83 -322t83 -321.5t228.5 -229t321.5 -83.5q191 0 346 102v-246q-162 -73 -346 -73
q-174 0 -331.5 67.5t-271.5 181t-181.5 271t-67.5 331.5t67.5 331.5t181.5 271.5t271.5 181.5t331.5 67.5zM1110 526v52q-128 -23 -174 -29q-42 -7 -64 -32t-22 -58q0 -40 29.5 -66t70.5 -26q56 0 108 40.5t52 118.5zM1004 1026q69 0 126.5 -16t106.5 -50.5t76.5 -98
t27.5 -150.5v-480h-147l-59 88q-71 -110 -226 -110q-124 0 -201 71.5t-77 174.5q0 90 60.5 147.5t164.5 75.5l180 31q38 6 56 21t18 46q0 44 -34 64t-81 20q-58 0 -88.5 -27.5t-32.5 -72.5h-217q6 118 98 192t249 74z" />
    <glyph glyph-name="A" unicode="A" horiz-adv-x="1482" 
d="M899 1483l584 -1483h-348l-117 299h-553l-117 -299h-348l584 1483h315zM741 1010l-170 -437h340z" />
    <glyph glyph-name="B" unicode="B" horiz-adv-x="1323" 
d="M143 1483h588q173 0 296.5 -123.5t123.5 -298.5q0 -170 -131 -270q110 -39 176 -125.5t66 -216.5q0 -188 -130 -318.5t-315 -130.5h-674v1483zM467 627v-369h285q75 0 128.5 53t53.5 129t-53.5 130.5t-128.5 54.5zM467 1229v-348h197q72 0 123 50t51 122q0 73 -51 123.5
t-123 50.5z" />
    <glyph glyph-name="C" unicode="C" horiz-adv-x="1443" 
d="M897 1513q239 0 434 -102v-303q-193 111 -391 111q-100 0 -189 -30.5t-159 -88t-111 -149.5t-41 -206t41 -206t111 -149.5t159 -87.5t189 -30q198 0 391 111v-303q-197 -103 -434 -103q-162 0 -308 53.5t-256.5 150t-175.5 243t-65 321.5t65 321.5t175.5 243t256.5 150
t308 53.5z" />
    <glyph glyph-name="D" unicode="D" horiz-adv-x="1505" 
d="M143 1483h547q221 0 392 -98.5t261.5 -266.5t90.5 -377t-91 -377t-261.5 -266t-391.5 -98h-547v1483zM664 1186h-181v-891h181q194 0 308.5 126.5t114.5 317.5q0 192 -114.5 319.5t-308.5 127.5z" />
    <glyph glyph-name="E" unicode="E" horiz-adv-x="1105" 
d="M993 1483v-297h-516v-279h475v-289h-475v-321h516v-297h-850v1483h850z" />
    <glyph glyph-name="F" unicode="F" horiz-adv-x="1085" 
d="M993 1483v-297h-512v-279h471v-289h-471v-618h-338v1483h850z" />
    <glyph glyph-name="G" unicode="G" horiz-adv-x="1624" 
d="M911 1513q278 0 508 -129v-309q-105 68 -232.5 108t-244.5 40q-80 0 -154 -19t-138.5 -58.5t-112.5 -95.5t-75.5 -134.5t-27.5 -170.5q0 -114 41.5 -206t111.5 -150t159 -89t188 -32q133 0 244 51v230h-236v264h549v-651q-229 -185 -567 -185q-372 0 -602 216
q-230 217 -230 552q0 175 64.5 321t175.5 243t260 150.5t319 53.5z" />
    <glyph glyph-name="H" unicode="H" horiz-adv-x="1644" 
d="M1501 1483v-1483h-340v614h-678v-614h-340v1483h340v-572h678v572h340z" />
    <glyph glyph-name="I" unicode="I" horiz-adv-x="649" 
d="M496 1483v-1483h-342v1483h342z" />
    <glyph glyph-name="J" unicode="J" horiz-adv-x="770" 
d="M637 1483v-1139q0 -172 -101.5 -273.5t-273.5 -101.5q-99 0 -190 31v266q56 -22 104 -22q60 0 92.5 30.5t32.5 90.5l-2 1118h338z" />
    <glyph glyph-name="K" unicode="K" horiz-adv-x="1384" 
d="M1384 1483l-591 -742h-2l2 -2l604 -739h-414l-494 621l-4 -3h-4v-618h-338v1483h338v-621h4l4 -2l482 623h413z" />
    <glyph glyph-name="L" unicode="L" horiz-adv-x="1054" 
d="M481 1483v-1176h482v-307h-820v1483h338z" />
    <glyph glyph-name="M" unicode="M" horiz-adv-x="2129" 
d="M1890 1483l158 -1483h-342l-104 979l-412 -1010h-250l-412 1010l-104 -979h-342l158 1483h426l399 -979l399 979h426z" />
    <glyph glyph-name="N" unicode="N" horiz-adv-x="1673" 
d="M455 1487l737 -940v936h338v-1487h-311l-738 936v-932h-338v1487h312z" />
    <glyph glyph-name="O" unicode="O" horiz-adv-x="1748" 
d="M874 1513q120 0 234.5 -32t213.5 -97t174 -155.5t118 -216.5t43 -271t-43 -271t-118 -216.5t-174 -155.5t-213.5 -97t-234.5 -32t-234 32t-213.5 97t-174 155.5t-117.5 216.5t-43 271t43 271t117.5 216.5t174 155.5t213.5 97t234 32zM874 1206q-121 0 -220.5 -58
t-158.5 -165t-59 -242q0 -205 126.5 -335t311.5 -130t312 130t127 335q0 101 -34.5 188.5t-94 148t-140 94.5t-170.5 34z" />
    <glyph glyph-name="P" unicode="P" horiz-adv-x="1241" 
d="M143 1483h553q192 0 327.5 -135.5t135.5 -327.5t-135.5 -327.5t-327.5 -135.5h-221v-557h-332v1483zM629 1210h-154v-383l154 2q77 0 133.5 55t56.5 136q0 79 -56 134.5t-134 55.5z" />
    <glyph glyph-name="Q" unicode="Q" horiz-adv-x="1789" 
d="M874 1513q120 0 234.5 -32t213.5 -97t174 -155.5t118 -216.5t43 -271q0 -240 -115 -424l291 -317h-401l-103 102q-201 -133 -455 -133q-120 0 -234 32t-213.5 97t-174 155.5t-117.5 216.5t-43 271t43 271t117.5 216.5t174 155.5t213.5 97t234 32zM874 1206
q-121 0 -220.5 -58t-158.5 -165t-59 -242q0 -205 126.5 -335t311.5 -130t312 130t127 335q0 101 -34.5 188.5t-94 148t-140 94.5t-170.5 34z" />
    <glyph glyph-name="R" unicode="R" horiz-adv-x="1280" 
d="M143 1483h553q192 0 327.5 -135.5t135.5 -327.5q0 -150 -87 -269t-226 -165l454 -586h-403l-393 561h-29v-561h-332v1483zM629 1210h-154v-383l154 2q77 0 133.5 55t56.5 136q0 79 -56 134.5t-134 55.5z" />
    <glyph glyph-name="S" unicode="S" horiz-adv-x="1171" 
d="M584 1509q116 0 228 -34t198 -99v-301q-96 67 -201 108.5t-195 41.5q-88 0 -138 -41t-50 -113q0 -40 15.5 -69.5t54.5 -54t75.5 -39.5t108.5 -40q46 -16 77 -28.5t77.5 -35t77.5 -44t66 -55.5t56 -72t35 -89t14 -110q0 -92 -32.5 -174t-95 -146t-163.5 -101.5t-227 -37.5
q-244 0 -448 136v305q103 -76 213 -116t205 -40q106 0 157 46.5t51 115.5q0 31 -12.5 56t-30 42t-53 34t-65 28.5t-83.5 29.5q-8 3 -12 4q-44 15 -74 27t-75 34t-76.5 44.5t-66.5 56.5t-56.5 72t-36 90t-14.5 111q0 89 31 170t90.5 146t156 103.5t218.5 38.5z" />
    <glyph glyph-name="T" unicode="T" horiz-adv-x="1142" 
d="M1081 1483v-297h-340v-1186h-340v1186h-340v297h1020z" />
    <glyph glyph-name="U" unicode="U" horiz-adv-x="1519" 
d="M1376 1483v-897q0 -140 -48.5 -257t-132 -195t-196 -121.5t-239.5 -43.5t-239.5 43.5t-196.5 121.5t-132.5 195t-48.5 257v897h338l2 -926q0 -121 80 -198.5t197 -77.5t196.5 77.5t79.5 198.5l2 926h338z" />
    <glyph glyph-name="V" unicode="V" horiz-adv-x="1544" 
d="M1493 1483l-569 -1489h-303l-570 1489h371l350 -994l350 994h371z" />
    <glyph glyph-name="W" unicode="W" horiz-adv-x="2437" 
d="M2386 1483l-490 -1483h-331l-346 961l-347 -961h-331l-490 1483h365l301 -994l358 994h287l358 -994l301 994h365z" />
    <glyph glyph-name="X" unicode="X" horiz-adv-x="1447" 
d="M1393 1483l-469 -697l530 -786h-399l-330 502l-332 -502h-399l532 786l-471 697h400l270 -412l268 412h400z" />
    <glyph glyph-name="Y" unicode="Y" horiz-adv-x="1392" 
d="M1393 1483l-529 -803v-680h-336v680l-528 803h379l317 -496l318 496h379z" />
    <glyph glyph-name="Z" unicode="Z" horiz-adv-x="1288" 
d="M1171 1483v-230l-616 -956h616v-297h-1054v229l616 957h-616v297h1054z" />
    <glyph glyph-name="bracketleft" unicode="[" horiz-adv-x="720" 
d="M674 1597v-221h-295v-1458h295v-221h-541v1900h541z" />
    <glyph glyph-name="backslash" unicode="\" horiz-adv-x="1169" 
d="M279 1583l860 -1614h-248l-860 1614h248z" />
    <glyph glyph-name="bracketright" unicode="]" horiz-adv-x="720" 
d="M588 1597v-1900h-541v221h295v1458h-295v221h541z" />
    <glyph glyph-name="asciicircum" unicode="^" horiz-adv-x="1517" 
d="M897 1483l457 -920h-318l-278 572l-277 -572h-317l454 920h279z" />
    <glyph glyph-name="underscore" unicode="_" horiz-adv-x="1193" 
d="M1153 0v-217h-1112v217h1112z" />
    <glyph glyph-name="grave" unicode="`" horiz-adv-x="1228" 
d="M535 1513l151 -294h-151l-338 294h338z" />
    <glyph glyph-name="a" unicode="a" horiz-adv-x="1155" 
d="M578 1124q77 0 144 -13t129 -45.5t106 -82.5t70 -128t26 -177v-678h-217l-72 125q-107 -156 -322 -156q-177 0 -284 101t-107 245q0 122 83 202.5t233 115.5l258 59q53 12 77.5 30t24.5 56q0 55 -47.5 83t-114.5 28q-78 0 -124 -38t-48 -103h-305q11 169 140.5 272.5
t349.5 103.5zM727 416v80q-22 -5 -36.5 -7.5t-27.5 -5t-61.5 -11.5t-122.5 -23q-57 -10 -89 -45t-32 -82q0 -57 42 -93t102 -36q35 0 72 13t72.5 38t58 70t22.5 102z" />
    <glyph glyph-name="b" unicode="b" horiz-adv-x="1341" 
d="M465 1585v-594h4q110 133 303 133q114 0 210 -49t158 -130t96 -184t34 -214t-34.5 -214.5t-96.5 -185t-157 -130t-208 -48.5q-114 0 -196.5 47t-128.5 129l-84 -145h-232v1585h332zM700 850q-115 0 -176 -86t-61 -217q0 -132 61 -218.5t176 -86.5q113 0 174.5 86.5
t61.5 218.5q0 130 -61.5 216.5t-174.5 86.5z" />
    <glyph glyph-name="c" unicode="c" horiz-adv-x="1079" 
d="M670 1124q176 0 317 -75v-283q-55 37 -129.5 60.5t-148.5 23.5q-136 0 -223 -81.5t-87 -221.5t87 -221.5t223 -81.5q74 0 148.5 23.5t129.5 60.5v-283q-140 -76 -315 -76q-173 0 -309 71t-213.5 203t-77.5 304q0 271 182 432q82 73 190.5 109t225.5 36z" />
    <glyph glyph-name="d" unicode="d" horiz-adv-x="1341" 
d="M1208 1585v-1585h-231l-84 145q-46 -82 -129 -129t-197 -47q-91 0 -170.5 31.5t-138.5 87t-101 128.5t-63.5 157.5t-21.5 173.5q0 111 34 214t95.5 184t157.5 130t210 49q193 0 303 -133h5v594h331zM641 850q-113 0 -174 -86.5t-61 -216.5q0 -132 61 -218.5t174 -86.5
q115 0 176.5 86.5t61.5 218.5q0 130 -61.5 216.5t-176.5 86.5z" />
    <glyph glyph-name="e" unicode="e" horiz-adv-x="1236" 
d="M618 1124q110 0 207 -36.5t173.5 -106t121.5 -181.5t45 -253q0 -47 -6 -96h-788q18 -110 85 -168t162 -58q64 0 117.5 27t83.5 78h316q-52 -171 -189 -265t-321 -94q-112 0 -211 36.5t-176 106.5t-121.5 181.5t-44.5 251.5q0 113 29 208t80.5 162.5t120.5 114.5t149 69.5
t167 22.5zM618 870q-93 0 -158 -53t-85 -155h487q-20 102 -85 155t-159 53z" />
    <glyph glyph-name="f" unicode="f" horiz-adv-x="811" 
d="M561 1616q113 0 209 -35v-264q-69 31 -123 31q-123 0 -123 -119v-135h246v-269h-246v-825h-329v825h-123v269h123v155q0 169 98.5 268t267.5 99z" />
    <glyph glyph-name="g" unicode="g" horiz-adv-x="1302" 
d="M598 1116q43 0 155 -11t222 -11h276v-263h-180q21 -72 21 -135q0 -130 -70 -226t-182 -142.5t-250 -46.5q-90 0 -166 20q-23 -23 -23 -53q0 -22 12 -36.5t46 -25t57 -15.5t82 -14l18 -3q189 -30 266 -57q190 -65 220 -214q6 -29 6 -63q0 -111 -66 -188.5t-176 -113.5
t-256 -36q-231 0 -452 96v258q91 -51 210 -87t244 -36q185 0 185 88q0 14 -4.5 25t-17 19t-22 13.5t-32 10t-34.5 6.5t-40 6q-249 36 -348 80q-142 62 -145 197q-3 130 110 213q-172 116 -172 327q0 99 40 179.5t109.5 132t161 79t195.5 27.5zM596 881q-89 0 -143 -50
t-54 -133t54 -132.5t143 -49.5t143 49.5t54 132.5t-54 133t-143 50z" />
    <glyph glyph-name="h" unicode="h" horiz-adv-x="1277" 
d="M465 1585v-592q51 69 133 102t172 33q183 0 294.5 -125.5t111.5 -326.5v-676h-334v569q0 45 -2 77t-12.5 73t-28.5 66t-53 43t-84 18q-45 0 -79.5 -13.5t-55 -39.5t-33.5 -52t-18.5 -61.5t-7 -58.5t-1.5 -52v-569h-334v1585h332z" />
    <glyph glyph-name="i" unicode="i" horiz-adv-x="620" 
d="M475 1094v-1094h-330v1094h330zM477 1513v-270h-334v270h334z" />
    <glyph glyph-name="j" unicode="j" horiz-adv-x="595" 
d="M473 1094v-1246q0 -169 -99 -267.5t-268 -98.5q-93 0 -188 29v262q59 -23 105 -23q120 0 120 119v1225h330zM467 1513v-270h-334v270h334z" />
    <glyph glyph-name="k" unicode="k" horiz-adv-x="1234" 
d="M467 1585v-989l391 498h381l-432 -547l442 -547h-393l-389 492v-492h-332v1585h332z" />
    <glyph glyph-name="l" unicode="l" horiz-adv-x="602" 
d="M469 1585v-1585h-336v1585h336z" />
    <glyph glyph-name="m" unicode="m" horiz-adv-x="1966" 
d="M1491 1128q174 0 273.5 -120t99.5 -314v-694h-338v578q0 23 -0.5 36.5t-2 40.5t-6.5 45t-12.5 43t-21 41t-31 31.5t-43 23t-57.5 7.5q-50 0 -87 -20.5t-56 -49t-30 -69t-13.5 -69t-2.5 -60.5v-578h-329v565q0 31 -1 51t-5.5 58t-16.5 64t-31 53t-51.5 41t-75.5 14
q-38 0 -67.5 -12t-48 -28.5t-32 -44.5t-20 -49.5t-10 -54.5t-4 -49.5t-0.5 -42.5v-565h-338v1094h254l82 -142q71 93 147.5 134.5t182.5 41.5q226 0 336 -184q57 88 153 136t203 48z" />
    <glyph glyph-name="n" unicode="n" horiz-adv-x="1286" 
d="M793 1124q106 0 184 -35.5t122 -100t64.5 -144t20.5 -178.5v-666h-334v557v14q0 31 -0.5 47.5t-2 47.5t-6.5 49t-13 43t-21.5 40t-32 30t-45 21.5t-59.5 6.5q-42 0 -74.5 -12.5t-53.5 -30t-36 -48.5t-22.5 -56t-11.5 -65t-4.5 -63t-0.5 -61v-520h-334v1094h254l84 -144
q55 91 133.5 132.5t188.5 41.5z" />
    <glyph glyph-name="o" unicode="o" horiz-adv-x="1331" 
d="M666 1124q117 0 222.5 -36.5t189 -106t133 -182t49.5 -252.5t-49.5 -252.5t-133 -182.5t-189 -106.5t-222.5 -36.5t-222.5 36.5t-189 106.5t-133 182.5t-49.5 252.5t49.5 252.5t133 182t189 106t222.5 36.5zM666 852q-122 0 -197.5 -79t-75.5 -226t75.5 -226t197.5 -79
t197 79t75 226t-75 226t-197 79z" />
    <glyph glyph-name="p" unicode="p" horiz-adv-x="1341" 
d="M774 1124q113 0 208 -48.5t157 -129.5t96.5 -184.5t34.5 -214.5t-34 -214t-96 -184.5t-158 -130.5t-210 -49q-193 0 -303 133h-4v-594h-332v1586h232l84 -146q46 82 128.5 129t196.5 47zM700 852q-115 0 -176 -86.5t-61 -218.5q0 -131 61 -217t176 -86q113 0 174.5 86.5
t61.5 216.5q0 132 -61.5 218.5t-174.5 86.5z" />
    <glyph glyph-name="q" unicode="q" horiz-adv-x="1341" 
d="M567 1124q114 0 197 -47t129 -129l84 146h231v-1586h-331v594h-5q-110 -133 -303 -133q-114 0 -210 49t-157.5 130.5t-95.5 184.5t-34 214t34 214.5t96 184.5t157 129.5t208 48.5zM641 852q-113 0 -174 -86.5t-61 -218.5q0 -130 61 -216.5t174 -86.5q115 0 176.5 86.5
t61.5 216.5q0 132 -61.5 218.5t-176.5 86.5z" />
    <glyph glyph-name="r" unicode="r" horiz-adv-x="841" 
d="M733 1116q52 0 88 -12v-299q-51 14 -92 14q-52 0 -97 -19.5t-83 -60.5t-60 -114t-22 -170v-455h-334v1094h215l103 -179q43 98 115 149.5t167 51.5z" />
    <glyph glyph-name="s" unicode="s" horiz-adv-x="989" 
d="M496 1124q191 0 360 -94v-260q-192 117 -340 117q-129 0 -129 -92q0 -53 43.5 -81t155.5 -65q42 -14 68.5 -23.5t66.5 -27t65.5 -34t55 -42.5t46.5 -54.5t28.5 -67t11.5 -83.5q0 -156 -122 -252t-325 -96q-205 0 -375 105v262q86 -59 182 -94t183 -35q145 0 145 102
q0 51 -39.5 75.5t-158.5 61.5q-51 16 -90 31t-89.5 44.5t-83 64t-56 88t-23.5 117.5q0 151 113.5 242t306.5 91z" />
    <glyph glyph-name="t" unicode="t" horiz-adv-x="811" 
d="M504 1380v-286h246v-263h-246v-475q0 -118 123 -118q56 0 123 30v-264q-96 -35 -209 -35q-169 0 -268 99t-99 268v495h-143v242h53q53 0 82 29.5t29 83.5v194h309z" />
    <glyph glyph-name="u" unicode="u" horiz-adv-x="1241" 
d="M1128 1094v-617q0 -236 -141.5 -372t-365.5 -136t-366 136t-142 372v617h329v-664q0 -80 51.5 -129t127.5 -49q75 0 126.5 49t51.5 129v664h329z" />
    <glyph glyph-name="v" unicode="v" horiz-adv-x="1200" 
d="M1221 1094l-508 -1094h-226l-507 1094h329l291 -635l291 635h330z" />
    <glyph glyph-name="w" unicode="w" horiz-adv-x="1888" 
d="M1909 1094l-467 -1094h-209l-289 621l-289 -621h-209l-466 1094h329l256 -594l273 594h213l274 -594l254 594h330z" />
    <glyph glyph-name="x" unicode="x" horiz-adv-x="1241" 
d="M1196 1094l-383 -508l444 -586h-389l-247 350l-248 -350h-389l444 586l-383 508h385l191 -273l190 273h385z" />
    <glyph glyph-name="y" unicode="y" horiz-adv-x="1241" 
d="M1241 1094l-735 -1586h-334l281 609l-453 977h330l291 -633l290 633h330z" />
    <glyph glyph-name="z" unicode="z" horiz-adv-x="1046" 
d="M958 1094v-183l-460 -649h456v-262h-866v182l461 649h-457v263h866z" />
    <glyph glyph-name="braceleft" unicode="{" horiz-adv-x="897" 
d="M754 1606v-240h-11h-51t-40.5 -3.5t-32.5 -5t-24 -10.5t-18 -14t-12 -22t-8 -28t-4 -38t-2.5 -46t-1.5 -58q-1 -65 -2.5 -98t-4.5 -79.5t-7.5 -70t-13 -56.5t-20.5 -52t-30.5 -44.5t-41.5 -46t-54 -43.5q35 -26 60.5 -51.5t44 -48.5t30.5 -56t19 -59.5t11 -75t5.5 -87
t3.5 -109.5q1 -50 2 -73t5 -53.5t7.5 -41.5t15.5 -26.5t22.5 -18.5t34 -8.5t45.5 -5.5h62h11v-240h-88q-197 0 -285 89t-88 284v159q0 166 -53.5 236t-167.5 72v231q114 0 167.5 69.5t53.5 233.5v162q0 195 88 284t285 89h88z" />
    <glyph glyph-name="bar" unicode="|" horiz-adv-x="970" 
d="M602 1597v-1900h-233v1900h233z" />
    <glyph glyph-name="braceright" unicode="}" horiz-adv-x="897" 
d="M143 1606h88q197 0 285 -89t88 -284v-162q0 -164 53.5 -233.5t167.5 -69.5v-231q-114 -2 -167.5 -72t-53.5 -236v-159q0 -195 -88 -284t-285 -89h-88v240h11h62t45.5 5.5t34 8.5t22.5 18.5t15.5 26.5t7.5 41.5t5 53.5t2 73q2 74 3 110.5t5 86.5t11.5 75.5t19 58.5
t30.5 56t44 48t61 52q-41 31 -68.5 57.5t-47 62t-30 64t-16.5 82.5t-8 97t-4 127q-1 40 -1.5 59.5t-3 47t-4.5 38.5t-8.5 27.5t-11.5 21.5t-18 14t-24 10t-32.5 4t-40 3h-50.5h-11v240z" />
    <glyph glyph-name="asciitilde" unicode="~" horiz-adv-x="1519" 
d="M514 961q59 0 115.5 -18t150.5 -60q101 -45 149.5 -61.5t96.5 -16.5q66 0 131.5 34t157.5 115v-262q-143 -143 -297 -143q-113 0 -277 76q-65 30 -96 43t-73.5 25t-77.5 12q-63 0 -126.5 -35t-162.5 -119v266q92 76 164 110t145 34z" />
    <glyph glyph-name="exclamdown" unicode="&#xa1;" horiz-adv-x="720" 
d="M459 590l71 -649v-326h-352v324l72 651h209zM360 1124q77 0 132 -55t55 -131t-55 -131t-132 -55q-76 0 -131 55t-55 131t55 131t131 55z" />
    <glyph glyph-name="cent" unicode="&#xa2;" horiz-adv-x="1191" 
d="M874 1485l-26 -180q89 -16 180 -64v-283q-93 64 -217 80l-86 -600l31 -2q66 0 142 23.5t130 60.5v-282q-140 -76 -315 -76h-29l-22 -160h-158l26 182q-191 50 -304 197.5t-113 357.5q0 271 182 432q158 139 397 146l25 168h157zM573 481l78 549q-99 -27 -155 -102
t-56 -189q0 -177 133 -258z" />
    <glyph glyph-name="sterling" unicode="&#xa3;" horiz-adv-x="1243" 
d="M680 1511q165 0 336 -88l4 -321q-63 46 -146 79t-151 33q-71 0 -113.5 -41t-42.5 -129v-151h324v-291h-322v-309h521v-293h-844v602h-185v291h185v184q0 105 34 188.5t94 136.5t138 81t168 28z" />
    <glyph glyph-name="currency" unicode="&#xa4;" horiz-adv-x="1503" 
d="M1178 1372l223 -221l-141 -141q77 -132 77 -287q0 -150 -75 -287l139 -139l-223 -221l-140 139q-134 -78 -286 -78t-289 78l-139 -139l-222 221l140 139q-76 139 -76 287t76 287l-140 141l222 221l141 -141q134 78 287 78q148 0 284 -76zM752 1040q-136 0 -230 -91.5
t-94 -225.5t94 -224.5t230 -90.5q134 0 226.5 90.5t92.5 224.5t-92.5 225.5t-226.5 91.5z" />
    <glyph glyph-name="yen" unicode="&#xa5;" horiz-adv-x="1474" 
d="M1434 1483l-451 -684h301v-217h-379v-156h379v-217h-379v-209h-336v209h-379v217h379v156h-379v217h302l-451 684h379l317 -496l318 496h379z" />
    <glyph glyph-name="brokenbar" unicode="&#xa6;" horiz-adv-x="970" 
d="M602 1597v-682h-233v682h233zM602 379v-682h-233v682h233z" />
    <glyph glyph-name="section" unicode="&#xa7;" horiz-adv-x="1239" 
d="M621 1511q175 0 370 -73v-250q-234 78 -338 78q-74 0 -114.5 -31.5t-40.5 -77.5q0 -71 88 -104l192 -70q137 -48 217 -133t80 -203q0 -154 -127 -266q127 -97 127 -244q0 -74 -31 -142t-88.5 -122.5t-149 -86.5t-202.5 -32q-94 0 -204 21t-197 53v254q265 -82 372 -82
q87 0 126.5 36.5t39.5 88.5q0 70 -88 104q-8 3 -83.5 31t-108.5 41q-135 46 -216 132t-81 200q0 153 131 266q-131 97 -131 242q0 67 29 131.5t83.5 118.5t144.5 87t200 33zM653 739l-41 17q-54 -9 -84 -38t-30 -71q0 -70 88 -104q3 -1 11 -4t22 -8t36 -11q42 13 64 45
t22 70q0 69 -88 104z" />
    <glyph glyph-name="dieresis" unicode="&#xa8;" horiz-adv-x="1228" 
d="M854 1528q68 0 115 -47t47 -115q0 -66 -47.5 -113t-114.5 -47q-66 0 -113 47t-47 113q0 67 47 114.5t113 47.5zM377 1528q66 0 113 -47.5t47 -114.5q0 -66 -47 -113t-113 -47q-67 0 -114.5 47t-47.5 113q0 68 47.5 115t114.5 47z" />
    <glyph glyph-name="copyright" unicode="&#xa9;" horiz-adv-x="2021" 
d="M979 1470q174 0 332 -67.5t272.5 -181.5t182 -272t67.5 -331t-67.5 -331t-182 -271.5t-272.5 -181t-332 -67.5t-331.5 67.5t-271.5 181t-181.5 271t-67.5 331.5t67.5 331.5t181.5 271.5t271.5 181.5t331.5 67.5zM1012 1034q119 0 217 -53v-195q-36 28 -90 47t-111 19
q-104 0 -173 -64t-69 -174q0 -109 68.5 -173t173.5 -64q57 0 111 18.5t90 46.5v-194q-98 -53 -217 -53q-114 0 -212 49.5t-160 147t-62 222.5q0 95 36 175t96.5 133t138.5 82.5t163 29.5zM979 1268q-132 0 -252 -51.5t-206.5 -139t-137.5 -207.5t-51 -252
q0 -176 86.5 -325.5t235.5 -236.5t325 -87t325.5 87t236.5 236.5t87 325.5q0 132 -51.5 252.5t-138.5 207.5t-207 138.5t-252 51.5z" />
    <glyph glyph-name="guillemotleft" unicode="&#xab;" horiz-adv-x="1574" 
d="M1411 1008l-326 -455l326 -455h-330l-327 455l327 455h330zM821 1008l-323 -455l323 -455h-327l-330 455l330 455h327z" />
    <glyph glyph-name="logicalnot" unicode="&#xac;" horiz-adv-x="1585" 
d="M1421 1112v-758h-260l2 498l-999 2v258h1257z" />
    <glyph glyph-name="registered" unicode="&#xae;" horiz-adv-x="1959" 
d="M979 1470q174 0 332 -67.5t272.5 -181.5t182 -272t67.5 -331t-67.5 -331t-182 -271.5t-272.5 -181t-332 -67.5t-331.5 67.5t-271.5 181t-181.5 271t-67.5 331.5t67.5 331.5t181.5 271.5t271.5 181.5t331.5 67.5zM979 1268q-132 0 -252 -51.5t-206.5 -139t-137.5 -207.5
t-51 -252q0 -176 86.5 -325.5t235.5 -236.5t325 -87t325.5 87t236.5 236.5t87 325.5q0 132 -51.5 252.5t-138.5 207.5t-207 138.5t-252 51.5zM692 1018h352q103 0 175.5 -72.5t72.5 -175.5q0 -85 -49.5 -148t-128.5 -85l258 -322h-244l-215 313h-6v-313h-215v803zM989 864
h-82v-192h82q38 0 66 28t28 68t-28 68t-66 28z" />
    <glyph glyph-name="macron" unicode="&#xaf;" horiz-adv-x="1228" 
d="M975 1483v-234h-721v234h721z" />
    <glyph glyph-name="degree" unicode="&#xb0;" horiz-adv-x="897" 
d="M449 1812q138 0 236.5 -99t98.5 -236t-98.5 -236.5t-236.5 -99.5t-237 99.5t-99 236.5t99 236t237 99zM449 1626q-65 0 -109.5 -42.5t-44.5 -106.5t44.5 -107t109.5 -43q63 0 107 43t44 107t-43.5 106.5t-107.5 42.5z" />
    <glyph glyph-name="plusminus" unicode="&#xb1;" horiz-adv-x="1380" 
d="M819 1354v-316l357 -2v-215h-357v-317l-258 2v315h-356v217h356v316h258zM205 334l971 -4v-236l-971 2v238z" />
    <glyph glyph-name="acute" unicode="&#xb4;" horiz-adv-x="1228" 
d="M1036 1513l-338 -294h-151l151 294h338z" />
    <glyph glyph-name="paragraph" unicode="&#xb6;" horiz-adv-x="1228" 
d="M1176 1483v-228h-127v-1331h-236v1331h-143v-1331h-232v785q-150 13 -253 125t-103 260q0 160 114.5 274.5t276.5 114.5h703z" />
    <glyph glyph-name="periodcentered" unicode="&#xb7;" horiz-adv-x="608" 
d="M303 795q81 0 139 -57.5t58 -137.5q0 -82 -57.5 -139.5t-139.5 -57.5t-139.5 57.5t-57.5 139.5q0 80 58 137.5t139 57.5z" />
    <glyph glyph-name="cedilla" unicode="&#xb8;" horiz-adv-x="1228" 
d="M678 6l-51 -86q12 2 32 2q67 0 116.5 -38t49.5 -115q0 -85 -63 -127.5t-164 -42.5q-105 0 -203 36l43 103q82 -33 135 -33q36 0 57 16t21 46q0 53 -69 53q-30 0 -64 -17l-51 41l94 162h117z" />
    <glyph glyph-name="guillemotright" unicode="&#xbb;" horiz-adv-x="1574" 
d="M1081 1008l330 -455l-330 -455h-327l323 455l-323 455h327zM494 1008l327 -455l-327 -455h-330l325 455l-325 455h330z" />
    <glyph glyph-name="questiondown" unicode="&#xbf;" horiz-adv-x="1095" 
d="M766 602v-233l-250 -260q-47 -51 -67.5 -86.5t-20.5 -71.5q0 -53 36.5 -85t94.5 -32q69 0 104.5 46.5t30.5 117.5h279q8 -183 -109 -302.5t-309 -119.5q-181 0 -296.5 105.5t-115.5 267.5q0 96 48 179t157 196l127 131v147h291zM616 1124q77 0 132 -55t55 -131t-55 -131
t-132 -55q-76 0 -131 55t-55 131t55 131t131 55z" />
    <glyph glyph-name="Agrave" unicode="&#xc0;" horiz-adv-x="1482" 
d="M899 1483l584 -1483h-348l-117 299h-553l-117 -299h-348l584 1483h315zM741 1010l-170 -437h340zM662 1952l151 -295h-151l-338 295h338z" />
    <glyph glyph-name="Aacute" unicode="&#xc1;" horiz-adv-x="1482" 
d="M899 1483l584 -1483h-348l-117 299h-553l-117 -299h-348l584 1483h315zM741 1010l-170 -437h340zM1161 1952l-338 -295h-151l151 295h338z" />
    <glyph glyph-name="Acircumflex" unicode="&#xc2;" horiz-adv-x="1482" 
d="M899 1483l584 -1483h-348l-117 299h-553l-117 -299h-348l584 1483h315zM741 1010l-170 -437h340zM913 1952l224 -295h-256l-133 160l-142 -160h-256l232 295h331z" />
    <glyph glyph-name="Atilde" unicode="&#xc3;" horiz-adv-x="1482" 
d="M899 1483l584 -1483h-348l-117 299h-553l-117 -299h-348l584 1483h315zM741 1010l-170 -437h340zM991 1952h133q-6 -136 -66 -217.5t-159 -81.5q-53 0 -117 26.5t-119 53t-88 26.5q-36 0 -60 -26.5t-30 -75.5h-129q9 138 71.5 216.5t158.5 78.5q54 0 115 -27t114 -53.5
t88 -26.5q70 0 88 107z" />
    <glyph glyph-name="Adieresis" unicode="&#xc4;" horiz-adv-x="1482" 
d="M899 1483l584 -1483h-348l-117 299h-553l-117 -299h-348l584 1483h315zM741 1010l-170 -437h340zM981 1966q67 0 114.5 -47t47.5 -115q0 -66 -47.5 -112.5t-114.5 -46.5q-66 0 -113 46.5t-47 112.5q0 67 47 114.5t113 47.5zM504 1966q66 0 113 -47.5t47 -114.5
q0 -66 -47 -112.5t-113 -46.5q-67 0 -114.5 46.5t-47.5 112.5q0 68 47 115t115 47z" />
    <glyph glyph-name="Aring" unicode="&#xc5;" horiz-adv-x="1482" 
d="M899 1483l584 -1483h-348l-117 299h-553l-117 -299h-348l584 1483h315zM741 1010l-170 -437h340zM741 2030q92 0 158 -66.5t66 -157.5t-66 -157t-158 -66q-91 0 -157 66t-66 157t66 157.5t157 66.5zM741 1903q-40 0 -68 -28.5t-28 -68.5t28 -68t68 -28t68.5 28t28.5 68
t-28.5 68.5t-68.5 28.5z" />
    <glyph glyph-name="AE" unicode="&#xc6;" horiz-adv-x="2041" 
d="M1950 1483v-297h-516v-281h475v-284h-475v-324h516v-297h-850v299h-584l-211 -299h-407l1042 1483h1010zM1100 1130l-391 -557h391v557z" />
    <glyph glyph-name="Ccedilla" unicode="&#xc7;" horiz-adv-x="1443" 
d="M897 1513q239 0 434 -102v-303q-193 111 -391 111q-100 0 -189 -30.5t-159 -88t-111 -149.5t-41 -206t41 -206t111 -149.5t159 -87.5t189 -30q198 0 391 111v-303q-197 -103 -434 -103q-162 0 -308 53.5t-256.5 150t-175.5 243t-65 321.5t65 321.5t175.5 243t256.5 150
t308 53.5zM969 6l-51 -86q12 2 32 2q67 0 116.5 -38t49.5 -115q0 -85 -63 -127.5t-164 -42.5q-105 0 -203 36l43 103q83 -33 135 -33q36 0 57 16t21 46q0 53 -70 53q-29 0 -63 -17l-51 41l94 162h117z" />
    <glyph glyph-name="Egrave" unicode="&#xc8;" horiz-adv-x="1105" 
d="M993 1483v-297h-516v-279h475v-289h-475v-321h516v-297h-850v1483h850zM498 1952l151 -295h-151l-338 295h338z" />
    <glyph glyph-name="Eacute" unicode="&#xc9;" horiz-adv-x="1105" 
d="M993 1483v-297h-516v-279h475v-289h-475v-321h516v-297h-850v1483h850zM997 1952l-338 -295h-151l151 295h338z" />
    <glyph glyph-name="Ecircumflex" unicode="&#xca;" horiz-adv-x="1105" 
d="M993 1483v-297h-516v-279h475v-289h-475v-321h516v-297h-850v1483h850zM750 1952l223 -295h-256l-133 160l-142 -160h-256l232 295h332z" />
    <glyph glyph-name="Edieresis" unicode="&#xcb;" horiz-adv-x="1105" 
d="M993 1483v-297h-516v-279h475v-289h-475v-321h516v-297h-850v1483h850zM817 1966q67 0 114.5 -47t47.5 -115q0 -66 -47.5 -112.5t-114.5 -46.5q-66 0 -113 46.5t-47 112.5q0 67 47 114.5t113 47.5zM340 1966q66 0 113 -47.5t47 -114.5q0 -66 -47 -112.5t-113 -46.5
q-67 0 -114.5 46.5t-47.5 112.5q0 68 47 115t115 47z" />
    <glyph glyph-name="Igrave" unicode="&#xcc;" horiz-adv-x="649" 
d="M496 1483v-1483h-342v1483h342zM244 1952l151 -295h-151l-338 295h338z" />
    <glyph glyph-name="Iacute" unicode="&#xcd;" horiz-adv-x="649" 
d="M496 1483v-1483h-342v1483h342zM743 1952l-337 -295h-152l152 295h337z" />
    <glyph glyph-name="Icircumflex" unicode="&#xce;" horiz-adv-x="649" 
d="M496 1483v-1483h-342v1483h342zM496 1952l223 -295h-256l-133 160l-142 -160h-256l232 295h332z" />
    <glyph glyph-name="Idieresis" unicode="&#xcf;" horiz-adv-x="649" 
d="M496 1483v-1483h-342v1483h342zM563 1966q67 0 114.5 -47t47.5 -115q0 -66 -47.5 -112.5t-114.5 -46.5q-66 0 -113 46.5t-47 112.5q0 67 47 114.5t113 47.5zM86 1966q66 0 113 -47.5t47 -114.5q0 -66 -47 -112.5t-113 -46.5q-67 0 -114.5 46.5t-47.5 112.5q0 68 47 115
t115 47z" />
    <glyph glyph-name="Eth" unicode="&#xd0;" horiz-adv-x="1515" 
d="M154 1483h546q221 0 392 -98.5t261.5 -266.5t90.5 -377t-91 -377t-261.5 -266t-391.5 -98h-546v623h-140v233h140v627zM674 1186h-180v-330h282v-233h-282v-328h180q194 0 309 127t115 317q0 192 -115 319.5t-309 127.5z" />
    <glyph glyph-name="Ntilde" unicode="&#xd1;" horiz-adv-x="1673" 
d="M455 1487l737 -940v936h338v-1487h-311l-738 936v-932h-338v1487h312zM1087 1952h134q-6 -136 -66.5 -217.5t-159.5 -81.5q-53 0 -116.5 26.5t-118.5 53t-88 26.5q-36 0 -60 -26.5t-30 -75.5h-129q9 138 71 216.5t158 78.5q54 0 115 -27t114 -53.5t88 -26.5q70 0 88 107z
" />
    <glyph glyph-name="Ograve" unicode="&#xd2;" horiz-adv-x="1748" 
d="M874 1513q120 0 234.5 -32t213.5 -97t174 -155.5t118 -216.5t43 -271t-43 -271t-118 -216.5t-174 -155.5t-213.5 -97t-234.5 -32t-234 32t-213.5 97t-174 155.5t-117.5 216.5t-43 271t43 271t117.5 216.5t174 155.5t213.5 97t234 32zM874 1206q-121 0 -220.5 -58
t-158.5 -165t-59 -242q0 -205 126.5 -335t311.5 -130t312 130t127 335q0 101 -34.5 188.5t-94 148t-140 94.5t-170.5 34zM795 1952l151 -295h-151l-338 295h338z" />
    <glyph glyph-name="Oacute" unicode="&#xd3;" horiz-adv-x="1748" 
d="M874 1513q120 0 234.5 -32t213.5 -97t174 -155.5t118 -216.5t43 -271t-43 -271t-118 -216.5t-174 -155.5t-213.5 -97t-234.5 -32t-234 32t-213.5 97t-174 155.5t-117.5 216.5t-43 271t43 271t117.5 216.5t174 155.5t213.5 97t234 32zM874 1206q-121 0 -220.5 -58
t-158.5 -165t-59 -242q0 -205 126.5 -335t311.5 -130t312 130t127 335q0 101 -34.5 188.5t-94 148t-140 94.5t-170.5 34zM1294 1952l-338 -295h-151l151 295h338z" />
    <glyph glyph-name="Ocircumflex" unicode="&#xd4;" horiz-adv-x="1748" 
d="M874 1513q120 0 234.5 -32t213.5 -97t174 -155.5t118 -216.5t43 -271t-43 -271t-118 -216.5t-174 -155.5t-213.5 -97t-234.5 -32t-234 32t-213.5 97t-174 155.5t-117.5 216.5t-43 271t43 271t117.5 216.5t174 155.5t213.5 97t234 32zM874 1206q-121 0 -220.5 -58
t-158.5 -165t-59 -242q0 -205 126.5 -335t311.5 -130t312 130t127 335q0 101 -34.5 188.5t-94 148t-140 94.5t-170.5 34zM1047 1952l223 -295h-256l-133 160l-142 -160h-256l232 295h332z" />
    <glyph glyph-name="Otilde" unicode="&#xd5;" horiz-adv-x="1748" 
d="M874 1513q120 0 234.5 -32t213.5 -97t174 -155.5t118 -216.5t43 -271t-43 -271t-118 -216.5t-174 -155.5t-213.5 -97t-234.5 -32t-234 32t-213.5 97t-174 155.5t-117.5 216.5t-43 271t43 271t117.5 216.5t174 155.5t213.5 97t234 32zM874 1206q-121 0 -220.5 -58
t-158.5 -165t-59 -242q0 -205 126.5 -335t311.5 -130t312 130t127 335q0 101 -34.5 188.5t-94 148t-140 94.5t-170.5 34zM1124 1952h133q-6 -136 -66 -217.5t-159 -81.5q-53 0 -116.5 26.5t-118.5 53t-88 26.5q-36 0 -60.5 -26.5t-30.5 -75.5h-129q9 138 71.5 216.5
t158.5 78.5q54 0 115 -27t114 -53.5t88 -26.5q70 0 88 107z" />
    <glyph glyph-name="Odieresis" unicode="&#xd6;" horiz-adv-x="1748" 
d="M874 1513q120 0 234.5 -32t213.5 -97t174 -155.5t118 -216.5t43 -271t-43 -271t-118 -216.5t-174 -155.5t-213.5 -97t-234.5 -32t-234 32t-213.5 97t-174 155.5t-117.5 216.5t-43 271t43 271t117.5 216.5t174 155.5t213.5 97t234 32zM874 1206q-121 0 -220.5 -58
t-158.5 -165t-59 -242q0 -205 126.5 -335t311.5 -130t312 130t127 335q0 101 -34.5 188.5t-94 148t-140 94.5t-170.5 34zM1114 1966q68 0 115 -47t47 -115q0 -66 -47.5 -112.5t-114.5 -46.5q-66 0 -113 46.5t-47 112.5q0 67 47 114.5t113 47.5zM637 1966q66 0 113 -47.5
t47 -114.5q0 -66 -47 -112.5t-113 -46.5q-67 0 -114.5 46.5t-47.5 112.5q0 68 47.5 115t114.5 47z" />
    <glyph glyph-name="multiply" unicode="&#xd7;" horiz-adv-x="1400" 
d="M1053 1260l184 -183l-352 -354l352 -352l-184 -183l-355 353l-352 -353l-182 183l352 352l-352 354l182 183l352 -351z" />
    <glyph glyph-name="Oslash" unicode="&#xd8;" horiz-adv-x="1818" 
d="M1757 1513l-233 -276q168 -202 168 -496q0 -145 -43 -271t-118 -216.5t-174 -155.5t-213.5 -97t-234.5 -32q-203 0 -381 90l-75 -90h-392l234 277q-168 202 -168 495q0 145 43 271t117.5 216.5t174 155.5t213.5 97t234 32q203 0 381 -90l76 90h391zM909 1206
q-121 0 -220.5 -58t-158.5 -165t-59 -242q0 -125 51 -227l557 660q-85 32 -170 32zM1296 969l-557 -660q87 -33 170 -33q185 0 312 130t127 335q0 124 -52 228z" />
    <glyph glyph-name="Ugrave" unicode="&#xd9;" horiz-adv-x="1519" 
d="M1376 1483v-897q0 -140 -48.5 -257t-132 -195t-196 -121.5t-239.5 -43.5t-239.5 43.5t-196.5 121.5t-132.5 195t-48.5 257v897h338l2 -926q0 -121 80 -198.5t197 -77.5t196.5 77.5t79.5 198.5l2 926h338zM680 1952l151 -295h-151l-338 295h338z" />
    <glyph glyph-name="Uacute" unicode="&#xda;" horiz-adv-x="1519" 
d="M1376 1483v-897q0 -140 -48.5 -257t-132 -195t-196 -121.5t-239.5 -43.5t-239.5 43.5t-196.5 121.5t-132.5 195t-48.5 257v897h338l2 -926q0 -121 80 -198.5t197 -77.5t196.5 77.5t79.5 198.5l2 926h338zM1180 1952l-338 -295h-152l152 295h338z" />
    <glyph glyph-name="Ucircumflex" unicode="&#xdb;" horiz-adv-x="1519" 
d="M1376 1483v-897q0 -140 -48.5 -257t-132 -195t-196 -121.5t-239.5 -43.5t-239.5 43.5t-196.5 121.5t-132.5 195t-48.5 257v897h338l2 -926q0 -121 80 -198.5t197 -77.5t196.5 77.5t79.5 198.5l2 926h338zM932 1952l223 -295h-256l-133 160l-141 -160h-256l231 295h332z
" />
    <glyph glyph-name="Udieresis" unicode="&#xdc;" horiz-adv-x="1519" 
d="M1376 1483v-897q0 -140 -48.5 -257t-132 -195t-196 -121.5t-239.5 -43.5t-239.5 43.5t-196.5 121.5t-132.5 195t-48.5 257v897h338l2 -926q0 -121 80 -198.5t197 -77.5t196.5 77.5t79.5 198.5l2 926h338zM999 1966q67 0 114.5 -47t47.5 -115q0 -66 -47.5 -112.5
t-114.5 -46.5q-66 0 -112.5 46.5t-46.5 112.5q0 67 46.5 114.5t112.5 47.5zM522 1966q66 0 113 -47.5t47 -114.5q0 -66 -47 -112.5t-113 -46.5q-67 0 -114.5 46.5t-47.5 112.5q0 68 47 115t115 47z" />
    <glyph glyph-name="Yacute" unicode="&#xdd;" horiz-adv-x="1392" 
d="M1393 1483l-529 -803v-680h-336v680l-528 803h379l317 -496l318 496h379zM1116 1952l-338 -295h-151l151 295h338z" />
    <glyph glyph-name="Thorn" unicode="&#xde;" horiz-adv-x="1251" 
d="M473 1483v-283h223q192 0 327.5 -135.5t135.5 -327.5t-135.5 -327.5t-327.5 -135.5h-221v-274h-332v1483h330zM629 928h-154v-383l154 2q77 0 133.5 54.5t56.5 135.5q0 79 -56 135t-134 56z" />
    <glyph glyph-name="germandbls" unicode="&#xdf;" horiz-adv-x="1331" 
d="M621 1608q212 0 342.5 -115t130.5 -301q0 -63 -17.5 -117.5t-40 -88.5t-60.5 -66.5t-61.5 -47t-60.5 -34.5q-27 -13 -27 -33q0 -27 39 -43q9 -4 43.5 -17.5t58.5 -24t63.5 -31.5t67.5 -41.5t60.5 -52t53 -66t34 -80.5t13.5 -97q0 -163 -121 -272t-314 -109
q-116 0 -250 43v262q139 -57 232 -57q69 0 109 32.5t40 90.5q0 27 -10 49.5t-24 37.5t-39.5 30t-44 23.5t-52 22.5t-49.5 21q-188 86 -188 250q0 40 9 71.5t32 60t42.5 46.5t59.5 50q52 42 75.5 76.5t23.5 88.5q0 84 -52.5 129t-124.5 45q-79 0 -126.5 -56.5t-47.5 -160.5
v-1126h-307v1114q0 224 130.5 359t357.5 135z" />
    <glyph glyph-name="agrave" unicode="&#xe0;" horiz-adv-x="1155" 
d="M578 1124q77 0 144 -13t129 -45.5t106 -82.5t70 -128t26 -177v-678h-217l-72 125q-107 -156 -322 -156q-177 0 -284 101t-107 245q0 122 83 202.5t233 115.5l258 59q53 12 77.5 30t24.5 56q0 55 -47.5 83t-114.5 28q-78 0 -124 -38t-48 -103h-305q11 169 140.5 272.5
t349.5 103.5zM727 416v80q-22 -5 -36.5 -7.5t-27.5 -5t-61.5 -11.5t-122.5 -23q-57 -10 -89 -45t-32 -82q0 -57 42 -93t102 -36q35 0 72 13t72.5 38t58 70t22.5 102zM492 1585l151 -295h-151l-338 295h338z" />
    <glyph glyph-name="aacute" unicode="&#xe1;" horiz-adv-x="1155" 
d="M578 1124q77 0 144 -13t129 -45.5t106 -82.5t70 -128t26 -177v-678h-217l-72 125q-107 -156 -322 -156q-177 0 -284 101t-107 245q0 122 83 202.5t233 115.5l258 59q53 12 77.5 30t24.5 56q0 55 -47.5 83t-114.5 28q-78 0 -124 -38t-48 -103h-305q11 169 140.5 272.5
t349.5 103.5zM727 416v80q-22 -5 -36.5 -7.5t-27.5 -5t-61.5 -11.5t-122.5 -23q-57 -10 -89 -45t-32 -82q0 -57 42 -93t102 -36q35 0 72 13t72.5 38t58 70t22.5 102zM991 1585l-338 -295h-151l151 295h338z" />
    <glyph glyph-name="acircumflex" unicode="&#xe2;" horiz-adv-x="1155" 
d="M578 1124q77 0 144 -13t129 -45.5t106 -82.5t70 -128t26 -177v-678h-217l-72 125q-107 -156 -322 -156q-177 0 -284 101t-107 245q0 122 83 202.5t233 115.5l258 59q53 12 77.5 30t24.5 56q0 55 -47.5 83t-114.5 28q-78 0 -124 -38t-48 -103h-305q11 169 140.5 272.5
t349.5 103.5zM727 416v80q-22 -5 -36.5 -7.5t-27.5 -5t-61.5 -11.5t-122.5 -23q-57 -10 -89 -45t-32 -82q0 -57 42 -93t102 -36q35 0 72 13t72.5 38t58 70t22.5 102zM743 1585l224 -295h-256l-133 160l-142 -160h-256l232 295h331z" />
    <glyph glyph-name="atilde" unicode="&#xe3;" horiz-adv-x="1155" 
d="M578 1124q77 0 144 -13t129 -45.5t106 -82.5t70 -128t26 -177v-678h-217l-72 125q-107 -156 -322 -156q-177 0 -284 101t-107 245q0 122 83 202.5t233 115.5l258 59q53 12 77.5 30t24.5 56q0 55 -47.5 83t-114.5 28q-78 0 -124 -38t-48 -103h-305q11 169 140.5 272.5
t349.5 103.5zM727 416v80q-22 -5 -36.5 -7.5t-27.5 -5t-61.5 -11.5t-122.5 -23q-57 -10 -89 -45t-32 -82q0 -57 42 -93t102 -36q35 0 72 13t72.5 38t58 70t22.5 102zM821 1585h133q-6 -136 -66 -217.5t-159 -81.5q-53 0 -116.5 27t-118.5 53.5t-88 26.5q-36 0 -60.5 -27
t-30.5 -76h-129q9 138 71.5 216.5t158.5 78.5q54 0 115 -26.5t114 -53t88 -26.5q70 0 88 106z" />
    <glyph glyph-name="adieresis" unicode="&#xe4;" horiz-adv-x="1155" 
d="M578 1124q77 0 144 -13t129 -45.5t106 -82.5t70 -128t26 -177v-678h-217l-72 125q-107 -156 -322 -156q-177 0 -284 101t-107 245q0 122 83 202.5t233 115.5l258 59q53 12 77.5 30t24.5 56q0 55 -47.5 83t-114.5 28q-78 0 -124 -38t-48 -103h-305q11 169 140.5 272.5
t349.5 103.5zM727 416v80q-22 -5 -36.5 -7.5t-27.5 -5t-61.5 -11.5t-122.5 -23q-57 -10 -89 -45t-32 -82q0 -57 42 -93t102 -36q35 0 72 13t72.5 38t58 70t22.5 102zM811 1599q68 0 115 -47t47 -114q0 -66 -47.5 -113t-114.5 -47q-66 0 -113 47t-47 113q0 67 47 114t113 47z
M334 1599q66 0 113 -47t47 -114q0 -66 -47 -113t-113 -47q-67 0 -114.5 47t-47.5 113q0 67 47 114t115 47z" />
    <glyph glyph-name="aring" unicode="&#xe5;" horiz-adv-x="1155" 
d="M578 1124q77 0 144 -13t129 -45.5t106 -82.5t70 -128t26 -177v-678h-217l-72 125q-107 -156 -322 -156q-177 0 -284 101t-107 245q0 122 83 202.5t233 115.5l258 59q53 12 77.5 30t24.5 56q0 55 -47.5 83t-114.5 28q-78 0 -124 -38t-48 -103h-305q11 169 140.5 272.5
t349.5 103.5zM727 416v80q-22 -5 -36.5 -7.5t-27.5 -5t-61.5 -11.5t-122.5 -23q-57 -10 -89 -45t-32 -82q0 -57 42 -93t102 -36q35 0 72 13t72.5 38t58 70t22.5 102zM571 1663q92 0 158 -66t66 -157t-66 -157t-158 -66q-91 0 -157 66t-66 157t66 157t157 66zM571 1536
q-40 0 -68 -28t-28 -68t28 -68.5t68 -28.5t68.5 28.5t28.5 68.5t-28.5 68t-68.5 28z" />
    <glyph glyph-name="ae" unicode="&#xe6;" horiz-adv-x="1875" 
d="M1274 1124q113 0 210 -36.5t171.5 -106t117 -181t42.5 -251.5q0 -48 -7 -109h-774q20 -99 86 -155t156 -56q62 0 112.5 27t79.5 78h316q-54 -175 -191.5 -267t-318.5 -92q-124 0 -231.5 44.5t-182.5 130.5q-137 -181 -401 -181q-98 0 -177 28.5t-128.5 76.5t-76 109
t-26.5 130q0 124 82.5 204.5t233.5 115.5l258 59q53 12 77.5 30t24.5 56q0 55 -47.5 83t-114.5 28q-78 0 -124 -38t-48 -103h-305q9 166 138 271t349 105q230 0 353 -112q141 112 346 112zM727 416v80q-22 -5 -36.5 -7.5t-27.5 -5t-61.5 -11.5t-122.5 -23q-57 -10 -89 -45
t-32 -82q0 -57 42 -93t102 -36q35 0 72 13t72.5 38t58 70t22.5 102zM1276 870q-96 0 -159 -53.5t-83 -152.5h473q-15 102 -76 154t-155 52z" />
    <glyph glyph-name="ccedilla" unicode="&#xe7;" horiz-adv-x="1079" 
d="M670 1124q176 0 317 -75v-283q-55 37 -129.5 60.5t-148.5 23.5q-136 0 -223 -81.5t-87 -221.5t87 -221.5t223 -81.5q74 0 148.5 23.5t129.5 60.5v-283q-140 -76 -315 -76q-173 0 -309 71t-213.5 203t-77.5 304q0 271 182 432q82 73 190.5 109t225.5 36zM748 6l-52 -86
q12 2 33 2q67 0 116.5 -38t49.5 -115q0 -85 -63 -127.5t-164 -42.5q-105 0 -203 36l43 103q82 -33 135 -33q36 0 57 16t21 46q0 53 -70 53q-29 0 -63 -17l-51 41l94 162h117z" />
    <glyph glyph-name="egrave" unicode="&#xe8;" horiz-adv-x="1236" 
d="M618 1124q110 0 207 -36.5t173.5 -106t121.5 -181.5t45 -253q0 -47 -6 -96h-788q18 -110 85 -168t162 -58q64 0 117.5 27t83.5 78h316q-52 -171 -189 -265t-321 -94q-112 0 -211 36.5t-176 106.5t-121.5 181.5t-44.5 251.5q0 113 29 208t80.5 162.5t120.5 114.5t149 69.5
t167 22.5zM618 870q-93 0 -158 -53t-85 -155h487q-20 102 -85 155t-159 53zM539 1585l151 -295h-151l-338 295h338z" />
    <glyph glyph-name="eacute" unicode="&#xe9;" horiz-adv-x="1236" 
d="M618 1124q110 0 207 -36.5t173.5 -106t121.5 -181.5t45 -253q0 -47 -6 -96h-788q18 -110 85 -168t162 -58q64 0 117.5 27t83.5 78h316q-52 -171 -189 -265t-321 -94q-112 0 -211 36.5t-176 106.5t-121.5 181.5t-44.5 251.5q0 113 29 208t80.5 162.5t120.5 114.5t149 69.5
t167 22.5zM618 870q-93 0 -158 -53t-85 -155h487q-20 102 -85 155t-159 53zM1038 1585l-338 -295h-151l151 295h338z" />
    <glyph glyph-name="ecircumflex" unicode="&#xea;" horiz-adv-x="1236" 
d="M618 1124q110 0 207 -36.5t173.5 -106t121.5 -181.5t45 -253q0 -47 -6 -96h-788q18 -110 85 -168t162 -58q64 0 117.5 27t83.5 78h316q-52 -171 -189 -265t-321 -94q-112 0 -211 36.5t-176 106.5t-121.5 181.5t-44.5 251.5q0 113 29 208t80.5 162.5t120.5 114.5t149 69.5
t167 22.5zM618 870q-93 0 -158 -53t-85 -155h487q-20 102 -85 155t-159 53zM791 1585l223 -295h-256l-133 160l-142 -160h-256l232 295h332z" />
    <glyph glyph-name="edieresis" unicode="&#xeb;" horiz-adv-x="1236" 
d="M618 1124q110 0 207 -36.5t173.5 -106t121.5 -181.5t45 -253q0 -47 -6 -96h-788q18 -110 85 -168t162 -58q64 0 117.5 27t83.5 78h316q-52 -171 -189 -265t-321 -94q-112 0 -211 36.5t-176 106.5t-121.5 181.5t-44.5 251.5q0 113 29 208t80.5 162.5t120.5 114.5t149 69.5
t167 22.5zM618 870q-93 0 -158 -53t-85 -155h487q-20 102 -85 155t-159 53zM858 1599q68 0 115 -47t47 -114q0 -66 -47.5 -113t-114.5 -47q-66 0 -113 47t-47 113q0 67 47 114t113 47zM381 1599q66 0 113 -47t47 -114q0 -66 -47 -113t-113 -47q-67 0 -114.5 47t-47.5 113
q0 67 47 114t115 47z" />
    <glyph glyph-name="igrave" unicode="&#xec;" horiz-adv-x="616" 
d="M473 1094v-1094h-330v1094h330zM231 1585l152 -295h-152l-337 295h337z" />
    <glyph glyph-name="iacute" unicode="&#xed;" horiz-adv-x="616" 
d="M473 1094v-1094h-330v1094h330zM731 1585l-338 -295h-151l151 295h338z" />
    <glyph glyph-name="icircumflex" unicode="&#xee;" horiz-adv-x="616" 
d="M473 1094v-1094h-330v1094h330zM483 1585l224 -295h-256l-134 160l-141 -160h-256l232 295h331z" />
    <glyph glyph-name="idieresis" unicode="&#xef;" horiz-adv-x="616" 
d="M473 1094v-1094h-330v1094h330zM551 1599q68 0 115 -47t47 -114q0 -66 -47.5 -113t-114.5 -47q-66 0 -113 47t-47 113q0 67 47 114t113 47zM74 1599q66 0 112.5 -47t46.5 -114q0 -66 -46.5 -113t-112.5 -47q-67 0 -114.5 47t-47.5 113q0 67 47 114t115 47z" />
    <glyph glyph-name="eth" unicode="&#xf0;" horiz-adv-x="1269" 
d="M686 1585l66 -102l301 82v-197l-193 -51l123 -191q113 -176 164 -301t51 -274q0 -116 -31.5 -213t-86 -164t-127 -114t-154 -69t-168.5 -22q-107 0 -204.5 34t-178 100t-128.5 176.5t-48 250.5q0 118 34 223.5t97 187t160 129.5t215 48h24l-72 111l-315 -84v194l207 56
l-125 190h389zM635 852q-112 0 -177 -78t-65 -227t65 -227t177 -78t177 78t65 227t-65 227t-177 78z" />
    <glyph glyph-name="ntilde" unicode="&#xf1;" horiz-adv-x="1286" 
d="M793 1124q106 0 184 -35.5t122 -100t64.5 -144t20.5 -178.5v-666h-334v557v14q0 31 -0.5 47.5t-2 47.5t-6.5 49t-13 43t-21.5 40t-32 30t-45 21.5t-59.5 6.5q-42 0 -74.5 -12.5t-53.5 -30t-36 -48.5t-22.5 -56t-11.5 -65t-4.5 -63t-0.5 -61v-520h-334v1094h254l84 -144
q55 91 133.5 132.5t188.5 41.5zM899 1585h133q-6 -136 -66 -217.5t-159 -81.5q-53 0 -117 27t-119 53.5t-88 26.5q-36 0 -60 -27t-30 -76h-129q9 138 71.5 216.5t158.5 78.5q54 0 115 -26.5t114 -53t88 -26.5q70 0 88 106z" />
    <glyph glyph-name="ograve" unicode="&#xf2;" horiz-adv-x="1331" 
d="M666 1124q117 0 222.5 -36.5t189 -106t133 -182t49.5 -252.5t-49.5 -252.5t-133 -182.5t-189 -106.5t-222.5 -36.5t-222.5 36.5t-189 106.5t-133 182.5t-49.5 252.5t49.5 252.5t133 182t189 106t222.5 36.5zM666 852q-122 0 -197.5 -79t-75.5 -226t75.5 -226t197.5 -79
t197 79t75 226t-75 226t-197 79zM586 1585l151 -295h-151l-338 295h338z" />
    <glyph glyph-name="oacute" unicode="&#xf3;" horiz-adv-x="1331" 
d="M666 1124q117 0 222.5 -36.5t189 -106t133 -182t49.5 -252.5t-49.5 -252.5t-133 -182.5t-189 -106.5t-222.5 -36.5t-222.5 36.5t-189 106.5t-133 182.5t-49.5 252.5t49.5 252.5t133 182t189 106t222.5 36.5zM666 852q-122 0 -197.5 -79t-75.5 -226t75.5 -226t197.5 -79
t197 79t75 226t-75 226t-197 79zM1085 1585l-337 -295h-152l152 295h337z" />
    <glyph glyph-name="ocircumflex" unicode="&#xf4;" horiz-adv-x="1331" 
d="M666 1124q117 0 222.5 -36.5t189 -106t133 -182t49.5 -252.5t-49.5 -252.5t-133 -182.5t-189 -106.5t-222.5 -36.5t-222.5 36.5t-189 106.5t-133 182.5t-49.5 252.5t49.5 252.5t133 182t189 106t222.5 36.5zM666 852q-122 0 -197.5 -79t-75.5 -226t75.5 -226t197.5 -79
t197 79t75 226t-75 226t-197 79zM838 1585l223 -295h-256l-133 160l-142 -160h-256l232 295h332z" />
    <glyph glyph-name="otilde" unicode="&#xf5;" horiz-adv-x="1331" 
d="M666 1124q117 0 222.5 -36.5t189 -106t133 -182t49.5 -252.5t-49.5 -252.5t-133 -182.5t-189 -106.5t-222.5 -36.5t-222.5 36.5t-189 106.5t-133 182.5t-49.5 252.5t49.5 252.5t133 182t189 106t222.5 36.5zM666 852q-122 0 -197.5 -79t-75.5 -226t75.5 -226t197.5 -79
t197 79t75 226t-75 226t-197 79zM915 1585h134q-6 -136 -66.5 -217.5t-159.5 -81.5q-53 0 -116.5 27t-118.5 53.5t-88 26.5q-36 0 -60 -27t-30 -76h-129q9 138 71 216.5t158 78.5q54 0 115 -26.5t114 -53t88 -26.5q70 0 88 106z" />
    <glyph glyph-name="odieresis" unicode="&#xf6;" horiz-adv-x="1331" 
d="M666 1124q117 0 222.5 -36.5t189 -106t133 -182t49.5 -252.5t-49.5 -252.5t-133 -182.5t-189 -106.5t-222.5 -36.5t-222.5 36.5t-189 106.5t-133 182.5t-49.5 252.5t49.5 252.5t133 182t189 106t222.5 36.5zM666 852q-122 0 -197.5 -79t-75.5 -226t75.5 -226t197.5 -79
t197 79t75 226t-75 226t-197 79zM905 1599q68 0 115 -47t47 -114q0 -66 -47.5 -113t-114.5 -47q-66 0 -113 47t-47 113q0 67 47 114t113 47zM428 1599q66 0 113 -47t47 -114q0 -66 -47 -113t-113 -47q-67 0 -114.5 47t-47.5 113q0 67 47 114t115 47z" />
    <glyph glyph-name="divide" unicode="&#xf7;" horiz-adv-x="1585" 
d="M1421 854v-260l-1257 2v258h1257zM786 387q67 0 114.5 -48t47.5 -114q0 -67 -47 -114.5t-115 -47.5q-67 0 -114 47t-47 115q0 66 47 114t114 48zM786 1386q67 0 114.5 -46.5t47.5 -112.5q0 -68 -47.5 -116t-114.5 -48t-114 48t-47 116q0 66 47 112.5t114 46.5z" />
    <glyph glyph-name="oslash" unicode="&#xf8;" horiz-adv-x="1357" 
d="M672 1124q169 0 305 -71l35 41h268l-143 -168q129 -149 129 -379q0 -140 -49.5 -252.5t-133 -182.5t-189 -106.5t-222.5 -36.5q-160 0 -295 66l-31 -35h-268l135 158q-135 154 -135 389q0 140 49.5 252.5t133 182t189 106t222.5 36.5zM924 678l-357 -418q48 -18 105 -18
q122 0 197 79t75 228q0 73 -20 129zM672 852q-122 0 -197.5 -78.5t-75.5 -224.5q0 -82 25 -143l362 423q-54 23 -114 23z" />
    <glyph glyph-name="ugrave" unicode="&#xf9;" horiz-adv-x="1241" 
d="M1128 1094v-617q0 -236 -141.5 -372t-365.5 -136t-366 136t-142 372v617h329v-664q0 -80 51.5 -129t127.5 -49q75 0 126.5 49t51.5 129v664h329zM537 1585l151 -295h-151l-338 295h338z" />
    <glyph glyph-name="uacute" unicode="&#xfa;" horiz-adv-x="1241" 
d="M1128 1094v-617q0 -236 -141.5 -372t-365.5 -136t-366 136t-142 372v617h329v-664q0 -80 51.5 -129t127.5 -49q75 0 126.5 49t51.5 129v664h329zM1036 1585l-338 -295h-151l151 295h338z" />
    <glyph glyph-name="ucircumflex" unicode="&#xfb;" horiz-adv-x="1241" 
d="M1128 1094v-617q0 -236 -141.5 -372t-365.5 -136t-366 136t-142 372v617h329v-664q0 -80 51.5 -129t127.5 -49q75 0 126.5 49t51.5 129v664h329zM788 1585l224 -295h-256l-133 160l-142 -160h-256l232 295h331z" />
    <glyph glyph-name="udieresis" unicode="&#xfc;" horiz-adv-x="1241" 
d="M1128 1094v-617q0 -236 -141.5 -372t-365.5 -136t-366 136t-142 372v617h329v-664q0 -80 51.5 -129t127.5 -49q75 0 126.5 49t51.5 129v664h329zM856 1599q68 0 115 -47t47 -114q0 -66 -47.5 -113t-114.5 -47q-66 0 -113 47t-47 113q0 67 47 114t113 47zM379 1599
q66 0 113 -47t47 -114q0 -66 -47 -113t-113 -47q-67 0 -114.5 47t-47.5 113q0 67 47 114t115 47z" />
    <glyph glyph-name="yacute" unicode="&#xfd;" horiz-adv-x="1241" 
d="M1241 1094l-735 -1586h-334l281 609l-453 977h330l291 -633l290 633h330zM1038 1585l-338 -295h-151l151 295h338z" />
    <glyph glyph-name="thorn" unicode="&#xfe;" horiz-adv-x="1320" 
d="M465 1585v-610q105 149 309 149q114 0 209 -49t157 -130t96 -184t34 -214t-34 -214t-96 -184.5t-158 -130.5t-210 -49q-193 0 -303 133h-4v-594h-332v2077h332zM700 852q-115 0 -176 -86.5t-61 -218.5q0 -131 61 -217t176 -86q113 0 174.5 86.5t61.5 216.5
q0 132 -61.5 218.5t-174.5 86.5z" />
    <glyph glyph-name="ydieresis" unicode="&#xff;" horiz-adv-x="1241" 
d="M1241 1094l-735 -1586h-334l281 609l-453 977h330l291 -633l290 633h330zM858 1599q68 0 115 -47t47 -114q0 -66 -47.5 -113t-114.5 -47q-66 0 -113 47t-47 113q0 67 47 114t113 47zM381 1599q66 0 113 -47t47 -114q0 -66 -47 -113t-113 -47q-67 0 -114.5 47t-47.5 113
q0 67 47 114t115 47z" />
    <glyph glyph-name="Amacron" unicode="&#x100;" horiz-adv-x="1482" 
d="M899 1483l584 -1483h-348l-117 299h-553l-117 -299h-348l584 1483h315zM741 1010l-170 -437h340zM1102 1921v-233h-721v233h721z" />
    <glyph glyph-name="amacron" unicode="&#x101;" horiz-adv-x="1155" 
d="M578 1124q77 0 144 -13t129 -45.5t106 -82.5t70 -128t26 -177v-678h-217l-72 125q-107 -156 -322 -156q-177 0 -284 101t-107 245q0 122 83 202.5t233 115.5l258 59q53 12 77.5 30t24.5 56q0 55 -47.5 83t-114.5 28q-78 0 -124 -38t-48 -103h-305q11 169 140.5 272.5
t349.5 103.5zM727 416v80q-22 -5 -36.5 -7.5t-27.5 -5t-61.5 -11.5t-122.5 -23q-57 -10 -89 -45t-32 -82q0 -57 42 -93t102 -36q35 0 72 13t72.5 38t58 70t22.5 102zM932 1554v-233h-721v233h721z" />
    <glyph glyph-name="Abreve" unicode="&#x102;" horiz-adv-x="1482" 
d="M899 1483l584 -1483h-348l-117 299h-553l-117 -299h-348l584 1483h315zM741 1010l-170 -437h340zM952 1952h144q-14 -138 -103.5 -216.5t-251.5 -78.5t-251 78.5t-103 216.5h143q16 -72 73 -104.5t138 -32.5t138 32.5t73 104.5z" />
    <glyph glyph-name="abreve" unicode="&#x103;" horiz-adv-x="1155" 
d="M578 1124q77 0 144 -13t129 -45.5t106 -82.5t70 -128t26 -177v-678h-217l-72 125q-107 -156 -322 -156q-177 0 -284 101t-107 245q0 122 83 202.5t233 115.5l258 59q53 12 77.5 30t24.5 56q0 55 -47.5 83t-114.5 28q-78 0 -124 -38t-48 -103h-305q11 169 140.5 272.5
t349.5 103.5zM727 416v80q-22 -5 -36.5 -7.5t-27.5 -5t-61.5 -11.5t-122.5 -23q-57 -10 -89 -45t-32 -82q0 -57 42 -93t102 -36q35 0 72 13t72.5 38t58 70t22.5 102zM782 1585h144q-14 -138 -103.5 -216.5t-251.5 -78.5t-251 78.5t-103 216.5h143q16 -72 73 -104.5
t138 -32.5t138 32.5t73 104.5z" />
    <glyph glyph-name="Aogonek" unicode="&#x104;" horiz-adv-x="1482" 
d="M899 1483l584 -1483h-348l-117 299h-553l-117 -299h-348l584 1483h315zM741 1010l-170 -437h340zM1239 8h121q-21 -58 -21 -104q0 -119 113 -119q39 0 82 14v-164q-64 -30 -139 -30q-95 0 -159.5 54t-64.5 157q0 112 68 192z" />
    <glyph glyph-name="aogonek" unicode="&#x105;" horiz-adv-x="1155" 
d="M578 1124q77 0 144 -13t129 -45.5t106 -82.5t70 -128t26 -177v-678h-217l-72 125q-107 -156 -322 -156q-177 0 -284 101t-107 245q0 122 83 202.5t233 115.5l258 59q53 12 77.5 30t24.5 56q0 55 -47.5 83t-114.5 28q-78 0 -124 -38t-48 -103h-305q11 169 140.5 272.5
t349.5 103.5zM727 416v80q-22 -5 -36.5 -7.5t-27.5 -5t-61.5 -11.5t-122.5 -23q-57 -10 -89 -45t-32 -82q0 -57 42 -93t102 -36q35 0 72 13t72.5 38t58 70t22.5 102zM872 29h121q-20 -55 -20 -105q0 -119 112 -119q35 0 82 15v-164q-67 -31 -139 -31q-95 0 -159 54t-64 157
q0 114 67 193z" />
    <glyph glyph-name="Cacute" unicode="&#x106;" horiz-adv-x="1443" 
d="M897 1513q239 0 434 -102v-303q-193 111 -391 111q-100 0 -189 -30.5t-159 -88t-111 -149.5t-41 -206t41 -206t111 -149.5t159 -87.5t189 -30q198 0 391 111v-303q-197 -103 -434 -103q-162 0 -308 53.5t-256.5 150t-175.5 243t-65 321.5t65 321.5t175.5 243t256.5 150
t308 53.5zM1251 1952l-338 -295h-151l151 295h338z" />
    <glyph glyph-name="cacute" unicode="&#x107;" horiz-adv-x="1079" 
d="M670 1124q176 0 317 -75v-283q-55 37 -129.5 60.5t-148.5 23.5q-136 0 -223 -81.5t-87 -221.5t87 -221.5t223 -81.5q74 0 148.5 23.5t129.5 60.5v-283q-140 -76 -315 -76q-173 0 -309 71t-213.5 203t-77.5 304q0 271 182 432q82 73 190.5 109t225.5 36zM1085 1585
l-337 -295h-152l152 295h337z" />
    <glyph glyph-name="Cdotaccent" unicode="&#x10a;" horiz-adv-x="1443" 
d="M897 1513q239 0 434 -102v-303q-193 111 -391 111q-100 0 -189 -30.5t-159 -88t-111 -149.5t-41 -206t41 -206t111 -149.5t159 -87.5t189 -30q198 0 391 111v-303q-197 -103 -434 -103q-162 0 -308 53.5t-256.5 150t-175.5 243t-65 321.5t65 321.5t175.5 243t256.5 150
t308 53.5zM834 1970q68 0 115.5 -48.5t47.5 -117.5q0 -68 -48 -116t-115 -48q-69 0 -117.5 48t-48.5 116q0 69 48.5 117.5t117.5 48.5z" />
    <glyph glyph-name="cdotaccent" unicode="&#x10b;" horiz-adv-x="1079" 
d="M670 1124q176 0 317 -75v-283q-55 37 -129.5 60.5t-148.5 23.5q-136 0 -223 -81.5t-87 -221.5t87 -221.5t223 -81.5q74 0 148.5 23.5t129.5 60.5v-283q-140 -76 -315 -76q-173 0 -309 71t-213.5 203t-77.5 304q0 271 182 432q82 73 190.5 109t225.5 36zM668 1604
q68 0 115.5 -48.5t47.5 -117.5q0 -68 -48 -116t-115 -48q-69 0 -117.5 48t-48.5 116q0 69 48.5 117.5t117.5 48.5z" />
    <glyph glyph-name="Ccaron" unicode="&#x10c;" horiz-adv-x="1443" 
d="M897 1513q239 0 434 -102v-303q-193 111 -391 111q-100 0 -189 -30.5t-159 -88t-111 -149.5t-41 -206t41 -206t111 -149.5t159 -87.5t189 -30q198 0 391 111v-303q-197 -103 -434 -103q-162 0 -308 53.5t-256.5 150t-175.5 243t-65 321.5t65 321.5t175.5 243t256.5 150
t308 53.5zM1225 1952l-224 -295h-331l-232 295h256l142 -160l133 160h256z" />
    <glyph glyph-name="ccaron" unicode="&#x10d;" horiz-adv-x="1079" 
d="M670 1124q176 0 317 -75v-283q-55 37 -129.5 60.5t-148.5 23.5q-136 0 -223 -81.5t-87 -221.5t87 -221.5t223 -81.5q74 0 148.5 23.5t129.5 60.5v-283q-140 -76 -315 -76q-173 0 -309 71t-213.5 203t-77.5 304q0 271 182 432q82 73 190.5 109t225.5 36zM1059 1585
l-223 -295h-332l-232 295h256l142 -160l133 160h256z" />
    <glyph glyph-name="Dcaron" unicode="&#x10e;" horiz-adv-x="1505" 
d="M143 1483h547q221 0 392 -98.5t261.5 -266.5t90.5 -377t-91 -377t-261.5 -266t-391.5 -98h-547v1483zM664 1186h-181v-891h181q194 0 308.5 126.5t114.5 317.5q0 192 -114.5 319.5t-308.5 127.5zM1051 1952l-224 -295h-331l-232 295h256l142 -160l133 160h256z" />
    <glyph glyph-name="dcaron" unicode="&#x10f;" horiz-adv-x="1599" 
d="M1198 1585v-1585h-231l-84 145q-46 -82 -129 -129t-197 -47q-113 0 -208 48.5t-157 130t-96.5 185t-34.5 214.5t34 214t96 184t158 130t210 49q193 0 303 -133h4v594h332zM631 850q-113 0 -174.5 -86.5t-61.5 -216.5q0 -132 61.5 -218.5t174.5 -86.5q115 0 176 86.5
t61 218.5q0 131 -61 217t-176 86zM1804 1585l-338 -295h-151l151 295h338z" />
    <glyph glyph-name="Dcroat" unicode="&#x110;" horiz-adv-x="1515" 
d="M154 1483h546q221 0 392 -98.5t261.5 -266.5t90.5 -377t-91 -377t-261.5 -266t-391.5 -98h-546v623h-140v233h140v627zM674 1186h-180v-330h282v-233h-282v-328h180q194 0 309 127t115 317q0 192 -115 319.5t-309 127.5z" />
    <glyph glyph-name="dcroat" unicode="&#x111;" horiz-adv-x="1331" 
d="M1198 1585v-180h195v-172h-195v-1233h-231l-84 145q-46 -82 -129 -129t-197 -47q-113 0 -208 48.5t-157 130t-96.5 185t-34.5 214.5t34 214t96 184t158 130t210 49q193 0 303 -133h4v242h-192v172h192v180h332zM631 850q-113 0 -174.5 -86.5t-61.5 -216.5
q0 -132 61.5 -218.5t174.5 -86.5q115 0 176 86.5t61 218.5q0 131 -61 217t-176 86z" />
    <glyph glyph-name="Emacron" unicode="&#x112;" horiz-adv-x="1105" 
d="M993 1483v-297h-516v-279h475v-289h-475v-321h516v-297h-850v1483h850zM938 1921v-233h-721v233h721z" />
    <glyph glyph-name="emacron" unicode="&#x113;" horiz-adv-x="1236" 
d="M618 1124q110 0 207 -36.5t173.5 -106t121.5 -181.5t45 -253q0 -47 -6 -96h-788q18 -110 85 -168t162 -58q64 0 117.5 27t83.5 78h316q-52 -171 -189 -265t-321 -94q-112 0 -211 36.5t-176 106.5t-121.5 181.5t-44.5 251.5q0 113 29 208t80.5 162.5t120.5 114.5t149 69.5
t167 22.5zM618 870q-93 0 -158 -53t-85 -155h487q-20 102 -85 155t-159 53zM979 1554v-233h-721v233h721z" />
    <glyph glyph-name="Edotaccent" unicode="&#x116;" horiz-adv-x="1105" 
d="M993 1483v-297h-516v-279h475v-289h-475v-321h516v-297h-850v1483h850zM580 1970q68 0 115.5 -48.5t47.5 -117.5q0 -68 -48 -116t-115 -48q-69 0 -117.5 48t-48.5 116q0 69 48.5 117.5t117.5 48.5z" />
    <glyph glyph-name="edotaccent" unicode="&#x117;" horiz-adv-x="1236" 
d="M618 1124q110 0 207 -36.5t173.5 -106t121.5 -181.5t45 -253q0 -47 -6 -96h-788q18 -110 85 -168t162 -58q64 0 117.5 27t83.5 78h316q-52 -171 -189 -265t-321 -94q-112 0 -211 36.5t-176 106.5t-121.5 181.5t-44.5 251.5q0 113 29 208t80.5 162.5t120.5 114.5t149 69.5
t167 22.5zM618 870q-93 0 -158 -53t-85 -155h487q-20 102 -85 155t-159 53zM621 1604q68 0 115.5 -48.5t47.5 -117.5q0 -68 -48 -116t-115 -48q-69 0 -117.5 48t-48.5 116q0 69 48.5 117.5t117.5 48.5z" />
    <glyph glyph-name="Eogonek" unicode="&#x118;" horiz-adv-x="1105" 
d="M993 1483v-297h-516v-279h475v-289h-475v-321h516v-297h-850v1483h850zM602 8h121q-21 -58 -21 -104q0 -119 113 -119q39 0 82 14v-164q-65 -30 -139 -30q-95 0 -159 54t-64 157q0 113 67 192z" />
    <glyph glyph-name="eogonek" unicode="&#x119;" horiz-adv-x="1236" 
d="M618 1124q110 0 207 -36.5t173.5 -106t121.5 -181.5t45 -253q0 -47 -6 -96h-788q18 -110 85 -168t162 -58q64 0 117.5 27t83.5 78h316q-52 -171 -189 -265t-321 -94q-112 0 -211 36.5t-176 106.5t-121.5 181.5t-44.5 251.5q0 113 29 208t80.5 162.5t120.5 114.5t149 69.5
t167 22.5zM618 870q-93 0 -158 -53t-85 -155h487q-20 102 -85 155t-159 53zM578 8h120q-20 -55 -20 -104q0 -119 113 -119q38 0 81 14v-164q-64 -30 -139 -30q-95 0 -159 54t-64 157q0 112 68 192z" />
    <glyph glyph-name="Ecaron" unicode="&#x11a;" horiz-adv-x="1105" 
d="M993 1483v-297h-516v-279h475v-289h-475v-321h516v-297h-850v1483h850zM971 1952l-223 -295h-332l-232 295h256l142 -160l133 160h256z" />
    <glyph glyph-name="ecaron" unicode="&#x11b;" horiz-adv-x="1236" 
d="M618 1124q110 0 207 -36.5t173.5 -106t121.5 -181.5t45 -253q0 -47 -6 -96h-788q18 -110 85 -168t162 -58q64 0 117.5 27t83.5 78h316q-52 -171 -189 -265t-321 -94q-112 0 -211 36.5t-176 106.5t-121.5 181.5t-44.5 251.5q0 113 29 208t80.5 162.5t120.5 114.5t149 69.5
t167 22.5zM618 870q-93 0 -158 -53t-85 -155h487q-20 102 -85 155t-159 53zM1012 1585l-224 -295h-331l-232 295h256l142 -160l133 160h256z" />
    <glyph glyph-name="Gbreve" unicode="&#x11e;" horiz-adv-x="1624" 
d="M911 1513q278 0 508 -129v-309q-105 68 -232.5 108t-244.5 40q-80 0 -154 -19t-138.5 -58.5t-112.5 -95.5t-75.5 -134.5t-27.5 -170.5q0 -114 41.5 -206t111.5 -150t159 -89t188 -32q133 0 244 51v230h-236v264h549v-651q-229 -185 -567 -185q-372 0 -602 216
q-230 217 -230 552q0 175 64.5 321t175.5 243t260 150.5t319 53.5zM1130 1952h144q-14 -138 -103 -216.5t-251 -78.5t-251.5 78.5t-103.5 216.5h144q16 -72 73 -104.5t138 -32.5t137.5 32.5t72.5 104.5z" />
    <glyph glyph-name="gbreve" unicode="&#x11f;" horiz-adv-x="1302" 
d="M598 1116q43 0 155 -11t222 -11h276v-263h-180q21 -72 21 -135q0 -130 -70 -226t-182 -142.5t-250 -46.5q-90 0 -166 20q-23 -23 -23 -53q0 -22 12 -36.5t46 -25t57 -15.5t82 -14l18 -3q189 -30 266 -57q190 -65 220 -214q6 -29 6 -63q0 -111 -66 -188.5t-176 -113.5
t-256 -36q-231 0 -452 96v258q91 -51 210 -87t244 -36q185 0 185 88q0 14 -4.5 25t-17 19t-22 13.5t-32 10t-34.5 6.5t-40 6q-249 36 -348 80q-142 62 -145 197q-3 130 110 213q-172 116 -172 327q0 99 40 179.5t109.5 132t161 79t195.5 27.5zM596 881q-89 0 -143 -50
t-54 -133t54 -132.5t143 -49.5t143 49.5t54 132.5t-54 133t-143 50zM803 1585h143q-14 -138 -103 -216.5t-251 -78.5t-251 78.5t-103 216.5h143q16 -72 73 -104.5t138 -32.5t138 32.5t73 104.5z" />
    <glyph glyph-name="Gdotaccent" unicode="&#x120;" horiz-adv-x="1624" 
d="M911 1513q278 0 508 -129v-309q-105 68 -232.5 108t-244.5 40q-80 0 -154 -19t-138.5 -58.5t-112.5 -95.5t-75.5 -134.5t-27.5 -170.5q0 -114 41.5 -206t111.5 -150t159 -89t188 -32q133 0 244 51v230h-236v264h549v-651q-229 -185 -567 -185q-372 0 -602 216
q-230 217 -230 552q0 175 64.5 321t175.5 243t260 150.5t319 53.5zM922 1970q68 0 115.5 -48.5t47.5 -117.5q0 -68 -48 -116t-115 -48q-69 0 -117.5 48t-48.5 116q0 69 48.5 117.5t117.5 48.5z" />
    <glyph glyph-name="gdotaccent" unicode="&#x121;" horiz-adv-x="1302" 
d="M598 1116q43 0 155 -11t222 -11h276v-263h-180q21 -72 21 -135q0 -130 -70 -226t-182 -142.5t-250 -46.5q-90 0 -166 20q-23 -23 -23 -53q0 -22 12 -36.5t46 -25t57 -15.5t82 -14l18 -3q189 -30 266 -57q190 -65 220 -214q6 -29 6 -63q0 -111 -66 -188.5t-176 -113.5
t-256 -36q-231 0 -452 96v258q91 -51 210 -87t244 -36q185 0 185 88q0 14 -4.5 25t-17 19t-22 13.5t-32 10t-34.5 6.5t-40 6q-249 36 -348 80q-142 62 -145 197q-3 130 110 213q-172 116 -172 327q0 99 40 179.5t109.5 132t161 79t195.5 27.5zM596 881q-89 0 -143 -50
t-54 -133t54 -132.5t143 -49.5t143 49.5t54 132.5t-54 133t-143 50zM594 1604q68 0 116 -48.5t48 -117.5q0 -68 -48 -116t-116 -48q-69 0 -117.5 48t-48.5 116q0 69 48.5 117.5t117.5 48.5z" />
    <glyph glyph-name="Gcommaaccent" unicode="&#x122;" horiz-adv-x="1624" 
d="M911 1513q278 0 508 -129v-309q-105 68 -232.5 108t-244.5 40q-80 0 -154 -19t-138.5 -58.5t-112.5 -95.5t-75.5 -134.5t-27.5 -170.5q0 -114 41.5 -206t111.5 -150t159 -89t188 -32q133 0 244 51v230h-236v264h549v-651q-229 -185 -567 -185q-372 0 -602 216
q-230 217 -230 552q0 175 64.5 321t175.5 243t260 150.5t319 53.5zM1112 -197l-338 -295h-151l151 295h338z" />
    <glyph glyph-name="gcommaaccent" unicode="&#x123;" horiz-adv-x="1302" 
d="M598 1116q43 0 155 -11t222 -11h276v-263h-180q21 -72 21 -135q0 -130 -70 -226t-182 -142.5t-250 -46.5q-90 0 -166 20q-23 -23 -23 -53q0 -22 12 -36.5t46 -25t57 -15.5t82 -14l18 -3q189 -30 266 -57q190 -65 220 -214q6 -29 6 -63q0 -111 -66 -188.5t-176 -113.5
t-256 -36q-231 0 -452 96v258q91 -51 210 -87t244 -36q185 0 185 88q0 14 -4.5 25t-17 19t-22 13.5t-32 10t-34.5 6.5t-40 6q-249 36 -348 80q-142 62 -145 197q-3 130 110 213q-172 116 -172 327q0 99 40 179.5t109.5 132t161 79t195.5 27.5zM596 881q-89 0 -143 -50
t-54 -133t54 -132.5t143 -49.5t143 49.5t54 132.5t-54 133t-143 50zM928 1585l-152 -295h-338l338 295h152z" />
    <glyph glyph-name="Hbar" unicode="&#x126;" horiz-adv-x="1603" 
d="M1460 1483v-221h123v-172h-123v-1090h-340v614h-637v-614h-340v1090h-123v172h123v221h340v-221h637v221h340zM1120 1090h-637v-179h637v179z" />
    <glyph glyph-name="hbar" unicode="&#x127;" horiz-adv-x="1298" 
d="M485 1585v-180h275v-172h-275v-240q51 69 133.5 102t172.5 33q183 0 294 -125.5t111 -326.5v-676h-334v569q0 45 -2 77t-12.5 73t-28.5 66t-53 43t-84 18q-45 0 -79.5 -13.5t-55 -39.5t-33.5 -52t-18.5 -61.5t-7 -58.5t-1.5 -52v-569h-333v1233h-113v172h113v180h331z
" />
    <glyph glyph-name="Imacron" unicode="&#x12a;" horiz-adv-x="649" 
d="M496 1483v-1483h-342v1483h342zM684 1921v-233h-721v233h721z" />
    <glyph glyph-name="imacron" unicode="&#x12b;" horiz-adv-x="616" 
d="M473 1094v-1094h-330v1094h330zM672 1554v-233h-721v233h721z" />
    <glyph glyph-name="Iogonek" unicode="&#x12e;" horiz-adv-x="649" 
d="M496 1483v-1483h-342v1483h342zM274 8h121q-20 -55 -20 -104q0 -119 112 -119q39 0 82 14v-164q-64 -30 -139 -30q-95 0 -159 54t-64 157q0 113 67 192z" />
    <glyph glyph-name="iogonek" unicode="&#x12f;" horiz-adv-x="616" 
d="M473 1094v-1094h-330v1094h330zM313 1604q68 0 116 -48.5t48 -117.5q0 -68 -48.5 -116t-115.5 -48q-69 0 -117.5 48t-48.5 116q0 69 48.5 117.5t117.5 48.5zM254 8h121q-21 -58 -21 -104q0 -119 113 -119q39 0 82 14v-164q-64 -30 -139 -30q-95 0 -159.5 54t-64.5 157
q0 112 68 192z" />
    <glyph glyph-name="Idotaccent" unicode="&#x130;" horiz-adv-x="649" 
d="M496 1483v-1483h-342v1483h342zM326 1970q68 0 115.5 -48.5t47.5 -117.5q0 -68 -48 -116t-115 -48q-69 0 -117.5 48t-48.5 116q0 69 48.5 117.5t117.5 48.5z" />
    <glyph glyph-name="dotlessi" unicode="&#x131;" horiz-adv-x="616" 
d="M473 1094v-1094h-330v1094h330z" />
    <glyph glyph-name="IJ" unicode="&#x132;" horiz-adv-x="1419" 
d="M496 1483v-1483h-342v1483h342zM1286 1483v-1139q0 -172 -101.5 -273.5t-273.5 -101.5q-99 0 -190 31v266q56 -22 104 -22q60 0 92.5 30.5t32.5 90.5l-2 1118h338z" />
    <glyph glyph-name="ij" unicode="&#x133;" horiz-adv-x="1216" 
d="M475 1094v-1094h-330v1094h330zM477 1513v-270h-334v270h334zM1094 1094v-1246q0 -169 -99 -267.5t-268 -98.5q-93 0 -188 29v262q59 -23 104 -23q58 0 89.5 30t31.5 89v1225h330zM1087 1513v-270h-333v270h333z" />
    <glyph glyph-name="Kcommaaccent" unicode="&#x136;" horiz-adv-x="1384" 
d="M1384 1483l-591 -742h-2l2 -2l604 -739h-414l-494 621l-4 -3h-4v-618h-338v1483h338v-621h4l4 -2l482 623h413zM862 -197l-338 -295h-151l151 295h338z" />
    <glyph glyph-name="kcommaaccent" unicode="&#x137;" horiz-adv-x="1234" 
d="M467 1585v-989l391 498h381l-432 -547l442 -547h-393l-389 492v-492h-332v1585h332zM797 -197l-338 -295h-152l152 295h338z" />
    <glyph glyph-name="Lacute" unicode="&#x139;" horiz-adv-x="1054" 
d="M481 1483v-1176h482v-307h-820v1483h338zM731 1952l-338 -295h-151l151 295h338z" />
    <glyph glyph-name="lacute" unicode="&#x13a;" horiz-adv-x="602" 
d="M469 1585v-1585h-336v1585h336zM725 2075l-338 -295h-151l151 295h338z" />
    <glyph glyph-name="Lcommaaccent" unicode="&#x13b;" horiz-adv-x="1054" 
d="M481 1483v-1176h482v-307h-820v1483h338zM729 -197l-338 -295h-151l151 295h338z" />
    <glyph glyph-name="lcommaaccent" unicode="&#x13c;" horiz-adv-x="602" 
d="M469 1585v-1585h-336v1585h336zM481 -197l-338 -295h-151l151 295h338z" />
    <glyph glyph-name="Lcaron" unicode="&#x13d;" horiz-adv-x="1189" 
d="M492 1483l-21 -1176h481v-307h-819v1483h359zM1169 1585l-338 -295h-151l151 295h338z" />
    <glyph glyph-name="lcaron" unicode="&#x13e;" horiz-adv-x="704" 
d="M475 1585v-1585h-342v1585h342zM1114 1585l-338 -295h-151l151 295h338z" />
    <glyph glyph-name="Ldot" unicode="&#x13f;" horiz-adv-x="1044" 
d="M809 932q66 0 113 -47.5t47 -114.5q0 -66 -47 -113t-113 -47q-67 0 -114.5 47t-47.5 113q0 68 47.5 115t114.5 47zM481 1483v-1176h482v-307h-820v1483h338z" />
    <glyph glyph-name="ldot" unicode="&#x140;" horiz-adv-x="968" 
d="M475 1585v-1585h-342v1585h342zM805 926q67 0 114.5 -47t47.5 -115q0 -66 -47.5 -113t-114.5 -47q-66 0 -113 47t-47 113q0 67 47 114.5t113 47.5z" />
    <glyph glyph-name="Lslash" unicode="&#x141;" horiz-adv-x="1114" 
d="M541 1483v-525l196 148v-238l-196 -147v-414h481v-307h-819v469l-152 -113v236l152 113v778h338z" />
    <glyph glyph-name="lslash" unicode="&#x142;" horiz-adv-x="727" 
d="M535 1585v-498l151 121v-237l-151 -121v-850h-342v578l-152 -121v235l152 121v772h342z" />
    <glyph glyph-name="Nacute" unicode="&#x143;" horiz-adv-x="1673" 
d="M455 1487l737 -940v936h338v-1487h-311l-738 936v-932h-338v1487h312zM1257 1952l-337 -295h-152l152 295h337z" />
    <glyph glyph-name="nacute" unicode="&#x144;" horiz-adv-x="1286" 
d="M793 1124q106 0 184 -35.5t122 -100t64.5 -144t20.5 -178.5v-666h-334v557v14q0 31 -0.5 47.5t-2 47.5t-6.5 49t-13 43t-21.5 40t-32 30t-45 21.5t-59.5 6.5q-42 0 -74.5 -12.5t-53.5 -30t-36 -48.5t-22.5 -56t-11.5 -65t-4.5 -63t-0.5 -61v-520h-334v1094h254l84 -144
q55 91 133.5 132.5t188.5 41.5zM1069 1585l-338 -295h-151l151 295h338z" />
    <glyph glyph-name="Ncommaaccent" unicode="&#x145;" horiz-adv-x="1673" 
d="M455 1487l737 -940v936h338v-1487h-311l-738 936v-932h-338v1487h312zM1004 -197l-338 -295h-152l152 295h338z" />
    <glyph glyph-name="ncommaaccent" unicode="&#x146;" horiz-adv-x="1286" 
d="M793 1124q106 0 184 -35.5t122 -100t64.5 -144t20.5 -178.5v-666h-334v557v14q0 31 -0.5 47.5t-2 47.5t-6.5 49t-13 43t-21.5 40t-32 30t-45 21.5t-59.5 6.5q-42 0 -74.5 -12.5t-53.5 -30t-36 -48.5t-22.5 -56t-11.5 -65t-4.5 -63t-0.5 -61v-520h-334v1094h254l84 -144
q55 91 133.5 132.5t188.5 41.5zM825 -197l-338 -295h-151l151 295h338z" />
    <glyph glyph-name="Ncaron" unicode="&#x147;" horiz-adv-x="1673" 
d="M455 1487l737 -940v936h338v-1487h-311l-738 936v-932h-338v1487h312zM1231 1952l-223 -295h-332l-232 295h256l142 -160l133 160h256z" />
    <glyph glyph-name="ncaron" unicode="&#x148;" horiz-adv-x="1286" 
d="M793 1124q106 0 184 -35.5t122 -100t64.5 -144t20.5 -178.5v-666h-334v557v14q0 31 -0.5 47.5t-2 47.5t-6.5 49t-13 43t-21.5 40t-32 30t-45 21.5t-59.5 6.5q-42 0 -74.5 -12.5t-53.5 -30t-36 -48.5t-22.5 -56t-11.5 -65t-4.5 -63t-0.5 -61v-520h-334v1094h254l84 -144
q55 91 133.5 132.5t188.5 41.5zM1042 1585l-223 -295h-332l-231 295h256l141 -160l133 160h256z" />
    <glyph glyph-name="Eng" unicode="&#x14a;" horiz-adv-x="1654" 
d="M455 1487l737 -940v936h338v-1626q0 -172 -101.5 -273.5t-273.5 -101.5q-99 0 -190 31v266q59 -23 104 -23q60 0 92.5 30.5t32.5 90.5v150l-713 905v-932h-338v1487h312z" />
    <glyph glyph-name="eng" unicode="&#x14b;" horiz-adv-x="1306" 
d="M793 1124q106 0 184 -35.5t122 -100t64.5 -144t20.5 -178.5v-760q0 -400 -396 -400q-69 0 -159 17v268q29 -6 78 -6q84 0 112.5 39t30.5 131v602v14q0 31 -0.5 47.5t-2 47.5t-6.5 49t-13 43t-21.5 40t-32 30t-45 21.5t-59.5 6.5q-42 0 -74.5 -12.5t-53.5 -30t-36 -48.5
t-22.5 -56t-11.5 -65t-4.5 -63t-0.5 -61v-520h-334v1094h254l84 -144q55 91 133.5 132.5t188.5 41.5z" />
    <glyph glyph-name="Omacron" unicode="&#x14c;" horiz-adv-x="1748" 
d="M874 1513q120 0 234.5 -32t213.5 -97t174 -155.5t118 -216.5t43 -271t-43 -271t-118 -216.5t-174 -155.5t-213.5 -97t-234.5 -32t-234 32t-213.5 97t-174 155.5t-117.5 216.5t-43 271t43 271t117.5 216.5t174 155.5t213.5 97t234 32zM874 1206q-121 0 -220.5 -58
t-158.5 -165t-59 -242q0 -205 126.5 -335t311.5 -130t312 130t127 335q0 101 -34.5 188.5t-94 148t-140 94.5t-170.5 34zM1235 1921v-233h-721v233h721z" />
    <glyph glyph-name="omacron" unicode="&#x14d;" horiz-adv-x="1331" 
d="M666 1124q117 0 222.5 -36.5t189 -106t133 -182t49.5 -252.5t-49.5 -252.5t-133 -182.5t-189 -106.5t-222.5 -36.5t-222.5 36.5t-189 106.5t-133 182.5t-49.5 252.5t49.5 252.5t133 182t189 106t222.5 36.5zM666 852q-122 0 -197.5 -79t-75.5 -226t75.5 -226t197.5 -79
t197 79t75 226t-75 226t-197 79zM1026 1554v-233h-721v233h721z" />
    <glyph glyph-name="Ohungarumlaut" unicode="&#x150;" horiz-adv-x="1748" 
d="M874 1513q120 0 234.5 -32t213.5 -97t174 -155.5t118 -216.5t43 -271t-43 -271t-118 -216.5t-174 -155.5t-213.5 -97t-234.5 -32t-234 32t-213.5 97t-174 155.5t-117.5 216.5t-43 271t43 271t117.5 216.5t174 155.5t213.5 97t234 32zM874 1206q-121 0 -220.5 -58
t-158.5 -165t-59 -242q0 -205 126.5 -335t311.5 -130t312 130t127 335q0 101 -34.5 188.5t-94 148t-140 94.5t-170.5 34zM1473 1952l-338 -295h-152l152 295h338zM1073 1952l-338 -295h-151l151 295h338z" />
    <glyph glyph-name="ohungarumlaut" unicode="&#x151;" horiz-adv-x="1331" 
d="M666 1124q117 0 222.5 -36.5t189 -106t133 -182t49.5 -252.5t-49.5 -252.5t-133 -182.5t-189 -106.5t-222.5 -36.5t-222.5 36.5t-189 106.5t-133 182.5t-49.5 252.5t49.5 252.5t133 182t189 106t222.5 36.5zM666 852q-122 0 -197.5 -79t-75.5 -226t75.5 -226t197.5 -79
t197 79t75 226t-75 226t-197 79zM1264 1585l-338 -295h-152l152 295h338zM864 1585l-338 -295h-151l151 295h338z" />
    <glyph glyph-name="OE" unicode="&#x152;" horiz-adv-x="2070" 
d="M877 1513q117 0 231 -30h850v-297h-516v-281h475v-284h-475v-324h516v-297l-848 2q-109 -33 -233 -33q-121 0 -235.5 32t-214 97t-174.5 155.5t-118 216.5t-43 271t43 271t118 216.5t174.5 155.5t214 97t235.5 32zM874 1206q-121 0 -220.5 -58t-158.5 -165t-59 -242
q0 -205 126.5 -335t311.5 -130q130 0 234 66v797q-106 67 -234 67z" />
    <glyph glyph-name="oe" unicode="&#x153;" horiz-adv-x="2078" 
d="M1477 1124q113 0 210 -36.5t171 -106t116.5 -181t42.5 -251.5q0 -57 -6 -109h-774q20 -99 86 -155t156 -56q62 0 112.5 27t79.5 78h316q-54 -174 -191 -266.5t-317 -92.5q-242 0 -396 154q-82 -78 -193.5 -119t-234.5 -41q-117 0 -222.5 36.5t-189 106.5t-133 182.5
t-49.5 252.5t49.5 252.5t133 182t189 106t222.5 36.5q122 0 232.5 -39t193.5 -116q152 155 396 155zM655 852q-122 0 -197 -79t-75 -226t75 -226t197 -79t197.5 79t75.5 226t-75.5 226t-197.5 79zM1479 870q-96 0 -159 -53.5t-83 -152.5h473q-15 102 -76 154t-155 52z" />
    <glyph glyph-name="Racute" unicode="&#x154;" horiz-adv-x="1280" 
d="M143 1483h553q192 0 327.5 -135.5t135.5 -327.5q0 -150 -87 -269t-226 -165l454 -586h-403l-393 561h-29v-561h-332v1483zM629 1210h-154v-383l154 2q77 0 133.5 55t56.5 136q0 79 -56 134.5t-134 55.5zM997 1952l-338 -295h-151l151 295h338z" />
    <glyph glyph-name="racute" unicode="&#x155;" horiz-adv-x="841" 
d="M733 1116q52 0 88 -12v-299q-51 14 -92 14q-52 0 -97 -19.5t-83 -60.5t-60 -114t-22 -170v-455h-334v1094h215l103 -179q43 98 115 149.5t167 51.5zM854 1585l-338 -295h-151l151 295h338z" />
    <glyph glyph-name="Rcommaaccent" unicode="&#x156;" horiz-adv-x="1280" 
d="M143 1483h553q192 0 327.5 -135.5t135.5 -327.5q0 -150 -87 -269t-226 -165l454 -586h-403l-393 561h-29v-561h-332v1483zM629 1210h-154v-383l154 2q77 0 133.5 55t56.5 136q0 79 -56 134.5t-134 55.5zM827 -197l-338 -295h-151l151 295h338z" />
    <glyph glyph-name="rcommaaccent" unicode="&#x157;" horiz-adv-x="841" 
d="M733 1116q52 0 88 -12v-299q-51 14 -92 14q-52 0 -97 -19.5t-83 -60.5t-60 -114t-22 -170v-455h-334v1094h215l103 -179q43 98 115 149.5t167 51.5zM469 -197l-338 -295h-151l151 295h338z" />
    <glyph glyph-name="Rcaron" unicode="&#x158;" horiz-adv-x="1280" 
d="M143 1483h553q192 0 327.5 -135.5t135.5 -327.5q0 -150 -87 -269t-226 -165l454 -586h-403l-393 561h-29v-561h-332v1483zM629 1210h-154v-383l154 2q77 0 133.5 55t56.5 136q0 79 -56 134.5t-134 55.5zM971 1952l-223 -295h-332l-232 295h256l142 -160l133 160h256z" />
    <glyph glyph-name="rcaron" unicode="&#x159;" horiz-adv-x="841" 
d="M733 1116q52 0 88 -12v-299q-51 14 -92 14q-52 0 -97 -19.5t-83 -60.5t-60 -114t-22 -170v-455h-334v1094h215l103 -179q43 98 115 149.5t167 51.5zM827 1585l-223 -295h-332l-231 295h256l141 -160l133 160h256z" />
    <glyph glyph-name="Sacute" unicode="&#x15a;" horiz-adv-x="1171" 
d="M584 1509q116 0 228 -34t198 -99v-301q-96 67 -201 108.5t-195 41.5q-88 0 -138 -41t-50 -113q0 -40 15.5 -69.5t54.5 -54t75.5 -39.5t108.5 -40q46 -16 77 -28.5t77.5 -35t77.5 -44t66 -55.5t56 -72t35 -89t14 -110q0 -92 -32.5 -174t-95 -146t-163.5 -101.5t-227 -37.5
q-244 0 -448 136v305q103 -76 213 -116t205 -40q106 0 157 46.5t51 115.5q0 31 -12.5 56t-30 42t-53 34t-65 28.5t-83.5 29.5q-8 3 -12 4q-44 15 -74 27t-75 34t-76.5 44.5t-66.5 56.5t-56.5 72t-36 90t-14.5 111q0 89 31 170t90.5 146t156 103.5t218.5 38.5zM999 1952
l-337 -295h-152l152 295h337z" />
    <glyph glyph-name="sacute" unicode="&#x15b;" horiz-adv-x="989" 
d="M496 1124q191 0 360 -94v-260q-192 117 -340 117q-129 0 -129 -92q0 -53 43.5 -81t155.5 -65q42 -14 68.5 -23.5t66.5 -27t65.5 -34t55 -42.5t46.5 -54.5t28.5 -67t11.5 -83.5q0 -156 -122 -252t-325 -96q-205 0 -375 105v262q86 -59 182 -94t183 -35q145 0 145 102
q0 51 -39.5 75.5t-158.5 61.5q-51 16 -90 31t-89.5 44.5t-83 64t-56 88t-23.5 117.5q0 151 113.5 242t306.5 91zM918 1585l-338 -295h-152l152 295h338z" />
    <glyph glyph-name="Scedilla" unicode="&#x15e;" horiz-adv-x="1171" 
d="M584 1509q116 0 228 -34t198 -99v-301q-96 67 -201 108.5t-195 41.5q-88 0 -138 -41t-50 -113q0 -40 15.5 -69.5t54.5 -54t75.5 -39.5t108.5 -40q46 -16 77 -28.5t77.5 -35t77.5 -44t66 -55.5t56 -72t35 -89t14 -110q0 -92 -32.5 -174t-95 -146t-163.5 -101.5t-227 -37.5
q-244 0 -448 136v305q103 -76 213 -116t205 -40q106 0 157 46.5t51 115.5q0 31 -12.5 56t-30 42t-53 34t-65 28.5t-83.5 29.5q-8 3 -12 4q-44 15 -74 27t-75 34t-76.5 44.5t-66.5 56.5t-56.5 72t-36 90t-14.5 111q0 89 31 170t90.5 146t156 103.5t218.5 38.5zM647 6l-51 -86
q12 2 33 2q67 0 116.5 -38t49.5 -115q0 -85 -63 -127.5t-165 -42.5q-104 0 -202 36l43 103q82 -33 135 -33q36 0 57 16t21 46q0 53 -70 53q-30 0 -64 -17l-51 41l94 162h117z" />
    <glyph glyph-name="scedilla" unicode="&#x15f;" horiz-adv-x="989" 
d="M496 1124q191 0 360 -94v-260q-192 117 -340 117q-129 0 -129 -92q0 -53 43.5 -81t155.5 -65q42 -14 68.5 -23.5t66.5 -27t65.5 -34t55 -42.5t46.5 -54.5t28.5 -67t11.5 -83.5q0 -156 -122 -252t-325 -96q-205 0 -375 105v262q86 -59 182 -94t183 -35q145 0 145 102
q0 51 -39.5 75.5t-158.5 61.5q-51 16 -90 31t-89.5 44.5t-83 64t-56 88t-23.5 117.5q0 151 113.5 242t306.5 91zM573 6l-51 -86q12 2 33 2q67 0 116.5 -38t49.5 -115q0 -85 -63 -127.5t-164 -42.5q-105 0 -203 36l43 103q82 -33 135 -33q36 0 57 16t21 46q0 53 -70 53
q-29 0 -63 -17l-52 41l95 162h116z" />
    <glyph glyph-name="Scaron" unicode="&#x160;" horiz-adv-x="1171" 
d="M584 1509q116 0 228 -34t198 -99v-301q-96 67 -201 108.5t-195 41.5q-88 0 -138 -41t-50 -113q0 -40 15.5 -69.5t54.5 -54t75.5 -39.5t108.5 -40q46 -16 77 -28.5t77.5 -35t77.5 -44t66 -55.5t56 -72t35 -89t14 -110q0 -92 -32.5 -174t-95 -146t-163.5 -101.5t-227 -37.5
q-244 0 -448 136v305q103 -76 213 -116t205 -40q106 0 157 46.5t51 115.5q0 31 -12.5 56t-30 42t-53 34t-65 28.5t-83.5 29.5q-8 3 -12 4q-44 15 -74 27t-75 34t-76.5 44.5t-66.5 56.5t-56.5 72t-36 90t-14.5 111q0 89 31 170t90.5 146t156 103.5t218.5 38.5zM973 1952
l-223 -295h-332l-232 295h256l142 -160l133 160h256z" />
    <glyph glyph-name="scaron" unicode="&#x161;" horiz-adv-x="989" 
d="M496 1124q191 0 360 -94v-260q-192 117 -340 117q-129 0 -129 -92q0 -53 43.5 -81t155.5 -65q42 -14 68.5 -23.5t66.5 -27t65.5 -34t55 -42.5t46.5 -54.5t28.5 -67t11.5 -83.5q0 -156 -122 -252t-325 -96q-205 0 -375 105v262q86 -59 182 -94t183 -35q145 0 145 102
q0 51 -39.5 75.5t-158.5 61.5q-51 16 -90 31t-89.5 44.5t-83 64t-56 88t-23.5 117.5q0 151 113.5 242t306.5 91zM891 1585l-223 -295h-332l-232 295h256l142 -160l133 160h256z" />
    <glyph glyph-name="Tcedilla" unicode="&#x162;" horiz-adv-x="1142" 
d="M1081 1483v-297h-340v-1186h-340v1186h-340v297h1020zM647 6l-51 -86q12 2 33 2q67 0 116.5 -38t49.5 -115q0 -85 -63 -127.5t-165 -42.5q-104 0 -202 36l43 103q82 -33 135 -33q36 0 57 16t21 46q0 53 -70 53q-30 0 -64 -17l-51 41l94 162h117z" />
    <glyph glyph-name="tcedilla" unicode="&#x163;" horiz-adv-x="811" 
d="M504 1380v-286h246v-263h-246v-475q0 -118 123 -118q56 0 123 30v-264q-96 -35 -209 -35q-169 0 -268 99t-99 268v495h-143v242h53q53 0 82 29.5t29 83.5v194h309zM569 6l-51 -86q12 2 33 2q67 0 116.5 -38t49.5 -115q0 -85 -63 -127.5t-165 -42.5q-104 0 -202 36l43 103
q82 -33 135 -33q36 0 57 16t21 46q0 53 -70 53q-29 0 -63 -17l-52 41l95 162h116z" />
    <glyph glyph-name="Tcaron" unicode="&#x164;" horiz-adv-x="1142" 
d="M1081 1483v-297h-340v-1186h-340v1186h-340v297h1020zM965 1911l-224 -295h-331l-232 295h256l141 -160l134 160h256z" />
    <glyph glyph-name="tcaron" unicode="&#x165;" horiz-adv-x="845" 
d="M504 1380v-286h246v-263h-246v-475q0 -118 123 -118q56 0 123 30v-264q-96 -35 -209 -35q-169 0 -268 99t-99 268v495h-143v242h53q53 0 82 29.5t29 83.5v194h309zM1194 1585l-338 -295h-151l151 295h338z" />
    <glyph glyph-name="Tbar" unicode="&#x166;" horiz-adv-x="1183" 
d="M1102 1483v-297h-340v-336h211v-234h-211v-616h-340v616h-211v234h211v336h-340v297h1020z" />
    <glyph glyph-name="tbar" unicode="&#x167;" horiz-adv-x="800" 
d="M504 1380v-286h246v-263h-246v-137h246v-172h-246v-166q0 -118 123 -118q56 0 123 30v-264q-96 -35 -209 -35q-169 0 -268 99t-99 268v186h-143v172h143v137h-143v242h53q53 0 82 29.5t29 83.5v194h309z" />
    <glyph glyph-name="Umacron" unicode="&#x16a;" horiz-adv-x="1519" 
d="M1376 1483v-897q0 -140 -48.5 -257t-132 -195t-196 -121.5t-239.5 -43.5t-239.5 43.5t-196.5 121.5t-132.5 195t-48.5 257v897h338l2 -926q0 -121 80 -198.5t197 -77.5t196.5 77.5t79.5 198.5l2 926h338zM1120 1921v-233h-721v233h721z" />
    <glyph glyph-name="umacron" unicode="&#x16b;" horiz-adv-x="1241" 
d="M1128 1094v-617q0 -236 -141.5 -372t-365.5 -136t-366 136t-142 372v617h329v-664q0 -80 51.5 -129t127.5 -49q75 0 126.5 49t51.5 129v664h329zM977 1554v-233h-721v233h721z" />
    <glyph glyph-name="Uring" unicode="&#x16e;" horiz-adv-x="1519" 
d="M1376 1483v-897q0 -140 -48.5 -257t-132 -195t-196 -121.5t-239.5 -43.5t-239.5 43.5t-196.5 121.5t-132.5 195t-48.5 257v897h338l2 -926q0 -121 80 -198.5t197 -77.5t196.5 77.5t79.5 198.5l2 926h338zM760 2030q92 0 157.5 -66.5t65.5 -157.5t-65.5 -157t-157.5 -66
q-91 0 -157 66t-66 157t66 157.5t157 66.5zM760 1903q-40 0 -68 -28.5t-28 -68.5t28 -68t68 -28t68 28t28 68t-28 68.5t-68 28.5z" />
    <glyph glyph-name="uring" unicode="&#x16f;" horiz-adv-x="1241" 
d="M1128 1094v-617q0 -236 -141.5 -372t-365.5 -136t-366 136t-142 372v617h329v-664q0 -80 51.5 -129t127.5 -49q75 0 126.5 49t51.5 129v664h329zM616 1663q92 0 158 -66t66 -157t-66 -157t-158 -66q-91 0 -157 66t-66 157t66 157t157 66zM616 1536q-40 0 -68 -28t-28 -68
t28 -68.5t68 -28.5t68.5 28.5t28.5 68.5t-28.5 68t-68.5 28z" />
    <glyph glyph-name="Uhungarumlaut" unicode="&#x170;" horiz-adv-x="1519" 
d="M1376 1483v-897q0 -140 -48.5 -257t-132 -195t-196 -121.5t-239.5 -43.5t-239.5 43.5t-196.5 121.5t-132.5 195t-48.5 257v897h338l2 -926q0 -121 80 -198.5t197 -77.5t196.5 77.5t79.5 198.5l2 926h338zM1358 1952l-338 -295h-152l152 295h338zM958 1952l-337 -295h-152
l152 295h337z" />
    <glyph glyph-name="uhungarumlaut" unicode="&#x171;" horiz-adv-x="1241" 
d="M1128 1094v-617q0 -236 -141.5 -372t-365.5 -136t-366 136t-142 372v617h329v-664q0 -80 51.5 -129t127.5 -49q75 0 126.5 49t51.5 129v664h329zM1214 1585l-337 -295h-152l152 295h337zM815 1585l-338 -295h-151l151 295h338z" />
    <glyph glyph-name="Uogonek" unicode="&#x172;" horiz-adv-x="1519" 
d="M1376 1483v-897q0 -140 -48.5 -257t-132 -195t-196 -121.5t-239.5 -43.5t-239.5 43.5t-196.5 121.5t-132.5 195t-48.5 257v897h338l2 -926q0 -121 80 -198.5t197 -77.5t196.5 77.5t79.5 198.5l2 926h338zM709 8h120q-20 -55 -20 -104q0 -119 113 -119q39 0 82 14v-164
q-64 -30 -140 -30q-95 0 -159 54t-64 157q0 112 68 192z" />
    <glyph glyph-name="uogonek" unicode="&#x173;" horiz-adv-x="1241" 
d="M1128 1094v-617q0 -236 -141.5 -372t-365.5 -136t-366 136t-142 372v617h329v-664q0 -80 51.5 -129t127.5 -49q75 0 126.5 49t51.5 129v664h329zM571 8h121q-20 -55 -20 -104q0 -119 112 -119q39 0 82 14v-164q-64 -30 -139 -30q-95 0 -159 54t-64 157q0 113 67 192z" />
    <glyph glyph-name="Wcircumflex" unicode="&#x174;" horiz-adv-x="2437" 
d="M2386 1483l-490 -1483h-331l-346 961l-347 -961h-331l-490 1483h365l301 -994l358 994h287l358 -994l301 994h365zM1386 1952l224 -295h-256l-133 160l-142 -160h-256l232 295h331z" />
    <glyph glyph-name="wcircumflex" unicode="&#x175;" horiz-adv-x="1888" 
d="M1909 1094l-467 -1094h-209l-289 621l-289 -621h-209l-466 1094h329l256 -594l273 594h213l274 -594l254 594h330zM1116 1585l223 -295h-256l-133 160l-141 -160h-256l231 295h332z" />
    <glyph glyph-name="Ycircumflex" unicode="&#x176;" horiz-adv-x="1392" 
d="M1393 1483l-529 -803v-680h-336v680l-528 803h379l317 -496l318 496h379zM868 1952l224 -295h-256l-134 160l-141 -160h-256l232 295h331z" />
    <glyph glyph-name="ycircumflex" unicode="&#x177;" horiz-adv-x="1241" 
d="M1241 1094l-735 -1586h-334l281 609l-453 977h330l291 -633l290 633h330zM791 1585l223 -295h-256l-133 160l-142 -160h-256l232 295h332z" />
    <glyph glyph-name="Ydieresis" unicode="&#x178;" horiz-adv-x="1392" 
d="M1393 1483l-529 -803v-680h-336v680l-528 803h379l317 -496l318 496h379zM936 1966q68 0 115 -47t47 -115q0 -66 -47.5 -112.5t-114.5 -46.5q-66 0 -113 46.5t-47 112.5q0 67 47 114.5t113 47.5zM459 1966q66 0 112.5 -47.5t46.5 -114.5q0 -66 -46.5 -112.5t-112.5 -46.5
q-67 0 -114.5 46.5t-47.5 112.5q0 68 47.5 115t114.5 47z" />
    <glyph glyph-name="Zacute" unicode="&#x179;" horiz-adv-x="1288" 
d="M1171 1483v-230l-616 -956h616v-297h-1054v229l616 957h-616v297h1054zM1055 1952l-338 -295h-152l152 295h338z" />
    <glyph glyph-name="zacute" unicode="&#x17a;" horiz-adv-x="1046" 
d="M958 1094v-183l-460 -649h456v-262h-866v182l461 649h-457v263h866zM942 1585l-338 -295h-151l151 295h338z" />
    <glyph glyph-name="Zdotaccent" unicode="&#x17b;" horiz-adv-x="1288" 
d="M1171 1483v-230l-616 -956h616v-297h-1054v229l616 957h-616v297h1054zM637 1970q68 0 116 -48.5t48 -117.5q0 -68 -48.5 -116t-115.5 -48q-69 0 -117.5 48t-48.5 116q0 69 48.5 117.5t117.5 48.5z" />
    <glyph glyph-name="zdotaccent" unicode="&#x17c;" horiz-adv-x="1046" 
d="M958 1094v-183l-460 -649h456v-262h-866v182l461 649h-457v263h866zM524 1604q68 0 116 -48.5t48 -117.5q0 -68 -48 -116t-116 -48q-69 0 -117.5 48t-48.5 116q0 69 48.5 117.5t117.5 48.5z" />
    <glyph glyph-name="Zcaron" unicode="&#x17d;" horiz-adv-x="1288" 
d="M1171 1483v-230l-616 -956h616v-297h-1054v229l616 957h-616v297h1054zM1028 1952l-223 -295h-332l-231 295h256l141 -160l133 160h256z" />
    <glyph glyph-name="zcaron" unicode="&#x17e;" horiz-adv-x="1046" 
d="M958 1094v-183l-460 -649h456v-262h-866v182l461 649h-457v263h866zM915 1585l-223 -295h-332l-231 295h256l141 -160l133 160h256z" />
    <glyph glyph-name="Scommaaccent" unicode="&#x218;" horiz-adv-x="1171" 
d="M584 1509q116 0 228 -34t198 -99v-301q-96 67 -201 108.5t-195 41.5q-88 0 -138 -41t-50 -113q0 -40 15.5 -69.5t54.5 -54t75.5 -39.5t108.5 -40q46 -16 77 -28.5t77.5 -35t77.5 -44t66 -55.5t56 -72t35 -89t14 -110q0 -92 -32.5 -174t-95 -146t-163.5 -101.5t-227 -37.5
q-244 0 -448 136v305q103 -76 213 -116t205 -40q106 0 157 46.5t51 115.5q0 31 -12.5 56t-30 42t-53 34t-65 28.5t-83.5 29.5q-8 3 -12 4q-44 15 -74 27t-75 34t-76.5 44.5t-66.5 56.5t-56.5 72t-36 90t-14.5 111q0 89 31 170t90.5 146t156 103.5t218.5 38.5zM748 -197
l-338 -295h-152l152 295h338z" />
    <glyph glyph-name="scommaaccent" unicode="&#x219;" horiz-adv-x="989" 
d="M496 1124q191 0 360 -94v-260q-192 117 -340 117q-129 0 -129 -92q0 -53 43.5 -81t155.5 -65q42 -14 68.5 -23.5t66.5 -27t65.5 -34t55 -42.5t46.5 -54.5t28.5 -67t11.5 -83.5q0 -156 -122 -252t-325 -96q-205 0 -375 105v262q86 -59 182 -94t183 -35q145 0 145 102
q0 51 -39.5 75.5t-158.5 61.5q-51 16 -90 31t-89.5 44.5t-83 64t-56 88t-23.5 117.5q0 151 113.5 242t306.5 91zM674 -197l-338 -295h-152l152 295h338z" />
    <glyph glyph-name="uni021A" unicode="&#x21a;" horiz-adv-x="1142" 
d="M1081 1483v-297h-340v-1186h-340v1186h-340v297h1020zM748 -197l-338 -295h-152l152 295h338z" />
    <glyph glyph-name="uni021B" unicode="&#x21b;" horiz-adv-x="811" 
d="M504 1380v-286h246v-263h-246v-475q0 -118 123 -118q56 0 123 30v-264q-96 -35 -209 -35q-169 0 -268 99t-99 268v495h-143v242h53q53 0 82 29.5t29 83.5v194h309zM670 -197l-338 -295h-152l152 295h338z" />
    <glyph glyph-name="circumflex" unicode="&#x2c6;" horiz-adv-x="1228" 
d="M786 1513l224 -294h-256l-133 159l-142 -159h-256l232 294h331z" />
    <glyph glyph-name="caron" unicode="&#x2c7;" horiz-adv-x="1228" 
d="M1008 1513l-224 -294h-331l-232 294h256l141 -159l134 159h256z" />
    <glyph glyph-name="breve" unicode="&#x2d8;" horiz-adv-x="1228" 
d="M825 1513h144q-14 -138 -103 -216t-252 -78q-162 0 -251 78t-103 216h143q16 -72 73 -104.5t138 -32.5t138 32.5t73 104.5z" />
    <glyph glyph-name="dotaccent" unicode="&#x2d9;" horiz-adv-x="1228" 
d="M616 1532q68 0 116 -48.5t48 -117.5q0 -68 -48 -116t-116 -48q-69 0 -117 48t-48 116q0 69 48 117.5t117 48.5z" />
    <glyph glyph-name="ring" unicode="&#x2da;" horiz-adv-x="1228" 
d="M614 1591q92 0 158 -66t66 -157t-66 -157t-158 -66q-91 0 -157 66t-66 157t66 157t157 66zM614 1464q-40 0 -68 -28t-28 -68t28 -68t68 -28t68.5 28t28.5 68t-28.5 68t-68.5 28z" />
    <glyph glyph-name="ogonek" unicode="&#x2db;" horiz-adv-x="1228" 
d="M561 29h121q-20 -55 -20 -105q0 -119 112 -119q36 0 82 15v-164q-67 -31 -139 -31q-95 0 -159 54t-64 157q0 114 67 193z" />
    <glyph glyph-name="tilde" unicode="&#x2dc;" horiz-adv-x="1228" 
d="M864 1513h133q-6 -136 -66 -217.5t-159 -81.5q-53 0 -116.5 27t-118.5 53.5t-88 26.5q-36 0 -60.5 -26.5t-30.5 -75.5h-129q9 138 71.5 216t158.5 78q54 0 115 -26.5t114 -53t88 -26.5q70 0 88 106z" />
    <glyph glyph-name="hungarumlaut" unicode="&#x2dd;" horiz-adv-x="1228" 
d="M1212 1513l-338 -294h-151l151 294h338zM813 1513l-338 -294h-151l151 294h338z" />
    <glyph glyph-name="uni0326" unicode="&#x326;" 
d="M766 -197l-338 -295h-152l152 295h338z" />
    <glyph glyph-name="uni05B0" unicode="&#x5b0;" 
d="M737 -195v-194h-243v194h243zM737 -584v-194h-243v194h243z" />
    <glyph glyph-name="uni05B1" unicode="&#x5b1;" 
d="M1227 -195v-194h-244v194h244zM494 -584v-194h-244v194h244zM252 -195v-194h-244v194h244zM739 -195v-194h-243v194h243zM1227 -584v-194h-244v194h244z" />
    <glyph glyph-name="uni05B2" unicode="&#x5b2;" 
d="M739 -195v-194h-731v194h731zM1225 -584v-194h-244v194h244zM1225 -195v-194h-244v194h244z" />
    <glyph glyph-name="uni05B3" unicode="&#x5b3;" 
d="M739 -195v-194h-243v-389h-244v389h-244v194h731zM1227 -584v-194h-244v194h244zM1227 -195v-194h-244v194h244z" />
    <glyph glyph-name="uni05B4" unicode="&#x5b4;" 
d="M737 -195v-194h-243v194h243z" />
    <glyph glyph-name="uni05B5" unicode="&#x5b5;" 
d="M981 -195v-194h-244v194h244zM494 -195v-194h-244v194h244z" />
    <glyph glyph-name="uni05B6" unicode="&#x5b6;" 
d="M983 -195v-194h-244v194h244zM739 -584v-194h-243v194h243zM496 -195v-194h-244v194h244z" />
    <glyph glyph-name="uni05B7" unicode="&#x5b7;" 
d="M981 -195v-194h-731v194h731z" />
    <glyph glyph-name="uni05B8" unicode="&#x5b8;" 
d="M981 -195v-194h-244v-389h-243v389h-244v194h731z" />
    <glyph glyph-name="uni05B9" unicode="&#x5b9;" 
d="M737 1513v-194h-243v194h243z" />
    <glyph glyph-name="uni05BA" unicode="&#x5ba;" 
d="M737 1513v-194h-243v194h243z" />
    <glyph glyph-name="uni05BB" unicode="&#x5bb;" 
d="M1227 -584v-194h-244v194h244zM739 -195v-194h-243v194h243zM983 -389v-195h-244v195h244z" />
    <glyph glyph-name="uni05BC" unicode="&#x5bc;" 
d="M737 659v-194h-243v194h243z" />
    <glyph glyph-name="uni05BE" unicode="&#x5be;" horiz-adv-x="911" 
d="M768 1124v-276h-625v276h625z" />
    <glyph glyph-name="uni05C1" unicode="&#x5c1;" 
d="M737 1513v-194h-243v194h243z" />
    <glyph glyph-name="uni05C2" unicode="&#x5c2;" 
d="M737 1513v-194h-243v194h243z" />
    <glyph glyph-name="uni05C7" unicode="&#x5c7;" 
d="M981 -195v-194h-244v-389h-243v389h-244v194h731z" />
    <glyph glyph-name="uni05D0" unicode="&#x5d0;" horiz-adv-x="1331" 
d="M1255 1124l-36 -184q-18 -89 -38 -149t-55 -118.5t-90.5 -98t-134.5 -64.5l379 -510h-395l-334 449q-29 -25 -47 -66t-23.5 -70t-15.5 -92l-35 -221h-354l49 246q13 63 24.5 107t33 94t48.5 85t70 67t98 54l-348 471h395l312 -419q23 12 40.5 26.5t29.5 35.5t19.5 37
t14.5 48t10 49.5t9 59.5l24 163h350z" />
    <glyph glyph-name="uni05D1" unicode="&#x5d1;" horiz-adv-x="1208" 
d="M102 1124h480q132 0 225 -54.5t137 -149.5q39 -88 39 -248v-396h184v-276h-1075v276h553v412q0 160 -151 160h-392v276z" />
    <glyph glyph-name="uni05D2" unicode="&#x5d2;" horiz-adv-x="894" 
d="M737 1124v-542q0 -106 1 -147.5t9 -113.5t25 -137l51 -184h-315q-35 104 -49 162h-4l-373 -211v334l324 180q-3 59 -3 133v252h-266v274h600z" />
    <glyph glyph-name="uni05D3" unicode="&#x5d3;" horiz-adv-x="1208" 
d="M1137 1124v-276h-246v-848h-338v848h-492v276h1076z" />
    <glyph glyph-name="uni05D4" unicode="&#x5d4;" horiz-adv-x="1280" 
d="M113 1124h663q132 0 225.5 -54.5t137.5 -149.5q39 -88 39 -248v-672h-338v688q0 80 -40 120t-114 40h-573v276zM451 571v-571h-338v571h338z" />
    <glyph glyph-name="uni05D5" unicode="&#x5d5;" horiz-adv-x="669" 
d="M557 1124v-1124h-342v848h-123v276h465z" />
    <glyph glyph-name="uni05D6" unicode="&#x5d6;" horiz-adv-x="868" 
d="M776 1124v-276h-135q-88 0 -128 -45.5t-40 -116.5q0 -27 5 -59t17.5 -76t24 -81t35 -100.5t40 -106.5t49 -127t52.5 -136h-377q-54 157 -92 295q-41 150 -41 270q0 176 90 283h-204v276h704z" />
    <glyph glyph-name="uni05D7" unicode="&#x5d7;" horiz-adv-x="1341" 
d="M133 1124h705q132 0 225 -54.5t137 -149.5q39 -88 39 -248v-672h-338v688q0 160 -151 160h-279v-848h-338v1124z" />
    <glyph glyph-name="uni05D8" unicode="&#x5d8;" horiz-adv-x="1320" 
d="M854 1135q221 0 313 -144q82 -128 82 -430q0 -139 -45 -254t-129 -192q-154 -144 -399 -144q-212 0 -361 109q-103 76 -158 199t-55 282v563h338v-561q0 -155 70 -237q61 -70 168 -70q124 0 184 92q51 77 51 215q0 61 -2.5 99t-12 78.5t-27.5 62.5t-50.5 36.5t-79.5 14.5
q-59 0 -141 -23v256q131 48 254 48z" />
    <glyph glyph-name="uni05D9" unicode="&#x5d9;" horiz-adv-x="665" 
d="M543 1124v-737h-338v461h-123v276h461z" />
    <glyph glyph-name="uni05DA" unicode="&#x5da;" horiz-adv-x="1073" 
d="M90 1124h471q198 0 287 -71q123 -95 123 -330v-983h-338v868q0 73 -6.5 115t-27 72.5t-57.5 41.5t-100 11h-352v276z" />
    <glyph glyph-name="uni05DB" unicode="&#x5db;" horiz-adv-x="1069" 
d="M92 1124h281q307 0 465.5 -134.5t158.5 -426.5q0 -293 -158.5 -428t-465.5 -135h-291v276h287q286 0 286 287q0 285 -286 285h-277v276z" />
    <glyph glyph-name="uni05DC" unicode="&#x5dc;" horiz-adv-x="1044" 
d="M406 1483v-359h557v-260l-312 -864h-354l307 848h-532v635h334z" />
    <glyph glyph-name="uni05DD" unicode="&#x5dd;" horiz-adv-x="1320" 
d="M113 1124h704q132 0 225.5 -54.5t137.5 -149.5q39 -88 39 -248v-672h-1106v1124zM731 848h-282v-572h434v412q0 80 -40 120t-112 40z" />
    <glyph glyph-name="uni05DE" unicode="&#x5de;" horiz-adv-x="1433" 
d="M866 1139q196 0 328 -117q162 -143 168 -397q8 -356 -168 -516q-140 -129 -410 -129q-54 0 -116 6v270q20 -2 59 -2q179 0 242 84q57 76 57 225q0 137 -53.5 218t-157.5 81q-121 0 -188 -114q-42 -72 -65 -188.5t-52 -352.5l-25 -207h-335q31 326 102 739l-211 385h385
l88 -147q53 65 113 100q105 62 239 62z" />
    <glyph glyph-name="uni05DF" unicode="&#x5df;" horiz-adv-x="679" 
d="M557 1124v-1384h-342v1108h-123v276h465z" />
    <glyph glyph-name="uni05E0" unicode="&#x5e0;" horiz-adv-x="798" 
d="M686 1124v-712q0 -146 -35 -226q-39 -87 -123.5 -136.5t-203.5 -49.5h-242v276h139q127 0 127 134v438h-246v276h584z" />
    <glyph glyph-name="uni05E1" unicode="&#x5e1;" horiz-adv-x="1325" 
d="M113 1124h565q266 0 412 -125q170 -144 170 -430q0 -284 -170 -446q-158 -152 -402 -152q-256 0 -416 160q-159 159 -159 430v563zM678 848h-227v-287q0 -152 61 -227q61 -80 178 -80t176 82q58 78 58 225q0 146 -62 217q-61 70 -184 70z" />
    <glyph glyph-name="uni05E2" unicode="&#x5e2;" horiz-adv-x="1333" 
d="M881 1124h348q0 -15 1 -61.5t1 -89.5q0 -229 -19 -404q-17 -142 -59 -244.5t-120.5 -177t-201.5 -111t-294 -36.5h-424v276h137h174l-373 848h367l344 -821q41 21 63 70q27 60 41.5 207t14.5 299v245z" />
    <glyph glyph-name="uni05E3" unicode="&#x5e3;" horiz-adv-x="1220" 
d="M82 1124h625q132 0 225 -54.5t137 -149.5q39 -88 39 -248v-932h-338v948q0 80 -40 120t-114 40h-204v-121q0 -66 28.5 -91t87.5 -22v-243q-94 -20 -175.5 -5t-141.5 55.5t-94.5 120t-34.5 189.5v393z" />
    <glyph glyph-name="uni05E4" unicode="&#x5e4;" horiz-adv-x="1232" 
d="M602 1157q268 0 418.5 -147t150.5 -426q0 -288 -166.5 -436t-488.5 -148h-358v272h313q203 0 288 67t85 236q0 308 -250 308q-91 0 -147 -39.5t-56 -110.5q0 -97 123 -125v-258q-49 0 -103 10t-116 37.5t-110.5 69t-80.5 111t-32 157.5q0 194 144.5 308t385.5 114z" />
    <glyph glyph-name="uni05E5" unicode="&#x5e5;" horiz-adv-x="1191" 
d="M1130 1124l-53 -225q-16 -70 -30.5 -116.5t-37.5 -95.5t-52.5 -81t-72.5 -61.5t-101.5 -48.5t-135.5 -31l109 -725h-338l-123 797l-277 587h359l207 -452q32 11 55 27.5t36 31t23 40t13.5 42.5t10 52t11.5 55l47 204h350z" />
    <glyph glyph-name="uni05E6" unicode="&#x5e6;" horiz-adv-x="1200" 
d="M1143 1124l-37 -184q-16 -78 -33 -133t-47.5 -113.5t-79 -100.5t-115.5 -69l209 -282v-242h-952v279h543l-631 845h387l293 -395q37 30 52.5 76.5t30.5 135.5q2 13 3 20l27 163h350z" />
    <glyph glyph-name="uni05E7" unicode="&#x5e7;" horiz-adv-x="1290" 
d="M1208 1124v-272l-290 -852h-349l283 848h-729v276h1085zM459 571v-831h-336v831h336z" />
    <glyph glyph-name="uni05E8" unicode="&#x5e8;" horiz-adv-x="1054" 
d="M72 1124h481q130 0 222.5 -53.5t137.5 -150.5q39 -88 39 -248v-672h-338v688q0 160 -151 160h-391v276z" />
    <glyph glyph-name="uni05E9" unicode="&#x5e9;" horiz-adv-x="1617" 
d="M1505 1124v-462q0 -392 -248 -568q-174 -123 -452 -123q-275 0 -449 125q-243 175 -243 566v462h319v-489q0 -42 2 -62q58 17 97.5 38t63.5 44.5t37 57.5t17 67.5t4 83.5v260h312v-272q0 -103 -25 -182.5t-64.5 -130t-100.5 -87t-121 -55t-138 -32.5q41 -47 86 -72
q85 -49 207 -49q125 0 211 51q166 99 166 340v489h319z" />
    <glyph glyph-name="uni05EA" unicode="&#x5ea;" horiz-adv-x="1482" 
d="M82 1124h897q132 0 225 -54.5t137 -149.5q39 -84 39 -246v-674h-338v688q0 80 -39.5 120t-111.5 40h-225v-432q0 -85 -15 -153t-44 -114t-65.5 -79t-84 -50.5t-95.5 -25.5t-104 -8q-93 0 -174 22v254q54 -8 88 -8q78 0 117 42t39 163v389h-246v276z" />
    <glyph glyph-name="gereshhb" unicode="&#x5f3;" horiz-adv-x="827" 
d="M705 1124l-398 -499h-184l209 499h373z" />
    <glyph glyph-name="gershayimhb" unicode="&#x5f4;" horiz-adv-x="1312" 
d="M1190 1124l-397 -499h-185l209 499h373zM705 1124l-398 -499h-184l209 499h373z" />
    <glyph glyph-name="Wgrave" unicode="&#x1e80;" horiz-adv-x="2437" 
d="M2386 1483l-490 -1483h-331l-346 961l-347 -961h-331l-490 1483h365l301 -994l358 994h287l358 -994l301 994h365zM1135 1952l151 -295h-151l-338 295h338z" />
    <glyph glyph-name="wgrave" unicode="&#x1e81;" horiz-adv-x="1888" 
d="M1909 1094l-467 -1094h-209l-289 621l-289 -621h-209l-466 1094h329l256 -594l273 594h213l274 -594l254 594h330zM864 1585l152 -295h-152l-338 295h338z" />
    <glyph glyph-name="Wacute" unicode="&#x1e82;" horiz-adv-x="2437" 
d="M2386 1483l-490 -1483h-331l-346 961l-347 -961h-331l-490 1483h365l301 -994l358 994h287l358 -994l301 994h365zM1634 1952l-338 -295h-151l151 295h338z" />
    <glyph glyph-name="wacute" unicode="&#x1e83;" horiz-adv-x="1888" 
d="M1909 1094l-467 -1094h-209l-289 621l-289 -621h-209l-466 1094h329l256 -594l273 594h213l274 -594l254 594h330zM1364 1585l-338 -295h-152l152 295h338z" />
    <glyph glyph-name="Wdieresis" unicode="&#x1e84;" horiz-adv-x="2437" 
d="M2386 1483l-490 -1483h-331l-346 961l-347 -961h-331l-490 1483h365l301 -994l358 994h287l358 -994l301 994h365zM1454 1966q68 0 115 -47t47 -115q0 -66 -47.5 -112.5t-114.5 -46.5q-66 0 -113 46.5t-47 112.5q0 67 47 114.5t113 47.5zM977 1966q66 0 113 -47.5
t47 -114.5q0 -66 -47 -112.5t-113 -46.5q-67 0 -114.5 46.5t-47.5 112.5q0 68 47.5 115t114.5 47z" />
    <glyph glyph-name="wdieresis" unicode="&#x1e85;" horiz-adv-x="1888" 
d="M1909 1094l-467 -1094h-209l-289 621l-289 -621h-209l-466 1094h329l256 -594l273 594h213l274 -594l254 594h330zM1184 1599q68 0 115 -47t47 -114q0 -66 -47.5 -113t-114.5 -47q-66 0 -113 47t-47 113q0 67 47 114t113 47zM707 1599q66 0 112.5 -47t46.5 -114
q0 -66 -46.5 -113t-112.5 -47q-67 0 -114.5 47t-47.5 113q0 67 47 114t115 47z" />
    <glyph glyph-name="Ygrave" unicode="&#x1ef2;" horiz-adv-x="1392" 
d="M1393 1483l-529 -803v-680h-336v680l-528 803h379l317 -496l318 496h379zM616 1952l152 -295h-152l-337 295h337z" />
    <glyph glyph-name="ygrave" unicode="&#x1ef3;" horiz-adv-x="1241" 
d="M1241 1094l-735 -1586h-334l281 609l-453 977h330l291 -633l290 633h330zM539 1585l151 -295h-151l-338 295h338z" />
    <glyph glyph-name="endash" unicode="&#x2013;" horiz-adv-x="1501" 
d="M1358 766v-262h-1215v262h1215z" />
    <glyph glyph-name="emdash" unicode="&#x2014;" horiz-adv-x="2433" 
d="M2269 766v-262h-2105v262h2105z" />
    <glyph glyph-name="quoteleft" unicode="&#x2018;" horiz-adv-x="827" 
d="M705 1483l-209 -500h-373l397 500h185z" />
    <glyph glyph-name="quoteright" unicode="&#x2019;" horiz-adv-x="827" 
d="M705 1483l-398 -500h-184l209 500h373z" />
    <glyph glyph-name="quotesinglbase" unicode="&#x201a;" horiz-adv-x="827" 
d="M705 336l-398 -500h-184l209 500h373z" />
    <glyph glyph-name="quotedblleft" unicode="&#x201c;" horiz-adv-x="1312" 
d="M1190 1483l-209 -500h-373l398 500h184zM705 1483l-209 -500h-373l397 500h185z" />
    <glyph glyph-name="quotedblright" unicode="&#x201d;" horiz-adv-x="1312" 
d="M1190 1483l-397 -500h-185l209 500h373zM705 1483l-398 -500h-184l209 500h373z" />
    <glyph glyph-name="quotedblbase" unicode="&#x201e;" horiz-adv-x="1271" 
d="M1169 336l-397 -500h-184l209 500h372zM684 336l-397 -500h-185l209 500h373z" />
    <glyph glyph-name="dagger" unicode="&#x2020;" horiz-adv-x="1089" 
d="M662 1483v-492h325v-213h-325v-1081h-234v1081h-326v213h326v492h234z" />
    <glyph glyph-name="daggerdbl" unicode="&#x2021;" horiz-adv-x="1228" 
d="M662 1483v-492h325v-213h-325v-377h325v-213h-325v-491h-234v491h-326v213h326v377h-326v213h326v492h234z" />
    <glyph glyph-name="bullet" unicode="&#x2022;" horiz-adv-x="1046" 
d="M524 913q131 0 224.5 -93.5t93.5 -223.5q0 -132 -93.5 -226t-224.5 -94q-132 0 -225.5 94t-93.5 226q0 131 93.5 224t225.5 93z" />
    <glyph glyph-name="ellipsis" unicode="&#x2026;" horiz-adv-x="2138" 
d="M1819 354q77 0 131.5 -55t54.5 -131t-54.5 -131t-131.5 -55t-132 55t-55 131t55 131t132 55zM319 354q77 0 132 -55t55 -131t-55 -131t-132 -55t-131.5 55t-54.5 131t54.5 131t131.5 55zM1069 354q77 0 131.5 -55t54.5 -131t-54.5 -131t-131.5 -55t-131.5 55t-54.5 131
t54.5 131t131.5 55z" />
    <glyph glyph-name="perthousand" unicode="&#x2030;" horiz-adv-x="2377" 
d="M1401 1483l-1018 -1483h-170l1018 1483h170zM1182 629q137 0 233 -96t96 -234q0 -135 -96.5 -232.5t-232.5 -97.5t-233 97.5t-97 232.5q0 138 96.5 234t233.5 96zM1182 453q-62 0 -104 -44t-42 -110q0 -62 43 -108t103 -46q61 0 103 44.5t42 109.5q0 63 -42.5 108.5
t-102.5 45.5zM432 1513q137 0 233.5 -95.5t96.5 -233.5q0 -135 -97 -232.5t-233 -97.5t-233 97.5t-97 232.5q0 138 96.5 233.5t233.5 95.5zM432 1337q-62 0 -103.5 -43.5t-41.5 -109.5q0 -62 42.5 -108t102.5 -46q61 0 103.5 44.5t42.5 109.5q0 63 -43 108t-103 45z
M1946 629q137 0 233 -96t96 -234q0 -135 -96.5 -232.5t-232.5 -97.5t-233 97.5t-97 232.5q0 138 96.5 234t233.5 96zM1946 453q-62 0 -104 -44t-42 -110q0 -62 43 -108t103 -46q61 0 103 44.5t42 109.5q0 63 -42.5 108.5t-102.5 45.5z" />
    <glyph glyph-name="guilsinglleft" unicode="&#x2039;" horiz-adv-x="985" 
d="M821 1008l-323 -455l323 -455h-327l-330 455l330 455h327z" />
    <glyph glyph-name="guilsinglright" unicode="&#x203a;" horiz-adv-x="985" 
d="M494 1008l327 -455l-327 -455h-330l325 455l-325 455h330z" />
    <glyph glyph-name="fraction" unicode="&#x2044;" horiz-adv-x="1325" 
d="M1325 1483l-1012 -1483h-313l1018 1483h307z" />
    <glyph glyph-name="uni20AA" unicode="&#x20aa;" horiz-adv-x="2412" 
d="M2300 1124v-462q0 -392 -248 -568q-174 -123 -453 -123q-274 0 -448 125q-244 176 -244 566v26q0 160 -151 160h-285v-848h-338v1124h692q132 0 227 -55.5t136 -148.5q39 -89 39 -218v-67q0 -42 2 -62q58 17 97.5 38t63.5 44.5t37 57.5t17 67.5t4 83.5v260h311v-272
q0 -103 -25 -182.5t-64 -130t-100 -87t-121 -55t-138 -32.5q41 -47 86 -72q85 -49 207 -49q125 0 211 51q165 99 165 340v489h320z" />
    <glyph glyph-name="Euro" unicode="&#x20ac;" horiz-adv-x="1583" 
d="M1085 1513q192 0 365 -81l-117 -302q-109 76 -248 76q-111 0 -206 -50.5t-156 -143.5h565l-78 -205h-559q-4 -32 -4 -64q0 -45 6 -86h500l-78 -204h-340q60 -84 151.5 -130.5t198.5 -46.5q154 0 273 95v-357q-125 -45 -271 -45q-246 0 -448.5 128.5t-286.5 355.5h-260
l78 204h137q-4 46 -4 88q0 26 1 42t1 20h-211l74 205h178q52 155 165 269.5t261 173t313 58.5z" />
    <glyph glyph-name="trademark" unicode="&#x2122;" horiz-adv-x="2195" 
d="M1901 1483l90 -848h-195l-59 559l-238 -576h-139l-238 576l-59 -559h-195l90 848h244l228 -555l227 555h244zM786 1483v-170h-194v-678h-193v678h-194v170h581z" />
    <glyph glyph-name="partialdiff" unicode="&#x2202;" horiz-adv-x="1368" 
 />
    <glyph glyph-name="emptyset" unicode="&#x2205;" horiz-adv-x="1400" 
d="M1147 1352l182 -181l-135 -135q92 -148 92 -313q0 -156 -78.5 -291t-214 -215t-293.5 -80q-170 0 -313 94l-135 -135l-180 180l135 136q-92 140 -92 311q0 156 78.5 291t213.5 215t293 80q167 0 312 -92zM700 1040q-136 0 -229.5 -91.5t-93.5 -225.5q0 -61 22 -119
l416 416q-50 20 -115 20zM997 842l-413 -414q53 -20 116 -20q134 0 227 90.5t93 224.5q0 58 -23 119z" />
    <glyph glyph-name="product" unicode="&#x220f;" horiz-adv-x="1572" 
d="M1450 1483v-283h-115v-1200h-319v1200h-455v-1200h-328v1200h-110v283h1327z" />
    <glyph glyph-name="summation" unicode="&#x2211;" horiz-adv-x="1359" 
d="M1257 1483v-291h-632l460 -461l-469 -442h639v-289h-1112v272l492 461l-492 481v269h1114z" />
    <glyph glyph-name="minus" unicode="&#x2212;" horiz-adv-x="1585" 
d="M1421 854v-260l-1257 2v258h1257z" />
    <glyph glyph-name="radical" unicode="&#x221a;" horiz-adv-x="1361" 
d="M2001 2019v-272h-676l-608 -1763h-260l-396 1101h342l183 -548l497 1482h918z" />
    <glyph glyph-name="infinity" unicode="&#x221e;" horiz-adv-x="1652" 
d="M1112 1102q161 0 269 -102t108 -275q0 -174 -108.5 -277.5t-268.5 -103.5q-170 0 -285 145q-118 -145 -286 -145q-159 0 -268 104t-109 277t108.5 275t268.5 102q175 0 286 -144q59 68 134 106t151 38zM549 883q-70 0 -111 -44t-41 -114q0 -73 41 -116.5t111 -43.5
q92 0 162 158q-73 160 -162 160zM1104 883q-86 0 -162 -160q74 -158 162 -158q70 0 110.5 43.5t40.5 116.5q0 70 -41 114t-110 44z" />
    <glyph glyph-name="integral" unicode="&#x222b;" horiz-adv-x="1003" 
d="M760 1698q108 0 182 -27v-260q-59 19 -104 19q-58 0 -89.5 -30t-31.5 -89v-1127q0 -170 -98.5 -268t-272.5 -98q-111 0 -182 26v260q56 -18 104 -18q119 0 119 119v1126q0 170 99.5 268.5t273.5 98.5z" />
    <glyph glyph-name="approxequal" unicode="&#x2248;" horiz-adv-x="1519" 
d="M514 1204q59 0 115.5 -18t150.5 -60q99 -44 148.5 -60.5t97.5 -16.5q66 0 131.5 34t157.5 115v-262q-143 -143 -297 -143q-115 0 -277 75q-65 30 -96 43t-73.5 25t-77.5 12q-64 0 -127.5 -35t-161.5 -118v266q91 76 163.5 109.5t145.5 33.5zM514 727q57 0 111.5 -18
t154.5 -62q94 -42 148 -60t102 -18q63 0 127 34.5t158 115.5v-260q-138 -144 -297 -144q-108 0 -277 76q-66 30 -98 43t-74.5 25t-76.5 12q-62 0 -125 -35t-162 -119v265q92 76 164.5 110.5t144.5 34.5z" />
    <glyph glyph-name="notequal" unicode="&#x2260;" horiz-adv-x="1421" 
d="M1257 1317l-145 -205h145v-258h-329l-187 -258h516v-258h-700l-145 -205h-248l145 205h-145v258h330l184 258h-514v258h698l146 205h249z" />
    <glyph glyph-name="lessequal" unicode="&#x2264;" horiz-adv-x="1222" 
d="M1018 1380v-278l-453 -182l453 -187v-278l-813 360v201zM1018 356v-241h-813v241h813z" />
    <glyph glyph-name="greaterequal" unicode="&#x2265;" horiz-adv-x="1222" 
d="M205 1380l813 -364v-201l-813 -360v278l452 187l-452 182v278zM1018 356v-241h-813v241h813z" />
    <glyph glyph-name="lozenge" unicode="&#x25ca;" horiz-adv-x="1478" 
d="M868 1499l408 -756l-408 -759h-258l-405 759l405 756h258zM739 1178l-221 -435l221 -438l224 438z" />
    <glyph glyph-name="uniFB2A" unicode="&#xfb2a;" horiz-adv-x="1617" 
d="M1505 1124v-462q0 -392 -248 -568q-174 -123 -452 -123q-275 0 -449 125q-243 175 -243 566v462h319v-489q0 -42 2 -62q58 17 97.5 38t63.5 44.5t37 57.5t17 67.5t4 83.5v260h312v-272q0 -103 -25 -182.5t-64.5 -130t-100.5 -87t-121 -55t-138 -32.5q41 -47 86 -72
q85 -49 207 -49q125 0 211 51q166 99 166 340v489h319zM1505 1444v-195h-319v195h319z" />
    <glyph glyph-name="uniFB2B" unicode="&#xfb2b;" horiz-adv-x="1617" 
d="M1505 1124v-462q0 -392 -248 -568q-174 -123 -452 -123q-275 0 -449 125q-243 175 -243 566v462h319v-489q0 -42 2 -62q58 17 97.5 38t63.5 44.5t37 57.5t17 67.5t4 83.5v260h312v-272q0 -103 -25 -182.5t-64.5 -130t-100.5 -87t-121 -55t-138 -32.5q41 -47 86 -72
q85 -49 207 -49q125 0 211 51q166 99 166 340v489h319zM432 1444v-195h-319v195h319z" />
    <glyph glyph-name="shindageshshindothb" unicode="&#xfb2c;" horiz-adv-x="1617" 
d="M1505 1124v-462q0 -392 -248 -568q-174 -123 -452 -123q-275 0 -449 125q-243 175 -243 566v462h319v-489q0 -42 2 -62q58 17 97.5 38t63.5 44.5t37 57.5t17 67.5t4 83.5v260h312v-272q0 -158 -60 -268h172v-176h-180v163q-57 -91 -152 -137t-229 -69q41 -47 86 -72
q85 -49 207 -49q125 0 211 51q166 99 166 340v489h319zM1505 1444v-195h-319v195h319z" />
    <glyph glyph-name="shindageshsindothb" unicode="&#xfb2d;" horiz-adv-x="1617" 
d="M1505 1124v-462q0 -392 -248 -568q-174 -123 -452 -123q-275 0 -449 125q-243 175 -243 566v462h319v-489q0 -42 2 -62q58 17 97.5 38t63.5 44.5t37 57.5t17 67.5t4 83.5v260h312v-272q0 -158 -60 -268h172v-176h-180v163q-57 -91 -152 -137t-229 -69q41 -47 86 -72
q85 -49 207 -49q125 0 211 51q166 99 166 340v489h319zM432 1444v-195h-319v195h319z" />
    <glyph glyph-name="alefpatahhb" unicode="&#xfb2e;" horiz-adv-x="1331" 
d="M1255 1124l-36 -184q-18 -89 -38 -149t-55 -118.5t-90.5 -98t-134.5 -64.5l379 -510h-395l-334 449q-29 -25 -47 -66t-23.5 -70t-15.5 -92l-35 -221h-354l49 246q13 63 24.5 107t33 94t48.5 85t70 67t98 54l-348 471h395l312 -419q23 12 40.5 26.5t29.5 35.5t19.5 37
t14.5 48t10 49.5t9 59.5l24 163h350zM1034 -195v-194h-735v194h735z" />
    <glyph glyph-name="alefqamatshb" unicode="&#xfb2f;" horiz-adv-x="1331" 
d="M1255 1124l-36 -184q-18 -89 -38 -149t-55 -118.5t-90.5 -98t-134.5 -64.5l379 -510h-395l-334 449q-29 -25 -47 -66t-23.5 -70t-15.5 -92l-35 -221h-354l49 246q13 63 24.5 107t33 94t48.5 85t70 67t98 54l-348 471h395l312 -419q23 12 40.5 26.5t29.5 35.5t19.5 37
t14.5 48t10 49.5t9 59.5l24 163h350zM1034 -195v-194h-246v-389h-243v389h-246v194h735z" />
    <glyph glyph-name="alefdageshhb" unicode="&#xfb30;" horiz-adv-x="1331" 
d="M1255 1124l-36 -184q-18 -89 -38 -149t-55 -118.5t-90.5 -98t-134.5 -64.5l379 -510h-395l-334 449q-29 -25 -47 -66t-23.5 -70t-15.5 -92l-35 -221h-354l49 246q13 63 24.5 107t33 94t48.5 85t70 67t98 54l-348 471h395l312 -419q23 12 40.5 26.5t29.5 35.5t19.5 37
t14.5 48t10 49.5t9 59.5l24 163h350zM809 1124v-176h-180v176h180z" />
    <glyph glyph-name="betdageshhb" unicode="&#xfb31;" horiz-adv-x="1208" 
d="M102 1124h480q132 0 225 -54.5t137 -149.5q39 -88 39 -248v-396h184v-276h-1075v276h553v412q0 160 -151 160h-392v276zM436 653v-176h-200v176h200z" />
    <glyph glyph-name="gimeldageshhb" unicode="&#xfb32;" horiz-adv-x="874" 
d="M717 1124v-542q0 -106 1 -147.5t9 -113.5t25 -137l51 -184h-316q-35 104 -49 162h-4l-373 -211v334l324 180q-2 39 -2 133v252h-266v274h600zM240 696v-176h-201v176h201z" />
    <glyph glyph-name="daletdageshhb" unicode="&#xfb33;" horiz-adv-x="1208" 
d="M1137 1124v-276h-246v-848h-338v848h-492v276h1076zM379 653v-176h-201v176h201z" />
    <glyph glyph-name="hedageshhb" unicode="&#xfb34;" horiz-adv-x="1269" 
d="M113 1124h663q132 0 225.5 -54.5t137.5 -149.5q39 -88 39 -248v-672h-338v688q0 80 -40 120t-114 40h-573v276zM451 571v-571h-338v571h338zM739 705v-177h-200v177h200z" />
    <glyph glyph-name="uniFB35" unicode="&#xfb35;" horiz-adv-x="716" 
d="M604 1124v-1124h-342v848h-123v276h465zM113 653v-176h-201v176h201z" />
    <glyph glyph-name="zayindageshhb" unicode="&#xfb36;" horiz-adv-x="868" 
d="M776 1124v-276h-135q-88 0 -128 -45.5t-40 -116.5q0 -27 5 -59t17.5 -76t24 -81t35 -100.5t40 -106.5t49 -127t52.5 -136h-377q-54 157 -92 295q-41 150 -41 270q0 176 90 283h-204v276h704zM827 680v-176h-200v176h200z" />
    <glyph glyph-name="tetdageshhb" unicode="&#xfb38;" horiz-adv-x="1320" 
d="M854 1135q221 0 313 -144q82 -128 82 -430q0 -139 -45 -254t-129 -192q-154 -144 -399 -144q-212 0 -361 109q-103 76 -158 199t-55 282v563h338v-561q0 -155 70 -237q61 -70 168 -70q124 0 184 92q51 77 51 215q0 61 -2.5 99t-12 78.5t-27.5 62.5t-50.5 36.5t-79.5 14.5
q-59 0 -141 -23v256q131 48 254 48zM772 647v-176h-201v176h201z" />
    <glyph glyph-name="yoddageshhb" unicode="&#xfb39;" horiz-adv-x="708" 
d="M596 1124v-737h-338v461h-123v276h461zM115 713v-176h-201v176h201z" />
    <glyph glyph-name="finalkafdageshhb" unicode="&#xfb3a;" horiz-adv-x="1073" 
d="M90 1124h471q198 0 287 -71q123 -95 123 -330v-983h-338v868q0 73 -6.5 115t-27 72.5t-57.5 41.5t-100 11h-352v276zM422 606v-176h-201v176h201z" />
    <glyph glyph-name="kafdageshhb" unicode="&#xfb3b;" horiz-adv-x="1048" 
d="M82 1124h280q307 0 466 -135t159 -426q0 -293 -159 -428t-466 -135h-290v276h286q287 0 287 287q0 285 -287 285h-276v276zM399 653v-176h-200v176h200z" />
    <glyph glyph-name="lameddageshhb" unicode="&#xfb3c;" horiz-adv-x="1044" 
d="M406 1483v-359h557v-260l-312 -864h-354l307 848h-532v635h334zM344 696v-176h-201v176h201z" />
    <glyph glyph-name="memdageshhb" unicode="&#xfb3e;" horiz-adv-x="1413" 
d="M866 1139q196 0 328 -117q162 -143 168 -397q8 -356 -168 -516q-140 -129 -410 -129q-54 0 -116 6v270q20 -2 59 -2q179 0 242 84q57 76 57 225q0 137 -53.5 218t-157.5 81q-121 0 -188 -114q-42 -72 -65 -188.5t-52 -352.5l-25 -207h-335q31 326 102 739l-211 385h385
l88 -147q53 65 113 100q105 62 239 62zM891 633v-176h-201v176h201z" />
    <glyph glyph-name="nundageshhb" unicode="&#xfb40;" horiz-adv-x="815" 
d="M713 1124v-712q0 -146 -35 -226q-39 -87 -124 -136.5t-204 -49.5h-241v276h139q127 0 127 134v438h-246v276h584zM250 653v-176h-201v176h201z" />
    <glyph glyph-name="samekhdageshhb" unicode="&#xfb41;" horiz-adv-x="1316" 
d="M113 1124h565q266 0 412 -125q170 -144 170 -430q0 -284 -170 -446q-158 -152 -402 -152q-256 0 -416 160q-159 159 -159 430v563zM678 848h-227v-287q0 -152 61 -227q61 -80 178 -80t176 82q58 78 58 225q0 146 -62 217q-61 70 -184 70zM780 653v-176h-200v176h200z" />
    <glyph glyph-name="finalpedageshhb" unicode="&#xfb43;" horiz-adv-x="1214" 
d="M82 1124h625q132 0 225 -54.5t137 -149.5q39 -88 39 -248v-932h-338v948q0 80 -40 120t-114 40h-204v-121q0 -60 24 -85.5t72 -27.5v140h180v-176h-160v-207q-94 -20 -175.5 -5t-141.5 55.5t-94.5 120t-34.5 189.5v393z" />
    <glyph glyph-name="pedageshhb" unicode="&#xfb44;" horiz-adv-x="1232" 
d="M602 1157q268 0 418.5 -147t150.5 -426q0 -288 -166.5 -436t-488.5 -148h-358v272h313q203 0 288 67t85 236q0 308 -250 308q-91 0 -147 -39.5t-56 -110.5q0 -97 123 -125v-258q-49 0 -103 10t-116 37.5t-110.5 69t-80.5 111t-32 157.5q0 194 144.5 308t385.5 114z
M760 702v-176h-180v176h180z" />
    <glyph glyph-name="tsadidageshhb" unicode="&#xfb46;" horiz-adv-x="1200" 
d="M1143 1124l-37 -184q-16 -78 -33 -133t-47.5 -113.5t-79 -100.5t-115.5 -69l209 -282v-242h-952v279h543l-631 845h387l293 -395q37 30 52.5 76.5t30.5 135.5q2 13 3 20l27 163h350zM289 598v-176h-201v176h201z" />
    <glyph glyph-name="qofdageshhb" unicode="&#xfb47;" horiz-adv-x="1290" 
d="M1208 1124v-272l-290 -852h-349l283 848h-729v276h1085zM459 571v-831h-336v831h336zM684 745v-176h-180v176h180z" />
    <glyph glyph-name="reshdageshhb" unicode="&#xfb48;" horiz-adv-x="1044" 
d="M72 1124h481q130 0 222.5 -53.5t137.5 -150.5q39 -88 39 -248v-672h-338v688q0 160 -151 160h-391v276zM414 653v-176h-201v176h201z" />
    <glyph glyph-name="shindageshhb" unicode="&#xfb49;" horiz-adv-x="1617" 
d="M1505 1124v-462q0 -392 -248 -568q-174 -123 -452 -123q-275 0 -449 125q-243 175 -243 566v462h319v-489q0 -42 2 -62q58 17 97.5 38t63.5 44.5t37 57.5t17 67.5t4 83.5v260h312v-272q0 -158 -60 -268h172v-176h-180v163q-57 -91 -152 -137t-229 -69q41 -47 86 -72
q85 -49 207 -49q125 0 211 51q166 99 166 340v489h319z" />
    <glyph glyph-name="tavdageshhb" unicode="&#xfb4a;" horiz-adv-x="1462" 
d="M72 1124h897q132 0 225 -54.5t137 -149.5q39 -84 39 -246v-674h-338v688q0 80 -39.5 120t-111.5 40h-226v-432q0 -102 -22.5 -179t-59.5 -124t-91 -76t-110 -40t-124 -11q-93 0 -174 22v254q54 -8 88 -8q78 0 116.5 42t38.5 163v389h-245v276zM930 592v-176h-180v176h180
z" />
    <glyph glyph-name="uniFB4B" unicode="&#xfb4b;" horiz-adv-x="669" 
d="M557 1124v-1124h-342v848h-123v276h465zM557 1513v-194h-319v194h319z" />
    <glyph glyph-name="i.loclTRK" horiz-adv-x="616" 
d="M473 1094v-1094h-330v1094h330zM313 1604q68 0 116 -48.5t48 -117.5q0 -68 -48.5 -116t-115.5 -48q-69 0 -117.5 48t-48.5 116q0 69 48.5 117.5t117.5 48.5z" />
    <glyph glyph-name="f_b" horiz-adv-x="2172" 
d="M643 1632q175 0 375 -47h278v-594h4q110 133 304 133q114 0 210 -49t157.5 -130t95.5 -184t34 -214q0 -89 -21.5 -173.5t-63.5 -157.5t-101 -128.5t-138.5 -87t-170.5 -31.5q-114 0 -197 47t-129 129l-84 -145h-231v1294q-164 54 -283 54q-158 0 -158 -125v-129h246v-269
h-246v-825h-329v825h-123v269h123v166q0 194 115 283t333 89zM1532 850q-115 0 -176.5 -86.5t-61.5 -216.5q0 -132 61.5 -218.5t176.5 -86.5q113 0 174 86.5t61 218.5q0 130 -61 216.5t-174 86.5z" />
    <glyph glyph-name="f_f_b" horiz-adv-x="2942" 
d="M1413 1632q175 0 375 -47h278v-594h5q110 133 303 133q114 0 210 -49t157.5 -130t95.5 -184t34 -214q0 -89 -21.5 -173.5t-63.5 -157.5t-101 -128.5t-138.5 -87t-170.5 -31.5q-114 0 -197 47t-129 129l-84 -145h-231v1294q-164 54 -283 54q-158 0 -158 -125v-127h246
v-271h-246v-825h-329v825h-441v-825h-329v825h-123v269h123v159q0 169 98.5 268t267.5 99q142 0 250 -51v-271q-103 50 -164 50q-123 0 -123 -119v-135h441v166q0 194 115 283t333 89zM2302 850q-115 0 -176.5 -86.5t-61.5 -216.5q0 -132 61.5 -218.5t176.5 -86.5
q113 0 174 86.5t61 218.5q0 130 -61 216.5t-174 86.5z" />
    <glyph glyph-name="f_f_h" horiz-adv-x="2879" 
d="M1413 1632q175 0 375 -47h278v-592q51 69 133.5 102t172.5 33q183 0 294 -125.5t111 -326.5v-676h-334v569q0 45 -2 77t-12.5 73t-28.5 66t-53 43t-84 18q-45 0 -79.5 -13.5t-55 -39.5t-33.5 -52t-18.5 -61.5t-7 -58.5t-1.5 -52v-569h-333v1294q-164 54 -283 54
q-158 0 -158 -125v-127h246v-271h-246v-825h-329v825h-441v-825h-329v825h-123v269h123v159q0 169 98.5 268t267.5 99q142 0 250 -51v-271q-103 50 -164 50q-123 0 -123 -119v-135h441v166q0 194 115 283t333 89z" />
    <glyph glyph-name="f_f_j" horiz-adv-x="2187" 
d="M1331 1616q113 0 209 -35v-264q-69 31 -123 31q-123 0 -123 -119v-135h770v-1246q0 -169 -98.5 -267.5t-267.5 -98.5q-94 0 -189 29v262q59 -23 105 -23q58 0 89.5 30t31.5 89v956h-441v-825h-329v825h-441v-825h-329v825h-123v269h123v155q0 169 98.5 268t267.5 99
q113 0 209 -35v-264q-69 31 -123 31q-123 0 -123 -119v-135h441v155q0 169 98.5 268t267.5 99zM2064 1513v-270h-333v270h333z" />
    <glyph glyph-name="f_f_k" horiz-adv-x="2834" 
d="M1413 1632q175 0 375 -47h278v-989l392 498h381l-433 -547l443 -547h-393l-390 492v-492h-331v1294q-164 54 -283 54q-158 0 -158 -125v-127h246v-271h-246v-825h-329v825h-441v-825h-329v825h-123v269h123v159q0 169 98.5 268t267.5 99q142 0 250 -51v-271
q-103 50 -164 50q-123 0 -123 -119v-135h441v166q0 194 115 283t333 89z" />
    <glyph glyph-name="f_f_t" horiz-adv-x="2363" 
d="M1329 1616q113 0 209 -35v-264q-69 31 -123 31q-123 0 -123 -119v-139h344q53 0 82 29t29 83v178h309v-286h246v-263h-246v-475q0 -118 123 -118q56 0 123 30v-264q-96 -35 -209 -35q-169 0 -268 99t-99 268v495h-434v-831h-329v831h-439v-831h-329v831h-123v259h123v159
q0 169 98.5 268t267.5 99q113 0 209 -35v-264q-69 31 -123 31q-123 0 -123 -119v-139h439v159q0 169 98.5 268t267.5 99z" />
    <glyph glyph-name="f_h" horiz-adv-x="2109" 
d="M643 1632q175 0 375 -47h278v-592q51 69 133.5 102t172.5 33q183 0 294 -125.5t111 -326.5v-676h-334v569q0 45 -2 77t-12.5 73t-28.5 66t-53 43t-84 18q-45 0 -79.5 -13.5t-55 -39.5t-33.5 -52t-18.5 -61.5t-7 -58.5t-1.5 -52v-569h-333v1294q-164 54 -283 54
q-158 0 -158 -125v-129h246v-269h-246v-825h-329v825h-123v269h123v166q0 194 115 283t333 89z" />
    <glyph glyph-name="f_j" horiz-adv-x="1417" 
d="M561 1616q113 0 209 -35v-264q-69 31 -123 31q-123 0 -123 -119v-135h770v-1246q0 -169 -98.5 -267.5t-267.5 -98.5q-94 0 -189 29v262q59 -23 105 -23q58 0 89.5 30t31.5 89v956h-441v-825h-329v825h-123v269h123v155q0 169 98.5 268t267.5 99zM1294 1513v-270h-333v270
h333z" />
    <glyph glyph-name="f_k" horiz-adv-x="2066" 
d="M645 1632q175 0 375 -47h278v-989l392 498h381l-433 -547l443 -547h-393l-390 492v-492h-331v1294q-164 54 -283 54q-158 0 -158 -125v-129h246v-269h-246v-825h-329v825h-123v269h123v166q0 194 115 283t333 89z" />
    <glyph glyph-name="f_t" horiz-adv-x="1595" 
d="M561 1616q113 0 209 -35v-264q-69 31 -123 31q-123 0 -123 -119v-139h344q53 0 82 29t29 83v178h309v-286h246v-263h-246v-475q0 -118 123 -118q56 0 123 30v-264q-96 -35 -209 -35q-169 0 -268 99t-99 268v495h-434v-831h-329v831h-123v259h123v159q0 169 98.5 268
t267.5 99z" />
    <glyph glyph-name="t_f" horiz-adv-x="1611" 
d="M1362 1616q113 0 209 -35v-264q-69 31 -123 31q-123 0 -123 -119v-135h246v-263h-246v-831h-330v831h-491v-475q0 -118 123 -118q56 0 123 30v-264q-96 -35 -209 -35q-169 0 -268 99t-99 268v495h-143v242h53q53 0 82 29.5t29 83.5v194h309v-286h491v155q0 169 99 268
t268 99z" />
    <glyph glyph-name="t_i" horiz-adv-x="1445" 
d="M504 1380v-286h796v-1094h-329v831h-467v-475q0 -118 123 -118q56 0 123 30v-264q-96 -35 -209 -35q-169 0 -268 99t-99 268v495h-143v242h53q53 0 82 29.5t29 83.5v194h309zM1303 1513v-270h-334v270h334z" />
    <glyph glyph-name="t_t" horiz-adv-x="1570" 
d="M1264 1380v-286h245v-263h-245v-475q0 -118 122 -118q56 0 123 30v-264q-96 -35 -209 -35q-169 0 -267.5 99t-98.5 268v495h-430v-475q0 -118 123 -118q56 0 123 30v-264q-96 -35 -209 -35q-169 0 -268 99t-99 268v495h-143v242h53q53 0 82 29.5t29 83.5v194h309v-293
h350q100 0 100 113v180h310z" />
    <glyph glyph-name="t_y" horiz-adv-x="2011" 
d="M504 1380v-286h596l291 -633l290 633h330l-735 -1586h-334l281 609l-332 714h-387v-475q0 -118 123 -118q56 0 123 30v-264q-96 -35 -209 -35q-169 0 -268 99t-99 268v495h-143v242h53q53 0 82 29.5t29 83.5v194h309z" />
    <glyph glyph-name="a.sc" horiz-adv-x="1236" 
d="M758 1204l475 -1204h-318l-79 213h-435l-79 -213h-318l475 1204h279zM618 797l-129 -348h261z" />
    <glyph glyph-name="b.sc" horiz-adv-x="1146" 
d="M135 1204l541 2q142 0 242 -100.5t100 -241.5q0 -136 -100 -219q81 -39 129.5 -111t48.5 -172q0 -151 -106 -256.5t-257 -105.5h-598v1204zM635 520h-193v-297h193q60 0 103.5 44.5t43.5 105.5q0 62 -43 104.5t-104 42.5zM594 987h-152v-258h152q52 0 90.5 38t38.5 91
t-38.5 91t-90.5 38z" />
    <glyph glyph-name="c.sc" horiz-adv-x="1138" 
d="M713 1229q177 0 323 -78v-293q-55 42 -136 70t-165 28q-154 0 -257 -96t-103 -260t103 -260t257 -96q84 0 165 28t136 70v-293q-146 -78 -323 -78q-128 0 -245.5 44t-208 123t-144.5 199.5t-54 262.5t54 262.5t144.5 199.5t208 123t245.5 44z" />
    <glyph glyph-name="d.sc" horiz-adv-x="1288" 
d="M135 1204h459q145 0 265 -47t200 -128.5t124 -191.5t44 -235t-44 -235t-124.5 -191.5t-200.5 -128.5t-264 -47h-459v1204zM571 938h-118v-672h118q160 0 253.5 94.5t93.5 241.5t-93 241.5t-254 94.5z" />
    <glyph glyph-name="e.sc" horiz-adv-x="970" 
d="M858 1204v-266h-401v-209h360v-242h-360v-221h401v-266h-725v1204h725z" />
    <glyph glyph-name="f.sc" horiz-adv-x="952" 
d="M860 1204v-266h-401v-209h360v-242h-360v-487h-324v1204h725z" />
    <glyph glyph-name="fi.sc" horiz-adv-x="1540" 
d="M860 1204v-266h-397v-207h356v-246h-356v-485h-328v1204h725zM1397 1204v-1204h-332v1204h332z" />
    <glyph glyph-name="fl.sc" horiz-adv-x="1837" 
d="M860 1204v-266h-397v-207h356v-246h-356v-485h-328v1204h725zM1399 1204v-928h389v-276h-721v1204h332z" />
    <glyph glyph-name="g.sc" horiz-adv-x="1312" 
d="M725 1229q220 0 420 -109v-293q-85 65 -189.5 102.5t-199.5 37.5q-57 0 -111 -13.5t-102.5 -43t-85 -71.5t-57.5 -103t-21 -134q0 -167 101 -266.5t257 -99.5q102 0 178 40v156h-159v236h444v-537q-73 -68 -196 -114t-271 -46q-139 0 -261.5 44t-213.5 123.5t-144 199
t-53 262.5q0 190 91.5 335t241.5 219.5t331 74.5z" />
    <glyph glyph-name="h.sc" horiz-adv-x="1359" 
d="M1225 1204v-1204h-330v479h-430v-479h-330v1204h330v-467h430v467h330z" />
    <glyph glyph-name="i.sc" horiz-adv-x="622" 
d="M479 1204v-1204h-336v1204h336z" />
    <glyph glyph-name="dotlessi.sc" horiz-adv-x="622" 
d="M479 1204v-1204h-336v1204h336z" />
    <glyph glyph-name="j.sc" horiz-adv-x="710" 
d="M561 1204v-856q0 -171 -101 -272t-274 -101q-79 0 -155 21v262q45 -10 73 -10q57 0 90 30.5t33 90.5v835h334z" />
    <glyph glyph-name="k.sc" horiz-adv-x="1236" 
d="M1223 1204l-498 -602l498 -602h-406l-352 465v-465h-332v1204h332v-465l352 465h406z" />
    <glyph glyph-name="l.sc" horiz-adv-x="905" 
d="M467 1204v-928h389v-276h-721v1204h332z" />
    <glyph glyph-name="m.sc" horiz-adv-x="1781" 
d="M1561 1204l129 -1204h-306l-77 723l-306 -746h-221l-305 746l-78 -723h-305l129 1204h354l312 -755l319 755h355z" />
    <glyph glyph-name="n.sc" horiz-adv-x="1394" 
d="M406 1206l542 -692v690h314v-1206h-271l-545 696v-694h-313v1206h273z" />
    <glyph glyph-name="o.sc" horiz-adv-x="1400" 
d="M700 1229q124 0 238 -42t204 -119.5t143.5 -199t53.5 -268.5t-53.5 -268.5t-143.5 -199t-204 -119.5t-238 -42t-238 42t-204 119.5t-143.5 199t-53.5 268.5t53.5 268.5t143.5 199t204 119.5t238 42zM700 946q-128 0 -226.5 -93.5t-98.5 -252.5t98.5 -252.5t226.5 -93.5
q60 0 117.5 23t104.5 65t75.5 109.5t28.5 148.5t-28.5 148.5t-75.5 109.5t-104.5 65t-117.5 23z" />
    <glyph glyph-name="p.sc" horiz-adv-x="1077" 
d="M133 1204h520q155 0 264 -109t109 -264t-109 -263.5t-264 -108.5h-207v-459h-313v1204zM573 975h-127v-289h127q59 0 101.5 41.5t42.5 101.5t-42.5 103t-101.5 43z" />
    <glyph glyph-name="q.sc" horiz-adv-x="1464" 
d="M700 1229q124 0 238 -42t204 -119.5t143.5 -199t53.5 -268.5q0 -182 -79 -321l266 -279h-361l-73 92q-168 -121 -392 -121q-124 0 -238 42t-204 119.5t-143.5 199t-53.5 268.5t53.5 268.5t143.5 199t204 119.5t238 42zM700 946q-128 0 -226.5 -93.5t-98.5 -252.5
t98.5 -252.5t226.5 -93.5q60 0 117.5 23t104.5 65t75.5 109.5t28.5 148.5t-28.5 148.5t-75.5 109.5t-104.5 65t-117.5 23z" />
    <glyph glyph-name="r.sc" horiz-adv-x="1122" 
d="M133 1204h518q155 0 264 -109t109 -264q0 -126 -75 -221.5t-193 -126.5l387 -483h-367l-321 469h-11v-469h-311v1204zM567 975h-123v-289h123q62 0 105 41.5t43 101.5t-43.5 103t-104.5 43z" />
    <glyph glyph-name="s.sc" horiz-adv-x="1021" 
d="M516 1231q201 0 379 -101v-276q-183 121 -350 121q-148 0 -148 -111q0 -56 42.5 -82t172.5 -65q54 -16 93 -31t93 -46t88.5 -67.5t59.5 -95t25 -129.5q0 -172 -127 -275.5t-332 -103.5q-207 0 -389 113v280q89 -62 188 -98.5t187 -36.5q153 0 153 113q0 21 -4.5 37
t-19 29.5t-27 22.5t-43 20.5t-52.5 18.5t-69 21q-35 11 -58.5 19t-64.5 26t-69.5 36t-62 48t-54.5 64t-35 81.5t-14 102.5q0 167 117 266t321 99z" />
    <glyph glyph-name="t.sc" horiz-adv-x="1015" 
d="M954 1204v-266h-280v-938h-332v938h-281v266h893z" />
    <glyph glyph-name="u.sc" horiz-adv-x="1292" 
d="M1169 1204v-710q0 -161 -71 -282t-189 -182t-264 -61t-263.5 61t-188 182t-70.5 282v710h330v-758q0 -87 55 -140.5t137 -53.5t138.5 53.5t56.5 140.5v758h329z" />
    <glyph glyph-name="v.sc" horiz-adv-x="1290" 
d="M1280 1204l-498 -1206h-274l-498 1206h340l295 -758l295 758h340z" />
    <glyph glyph-name="w.sc" horiz-adv-x="2140" 
d="M1198 1212l297 -739l293 731h342l-498 -1206h-274l-287 723l-289 -723h-274l-498 1206h342l293 -731l297 739h256z" />
    <glyph glyph-name="x.sc" horiz-adv-x="1234" 
d="M1196 1204l-387 -565l438 -639h-379l-247 373l-248 -373h-379l438 639l-387 565h375l201 -303l200 303h375z" />
    <glyph glyph-name="y.sc" horiz-adv-x="1259" 
d="M895 1210l354 -6l-454 -659v-545h-330v545l-455 659h359l262 -393z" />
    <glyph glyph-name="z.sc" horiz-adv-x="1064" 
d="M979 1208v-184l-485 -758h485v-266h-893v184l485 758h-485v266h893z" />
    <glyph glyph-name="zero.tf" horiz-adv-x="1269" 
d="M635 1513q246 0 392.5 -197.5t146.5 -574.5t-146.5 -574.5t-392.5 -197.5t-392.5 197.5t-146.5 574.5t146.5 574.5t392.5 197.5zM635 1223q-205 0 -205 -482q0 -481 205 -481t205 481q0 482 -205 482z" />
    <glyph glyph-name="one.tf" horiz-adv-x="1269" 
d="M809 1483v-1196h358v-287h-1065v287h359v727h-260v233q124 6 211.5 68t122.5 168h274z" />
    <glyph glyph-name="two.tf" horiz-adv-x="1269" 
d="M635 1513q217 0 353 -128.5t136 -321.5q0 -29 -2.5 -54.5t-11.5 -52.5t-15 -46.5t-23.5 -48t-27.5 -44.5t-36 -50t-38 -50t-46.5 -58t-49.5 -61l-249 -311h473v-287h-912v223l516 633q64 77 84.5 113t20.5 84q0 77 -46 124.5t-126 47.5q-94 0 -141 -63t-39 -161h-310
q-8 222 126.5 367t363.5 145z" />
    <glyph glyph-name="three.tf" horiz-adv-x="1269" 
d="M1008 1483v-221l-246 -291q147 -41 239.5 -159t92.5 -298q0 -127 -49.5 -230.5t-137 -171.5t-206.5 -104.5t-259 -36.5q-129 0 -254 43v308q115 -56 256 -56q149 0 235.5 64.5t86.5 185.5q0 96 -53.5 145.5t-132.5 49.5q-102 0 -209 -101v316l231 276h-399v281h805z" />
    <glyph glyph-name="four.tf" horiz-adv-x="1269" 
d="M954 1483l-505 -908h294v220l318 2v-222h123v-276h-123v-299l-318 -2v301h-659v281l504 903h366z" />
    <glyph glyph-name="five.tf" horiz-adv-x="1269" 
d="M1018 1483v-281h-447l-14 -231q58 10 107 10q91 0 172.5 -32t144 -91t99 -149t36.5 -199q0 -168 -84.5 -293t-227.5 -188.5t-323 -63.5q-171 0 -293 53l21 299q109 -57 260 -57q146 0 232.5 64t86.5 184q0 97 -53 147t-133 50q-98 0 -158 -82l-208 86l53 774h729z" />
    <glyph glyph-name="six.tf" horiz-adv-x="1269" 
d="M995 1483l-393 -604q61 14 117 14q63 0 124.5 -17t118.5 -52.5t100 -86.5t69 -123.5t26 -158.5q0 -214 -148 -353t-378 -139t-374 139.5t-144 364.5q0 147 61 287q39 91 143 254l308 475h370zM639 649q-88 0 -140.5 -58t-52.5 -151q0 -94 52 -151.5t141 -57.5t140.5 57
t51.5 152q0 93 -52 151t-140 58z" />
    <glyph glyph-name="seven.tf" horiz-adv-x="1269" 
d="M1118 1483v-269q-148 -178 -230.5 -301t-129.5 -247q-48 -127 -66 -278.5t-16 -387.5h-354q0 401 79 655q86 276 308 541h-559v287h968z" />
    <glyph glyph-name="eight.tf" horiz-adv-x="1269" 
d="M635 1513q217 0 354 -113t137 -298q0 -199 -161 -320q104 -57 154 -153.5t50 -210.5q0 -205 -147.5 -330t-386.5 -125t-387 125t-148 330q0 114 50.5 210.5t154.5 153.5q-162 122 -162 320q0 185 137.5 298t354.5 113zM633 639q-82 0 -132 -59.5t-50 -147.5t50 -147.5
t132 -59.5t132 59.5t50 147.5t-50 147.5t-132 59.5zM635 1251q-70 0 -113 -48t-43 -122q0 -77 44 -131.5t112 -54.5t112 54.5t44 131.5q0 74 -43 122t-113 48z" />
    <glyph glyph-name="nine.tf" horiz-adv-x="1269" 
d="M639 1520q230 0 374 -139.5t144 -364.5q0 -147 -61 -287q-37 -86 -144 -254l-307 -475h-371l394 604q-61 -14 -117 -14q-63 0 -124.5 17t-118.5 52.5t-100 86.5t-69 123.5t-26 158.5q0 214 148 353t378 139zM631 1251q-88 0 -140.5 -57t-52.5 -150q0 -95 52 -152.5
t141 -57.5q88 0 140 57.5t52 152.5q0 93 -52 150t-140 57z" />
    <glyph glyph-name="zero.sc" horiz-adv-x="1183" 
d="M592 1229q84 0 157.5 -23t137 -72.5t108.5 -122t71 -178.5t26 -235t-26 -235t-71 -178.5t-108.5 -122t-137 -72.5t-157.5 -23t-157.5 23t-137 72.5t-108.5 122t-71 178.5t-26 235t26 235t71 178.5t108.5 122t137 72.5t157.5 23zM592 961q-94 0 -140 -85t-46 -278
t46 -277.5t140 -84.5t140 84.5t46 277.5t-46 278t-140 85z" />
    <glyph glyph-name="one.sc" horiz-adv-x="851" 
d="M657 1204v-1204h-319v780h-236v211q113 4 192 60.5t112 152.5h251z" />
    <glyph glyph-name="two.sc" horiz-adv-x="993" 
d="M498 1229q182 0 297.5 -105.5t115.5 -263.5q0 -98 -49 -185t-155 -208l-185 -211h365v-256h-768v176l420 520q37 47 49.5 64t25.5 44.5t13 51.5q0 52 -36.5 83.5t-92.5 31.5q-76 0 -112.5 -55t-23.5 -134h-278q-11 123 36 225t146.5 162t231.5 60z" />
    <glyph glyph-name="three.sc" horiz-adv-x="909" 
d="M750 1204v-211l-199 -211q126 -35 201 -131t75 -243q0 -111 -46.5 -198t-124 -138t-170 -77t-193.5 -26q-105 0 -211 35v260q95 -39 205 -39q116 0 187 45.5t71 139.5q0 73 -44 112t-112 39q-93 0 -182 -78v242l203 229h-316v250h656z" />
    <glyph glyph-name="four.sc" horiz-adv-x="1089" 
d="M811 1204l-389 -721h201v158l270 4v-162h115v-247h-115v-236h-270v236h-541v223l405 745h324z" />
    <glyph glyph-name="five.sc" horiz-adv-x="937" 
d="M776 1204v-250h-364l-13 -166q37 9 78 9q155 0 267 -106t112 -269q0 -96 -31 -173.5t-82 -128.5t-120 -86t-142 -50t-151 -15q-144 0 -248 43l16 256q98 -43 219 -43q116 0 185 45.5t69 147.5q0 60 -41.5 101.5t-103.5 41.5q-77 0 -125 -65l-182 71l43 637h614z" />
    <glyph glyph-name="six.sc" horiz-adv-x="1028" 
d="M815 1204l-328 -491q54 14 99 14q65 0 127.5 -23t115 -66t85 -113t32.5 -156q0 -174 -122.5 -287t-313.5 -113t-309.5 113.5t-118.5 296.5q0 124 55 246q11 23 26.5 50.5t36 61t38 62t45 71t44.5 68.5t48.5 73t44.5 66.5t46 68t40 58.5h309zM518 506q-64 0 -101.5 -41
t-37.5 -109q0 -67 37.5 -107t101.5 -40q63 0 100 40.5t37 106.5q0 68 -37 109t-100 41z" />
    <glyph glyph-name="seven.sc" horiz-adv-x="946" 
d="M864 1204v-227q-96 -106 -161 -197t-109 -194q-100 -227 -100 -586h-304q0 378 97 604q64 152 225 357h-440v243h792z" />
    <glyph glyph-name="eight.sc" horiz-adv-x="1024" 
d="M512 1235q177 0 287 -97.5t110 -250.5q0 -156 -112 -254q145 -100 145 -287q0 -167 -120 -273t-310 -106t-310 106t-120 273q0 187 145 287q-112 98 -112 254q0 153 110 250.5t287 97.5zM510 500q-62 0 -106 -43t-44 -105q0 -61 42.5 -102t107.5 -41q64 0 106.5 40.5
t42.5 102.5q0 63 -43.5 105.5t-105.5 42.5zM512 993q-56 0 -90.5 -33.5t-34.5 -89.5q0 -57 35 -94t90 -37t90 37t35 94q0 56 -34.5 89.5t-90.5 33.5z" />
    <glyph glyph-name="nine.sc" horiz-adv-x="1028" 
d="M518 1235q191 0 309.5 -113.5t118.5 -296.5q0 -123 -55 -245q-64 -130 -369 -580h-309l328 492q-58 -15 -99 -15q-65 0 -127.5 23t-115 66.5t-85 113.5t-32.5 156q0 174 122.5 286.5t313.5 112.5zM510 997q-63 0 -101 -41.5t-38 -107.5q0 -68 38 -110t101 -42
q64 0 102.5 42t38.5 110q0 67 -38.5 108t-102.5 41z" />
    <glyph glyph-name="comma.tf" horiz-adv-x="737" 
d="M627 285l-314 -500h-204l165 500h353z" />
    <glyph glyph-name="period.tf" horiz-adv-x="737" 
d="M369 342q77 0 131.5 -55t54.5 -131q0 -77 -55 -132t-131 -55q-77 0 -132 55.5t-55 131.5t55 131t132 55z" />
    <glyph glyph-name="slash.sc" horiz-adv-x="1013" 
d="M952 1204l-643 -1204h-248l644 1204h247z" />
    <glyph glyph-name="ampersand.sc" horiz-adv-x="1419" 
d="M612 1257q156 0 257.5 -85t101.5 -216q0 -102 -70 -190q-55 -69 -158 -131l168 -193l342 279v-344l-159 -131l223 -246h-346l-78 84q-124 -109 -313 -109q-82 0 -159 24.5t-139.5 70.5t-100.5 120.5t-38 165.5q0 199 181 326q-97 139 -97 252q0 137 110.5 230t274.5 93z
M713 276l-209 222q-78 -54 -78 -129q0 -66 45 -104t111 -38q79 0 131 49zM608 1022q-44 0 -72 -25t-28 -63q0 -65 72 -123q120 68 120 133q0 32 -25.5 55t-66.5 23z" />
    <glyph glyph-name="percent.sc" horiz-adv-x="1597" 
d="M1298 1204l-829 -1206h-170l829 1206h170zM401 1227q125 0 213 -87t88 -212q0 -123 -88.5 -211t-212.5 -88t-211.5 88t-87.5 211q0 126 87 212.5t212 86.5zM401 1061q-53 0 -89 -38t-36 -95q0 -53 37 -93t88 -40q54 0 90.5 38.5t36.5 94.5q0 54 -37.5 93.5t-89.5 39.5z
M1204 569q124 0 207.5 -87t83.5 -214q0 -123 -88.5 -211t-212.5 -88t-211.5 88t-87.5 211q0 125 91.5 213t217.5 88zM1194 403q-53 0 -89 -39t-36 -96q0 -53 37 -93t88 -40q54 0 90.5 38.5t36.5 94.5t-37.5 95.5t-89.5 39.5z" />
    </font>
</defs>
</svg>
